<?xml version="1.0" encoding="UTF-8" standalone="no"?>
<svg
   xmlns:dc="http://purl.org/dc/elements/1.1/"
   xmlns:cc="http://creativecommons.org/ns#"
   xmlns:rdf="http://www.w3.org/1999/02/22-rdf-syntax-ns#"
   xmlns:svg="http://www.w3.org/2000/svg"
   xmlns="http://www.w3.org/2000/svg"
   xmlns:sodipodi="http://sodipodi.sourceforge.net/DTD/sodipodi-0.dtd"
   xmlns:inkscape="http://www.inkscape.org/namespaces/inkscape"
   version="1.1"
   width="92"
   height="92"
   viewBox="-0.11 -0.074 92 92"
   enable-background="new -0.11 -0.074 92 92"
   xml:space="preserve"
   id="svg4638"
   sodipodi:docname="3.svg"
   inkscape:version="0.92.2 (5c3e80d, 2017-08-06)"><metadata
     id="metadata4642"><rdf:RDF><cc:Work
         rdf:about=""><dc:format>image/svg+xml</dc:format><dc:type
           rdf:resource="http://purl.org/dc/dcmitype/StillImage" /></cc:Work></rdf:RDF></metadata><sodipodi:namedview
     pagecolor="#ffffff"
     bordercolor="#666666"
     borderopacity="1"
     objecttolerance="10"
     gridtolerance="10"
     guidetolerance="10"
     inkscape:pageopacity="0"
     inkscape:pageshadow="2"
     inkscape:window-width="716"
     inkscape:window-height="480"
     id="namedview4640"
     showgrid="false"
     inkscape:zoom="2.5652174"
     inkscape:cx="46"
     inkscape:cy="46"
     inkscape:window-x="0"
     inkscape:window-y="0"
     inkscape:window-maximized="0"
     inkscape:current-layer="svg4638" /><defs
     id="defs4609" /><polygon
     fill="#CD3027"
     points="86.226,79.684 91.852,85.004 91.852,86.231 86.226,91.857 "
     id="polygon4611"
     style="fill:#00ff00" /><polygon
     fill="#CD3027"
     points="13.093,5.626 7.773,0 5.625,0 0,5.626 "
     id="polygon4613"
     style="fill:#00ff00" /><linearGradient
     id="XMLID_6_"
     gradientUnits="userSpaceOnUse"
     x1="307.5903"
     y1="-208.624"
     x2="389.4087"
     y2="-208.624"
     gradientTransform="matrix(1.0526 0 0 -1.0526 -318.0519 -176.4892)"><stop
       offset="0"
       style="stop-color:#F16B24"
       id="stop4615" /><stop
       offset="1"
       style="stop-color:#F05024"
       id="stop4617" /></linearGradient><polygon
     fill="url(#XMLID_6_)"
     points="91.852,49.406 42.551,0 5.728,0 91.852,86.231 "
     id="polygon4620"
     style="fill:#008000" /><path
     fill="#FFFFFF"
     d="M34.674,4.296l2.66,2.659c1.534,1.534,1.636,3.478,0.205,4.808l0,0c-1.534,1.535-3.478,1.125-5.012-0.307  l-1.125-1.125l-1.943,1.944l-1.432-1.432L34.674,4.296z M33.856,10.229c0.716,0.716,1.636,0.716,2.148,0.103l0,0  c0.613-0.614,0.511-1.433-0.204-2.148l-1.023-1.125l-2.046,2.046L33.856,10.229z"
     id="path4622" /><path
     fill="#FFFFFF"
     d="M40.402,10.025l3.068,3.068c0.819,0.818,1.227,1.739,1.227,2.558c0,0.715-0.306,1.432-0.92,2.045l0,0  c-1.022,1.023-2.352,1.125-3.478,0.614l-0.716,3.99l-1.739-1.74l0.716-3.58l-1.125-1.125l-2.251,2.251l-1.432-1.433L40.402,10.025z   M40.095,16.162c0.716,0.716,1.535,0.716,2.046,0.204l0,0c0.614-0.613,0.512-1.33-0.205-2.045l-1.432-1.432l-1.943,1.943  L40.095,16.162z"
     id="path4624" /><path
     fill="#FFFFFF"
     d="M43.062,19.333L43.062,19.333c1.943-1.943,4.91-1.943,6.956,0.103c2.045,2.046,1.942,5.012,0.103,6.853l0,0  c-1.843,1.841-4.91,1.944-6.957-0.103C41.119,24.141,41.119,21.174,43.062,19.333z M48.482,24.856L48.482,24.856  c1.125-1.125,1.228-2.966,0.103-4.092c-1.125-1.125-2.864-1.022-3.989,0.103l0,0c-1.125,1.125-1.227,2.864-0.102,4.091  C45.618,26.084,47.358,25.982,48.482,24.856z"
     id="path4626" /><path
     fill="#FFFFFF"
     d="M54.109,23.731l1.534,1.534l-1.023,4.501l4.502-1.023l1.533,1.534l-6.648,6.649l-1.432-1.433l4.297-4.295  l-4.706,0.92l0,0l0.921-4.603l-4.297,4.296l-1.33-1.432L54.109,23.731z"
     id="path4628" /><path
     fill="#FFFFFF"
     d="M58.097,34.37L58.097,34.37c1.943-1.943,4.91-1.943,6.955,0.102c2.046,2.046,1.943,5.013,0.103,6.854l0,0  c-1.842,1.842-4.91,1.944-6.955-0.103C56.154,39.279,56.255,36.313,58.097,34.37z M63.622,39.894L63.622,39.894  c1.126-1.126,1.227-2.966,0.103-4.091c-1.125-1.126-2.864-1.023-3.989,0.102l0,0c-1.126,1.126-1.229,2.864-0.103,4.091  C60.757,41.121,62.496,41.019,63.622,39.894z"
     id="path4630" /><path
     fill="#FFFFFF"
     d="M63.007,48.077l1.841-0.409c-1.227-1.842-0.92-4.296,0.717-5.831l0,0c1.84-1.842,4.808-2.046,6.853,0  c1.228,1.228,1.533,2.456,1.533,3.58l-1.943,0.204c0-1.023-0.306-1.738-0.919-2.454c-1.126-1.126-2.864-1.023-3.99,0.102l0,0  c-1.125,1.125-1.329,2.864-0.204,3.99c0.717,0.716,1.535,0.921,2.558,0.921v1.842c-1.33,0-2.456-0.206-3.683-1.331l-2.147,0.92  L63.007,48.077z"
     id="path4632" /><path
     fill="#FFFFFF"
     d="M77.838,47.463l1.329,1.33l-3.782,9.512l-1.536-1.533l0.92-2.045l-2.762-2.865l-2.045,0.921l-1.432-1.433  L77.838,47.463z M75.486,52.885l1.227-3.069l-3.067,1.228L75.486,52.885z M77.329,45.417c1.021-0.614,1.839-0.819,2.454-0.102  c0.613,0.613,0.715,1.534,1.124,1.841c0.308,0.307,0.613,0.204,1.024,0.103l0.51,1.022c-1.022,0.613-1.841,0.818-2.454,0.103  c-0.614-0.614-0.716-1.535-1.126-1.842c-0.307-0.306-0.612-0.204-1.022-0.102L77.329,45.417z"
     id="path4634" /><path
     fill="#FFFFFF"
     d="M78.453,54.727L78.453,54.727c1.943-1.944,4.909-1.944,6.954,0.102c2.046,2.047,1.944,5.013,0.103,6.854l0,0  c-1.841,1.842-4.909,1.943-6.955-0.103C76.509,59.533,76.509,56.566,78.453,54.727z M83.874,60.248L83.874,60.248  c1.126-1.123,1.228-2.966,0.103-4.091c-1.126-1.124-2.864-1.022-3.989,0.102l0,0c-1.126,1.126-1.229,2.866-0.103,4.092  C81.009,61.478,82.749,61.374,83.874,60.248z"
     id="path4636" /></svg>