<svg xmlns="http://www.w3.org/2000/svg" x="0px" y="0px" width="66px" height="40px" viewBox="-17 -4 66 40" enable-background="new -17 -4 66 40" xml:space="preserve"><path fill="#252F3E" d="M1.6 10.334c0 .812.087 1.471.241 1.953.176.483.395 1.01.702 1.581.11.176.154.351.154.505 0 .22-.132.439-.418.658l-1.383.923a1.055 1.055 0 0 1-.57.197c-.22 0-.439-.11-.658-.308a6.827 6.827 0 0 1-.791-1.031 16.98 16.98 0 0 1-.68-1.295c-1.712 2.019-3.864 3.029-6.455 3.029-1.843 0-3.314-.527-4.39-1.581s-1.624-2.459-1.624-4.215c0-1.865.658-3.381 1.997-4.522 1.339-1.141 3.118-1.711 5.378-1.711.747 0 1.515.066 2.327.175.812.11 1.646.286 2.524.483V3.574c0-1.669-.351-2.832-1.032-3.512-.702-.681-1.888-1.01-3.578-1.01-.768 0-1.558.087-2.371.285-.812.197-1.603.438-2.371.746a6.429 6.429 0 0 1-.769.286 1.34 1.34 0 0 1-.352.065c-.307 0-.46-.219-.46-.68v-1.075c0-.352.043-.615.153-.769.11-.154.307-.308.615-.461.769-.395 1.69-.724 2.766-.987 1.076-.285 2.218-.417 3.424-.417 2.613 0 4.522.592 5.752 1.778C.937-.992 1.552.808 1.552 3.222v7.112H1.6zm-8.912 3.337c.724 0 1.471-.132 2.261-.395.79-.264 1.493-.747 2.085-1.405.351-.418.615-.878.746-1.405.132-.526.22-1.163.22-1.909v-.923c-.637-.153-1.317-.285-2.02-.373s-1.383-.132-2.063-.132c-1.471 0-2.546.286-3.271.879-.725.593-1.076 1.427-1.076 2.524 0 1.031.264 1.799.812 2.326.527.55 1.296.813 2.306.813zm17.626 2.371c-.396 0-.658-.065-.834-.22-.175-.131-.329-.438-.46-.855L3.86-2.002c-.131-.439-.197-.724-.197-.878 0-.352.177-.549.527-.549h2.15c.418 0 .703.066.856.22.178.131.308.439.44.855l3.688 14.533 3.425-14.533c.109-.439.241-.724.417-.855.176-.132.483-.22.878-.22H17.8c.415 0 .702.066.877.22.176.131.328.439.418.855l3.468 14.708 3.799-14.708c.13-.439.284-.724.438-.855.177-.132.462-.22.857-.22h2.04c.351 0 .55.175.55.549 0 .11-.022.219-.045.351a2.879 2.879 0 0 1-.154.549l-5.289 16.968c-.132.439-.287.725-.462.856s-.46.219-.833.219h-1.888c-.418 0-.703-.064-.88-.219-.175-.153-.328-.438-.415-.878L16.877.808l-3.38 14.136c-.108.439-.241.725-.416.878-.176.154-.483.22-.879.22h-1.888zm28.207.593a14.6 14.6 0 0 1-3.381-.395c-1.098-.264-1.952-.549-2.522-.878-.353-.197-.595-.418-.681-.615a1.511 1.511 0 0 1-.132-.615v-1.118c0-.462.175-.682.505-.682.132 0 .263.022.395.066.133.044.328.132.548.22.748.329 1.561.593 2.416.768.877.177 1.734.264 2.61.264 1.385 0 2.46-.241 3.205-.724.748-.483 1.143-1.187 1.143-2.086 0-.614-.197-1.119-.593-1.536-.395-.417-1.14-.791-2.218-1.143l-3.183-.987c-1.601-.504-2.786-1.25-3.511-2.238-.726-.966-1.1-2.042-1.1-3.183 0-.922.199-1.734.595-2.437a5.608 5.608 0 0 1 1.58-1.8c.658-.505 1.405-.878 2.283-1.142C37.357-3.89 38.278-4 39.246-4c.482 0 .987.022 1.47.088.505.065.968.154 1.428.242.439.11.855.219 1.25.351.396.131.703.263.923.395.308.175.527.352.658.549.132.175.197.417.197.724V-.62c0 .461-.175.703-.503.703-.178 0-.463-.087-.835-.264-1.251-.57-2.655-.855-4.216-.855-1.25 0-2.24.198-2.92.614-.681.417-1.03 1.054-1.03 1.954 0 .615.22 1.141.659 1.559.438.417 1.251.834 2.413 1.207l3.118.987c1.58.505 2.721 1.208 3.401 2.108.68.9 1.01 1.932 1.01 3.073 0 .943-.197 1.8-.57 2.547a5.935 5.935 0 0 1-1.603 1.931c-.681.549-1.493.944-2.438 1.229-.985.308-2.017.462-3.137.462z"/><g fill="#F90"><path d="M42.669 27.301c-7.222 5.336-17.713 8.168-26.736 8.168-12.643 0-24.036-4.676-32.64-12.447-.681-.613-.066-1.449.746-.965 9.307 5.4 20.788 8.67 32.663 8.67 8.011 0 16.814-1.668 24.914-5.09 1.208-.551 2.238.789 1.053 1.664z"/><path d="M45.677 23.879c-.923-1.186-6.104-.57-8.451-.285-.703.088-.812-.527-.175-.988 4.128-2.898 10.909-2.064 11.699-1.098.79.988-.22 7.77-4.081 11.02-.595.506-1.165.24-.9-.418.876-2.172 2.831-7.069 1.908-8.231z"/></g></svg>
