<?xml version="1.0" encoding="utf-8"?>
<!-- Generator: Adobe Illustrator 15.0.0, SVG Export Plug-In . SVG Version: 6.00 Build 0)  -->
<!DOCTYPE svg PUBLIC "-//W3C//DTD SVG 1.1//EN" "http://www.w3.org/Graphics/SVG/1.1/DTD/svg11.dtd">
<svg version="1.1" id="Layer_1" xmlns="http://www.w3.org/2000/svg" xmlns:xlink="http://www.w3.org/1999/xlink" x="0px" y="0px"
	 width="22px" height="22px" viewBox="-1 -1 22 22" enable-background="new -1 -1 22 22" xml:space="preserve">
<g id="Layer_1_1_">
</g>
<g>
	<circle fill="#FFFFFF" cx="10" cy="10" r="11"/>
	<path fill="#DA151D" d="M10,0C4.477,0,0,4.477,0,10c0,5.523,4.477,10,10,10c5.523,0,10-4.477,10-10C20,4.477,15.523,0,10,0z
		 M14.674,6.275l-3.752,3.752l3.322,3.7c0.262,0.26,0.262,0.688,0,0.947c-0.264,0.266-0.689,0.266-0.951,0l-3.316-3.695
		l-3.702,3.695c-0.262,0.266-0.689,0.266-0.951,0c-0.262-0.26-0.262-0.686,0-0.947l3.75-3.752l-3.318-3.7
		c-0.263-0.263-0.263-0.69,0-0.952c0.262-0.263,0.688-0.263,0.951,0l3.318,3.7l3.7-3.7c0.262-0.263,0.688-0.263,0.948,0
		C14.938,5.586,14.938,6.012,14.674,6.275z"/>
</g>
</svg>
