<?xml version="1.0" encoding="utf-8"?>
<!-- Generator: Adobe Illustrator 15.0.0, SVG Export Plug-In . SVG Version: 6.00 Build 0)  -->
<!DOCTYPE svg PUBLIC "-//W3C//DTD SVG 1.1//EN" "http://www.w3.org/Graphics/SVG/1.1/DTD/svg11.dtd">
<svg version="1.1" id="Layer_1" xmlns="http://www.w3.org/2000/svg" xmlns:xlink="http://www.w3.org/1999/xlink" x="0px" y="0px"
	 width="24px" height="24px" viewBox="-6.038 -1 24 24" enable-background="new -6.038 -1 24 24" xml:space="preserve">
<g id="Layer_1_1_">
</g>
<path fill="#FFFFFF" d="M17.961,11c0-6.627-5.371-12-11.999-12c-6.627,0-12,5.373-12,12v12h23.999V11z"/>
<g>
	<path fill="#DA151D" d="M5.962,1c-5.522,0-10,4.477-10,10c0,5.524,4.478,10,10,10c5.523,0,9.999-4.477,9.999-10
		C15.961,5.477,11.485,1,5.962,1z"/>
	<path fill="#FFFFFF" d="M10.636,7.276l-3.752,3.752l3.322,3.699c0.262,0.26,0.262,0.689,0,0.947c-0.264,0.266-0.689,0.266-0.951,0
		l-3.315-3.695l-3.701,3.695c-0.262,0.266-0.688,0.266-0.95,0c-0.263-0.26-0.263-0.686,0-0.947l3.75-3.751l-3.32-3.701
		c-0.262-0.263-0.262-0.689,0-0.951c0.263-0.264,0.688-0.264,0.951,0l3.318,3.699l3.699-3.699c0.262-0.264,0.688-0.264,0.949,0
		C10.899,6.587,10.899,7.013,10.636,7.276z"/>
</g>
</svg>
