<?xml version="1.0" encoding="utf-8"?>
<!-- Generator: Adobe Illustrator 15.0.0, SVG Export Plug-In . SVG Version: 6.00 Build 0)  -->
<!DOCTYPE svg PUBLIC "-//W3C//DTD SVG 1.1//EN" "http://www.w3.org/Graphics/SVG/1.1/DTD/svg11.dtd">
<svg version="1.1" id="Layer_1" xmlns="http://www.w3.org/2000/svg" xmlns:xlink="http://www.w3.org/1999/xlink" x="0px" y="0px"
	 width="20px" height="20px" viewBox="0 0 20 20" enable-background="new 0 0 20 20" xml:space="preserve">
<g id="Layer_1_1_">
</g>
<path d="M10,0C4.477,0,0,4.477,0,10c0,5.523,4.477,10,10,10c5.523,0,10-4.477,10-10C20,4.477,15.523,0,10,0z M14.674,6.275
	l-3.752,3.752l3.322,3.699c0.262,0.26,0.262,0.688,0,0.948c-0.264,0.265-0.689,0.265-0.951,0l-3.316-3.696l-3.702,3.696
	c-0.262,0.265-0.689,0.265-0.951,0c-0.262-0.26-0.262-0.686,0-0.948l3.75-3.752l-3.318-3.7c-0.263-0.263-0.263-0.69,0-0.952
	c0.262-0.263,0.688-0.263,0.951,0l3.318,3.7l3.699-3.7c0.262-0.263,0.688-0.263,0.949,0C14.938,5.586,14.938,6.012,14.674,6.275z"/>
</svg>
