<?xml version="1.0" encoding="utf-8"?>
<!-- Generator: Adobe Illustrator 15.0.0, SVG Export Plug-In . SVG Version: 6.00 Build 0)  -->
<!DOCTYPE svg PUBLIC "-//W3C//DTD SVG 1.1//EN" "http://www.w3.org/Graphics/SVG/1.1/DTD/svg11.dtd">
<svg version="1.1" xmlns="http://www.w3.org/2000/svg" xmlns:xlink="http://www.w3.org/1999/xlink" x="0px" y="0px" width="20px"
	 height="20px" viewBox="2 2 20 20" enable-background="new 2 2 20 20" xml:space="preserve">
<g id="Layer_1">
</g>
<g id="Layer_2">
	<circle fill="#DA151D" cx="12" cy="12" r="10"/>
	<g>
		<g>
			<g>
				<path fill="#FFFFFF" d="M15.725,7.323l-3.699,3.7l-3.319-3.7c-0.263-0.263-0.689-0.263-0.951,0
					c-0.263,0.262-0.263,0.689,0,0.952l3.318,3.7l-3.75,3.751c-0.262,0.263-0.262,0.689,0,0.949c0.262,0.265,0.689,0.265,0.951,0
					l3.701-3.696l3.317,3.696c0.262,0.265,0.688,0.265,0.951,0c0.262-0.26,0.262-0.688,0-0.949l-3.322-3.699l3.752-3.752
					c0.264-0.263,0.264-0.689,0-0.952C16.412,7.06,15.986,7.06,15.725,7.323z"/>
			</g>
		</g>
	</g>
</g>
</svg>
