<?xml version="1.0" encoding="utf-8"?>
<!-- Generator: Adobe Illustrator 24.1.0, SVG Export Plug-In . SVG Version: 6.00 Build 0)  -->
<svg version="1.1" id="Layer_1" xmlns="http://www.w3.org/2000/svg" xmlns:xlink="http://www.w3.org/1999/xlink" x="0px" y="0px"
	 viewBox="0 0 14.79 14.79" style="enable-background:new 0 0 14.79 14.79;" xml:space="preserve">
<style type="text/css">
	.st0{fill:#FED402;}
</style>
<g id="Group_1214" transform="translate(-162.999 -126)">
	<g id="Group_1205" transform="translate(-478.445 2501.198)">
		<path id="Path_2770" class="st0" d="M648.84-2365.93L648.84-2365.93c-1.03,0-1.87-0.84-1.87-1.87l0,0c0-1.03,0.84-1.87,1.87-1.87
			s1.87,0.84,1.87,1.87C650.71-2366.77,649.87-2365.93,648.84-2365.93L648.84-2365.93"/>
		<path id="Path_2771" class="st0" d="M650.66-2360.4h-3.64c-0.18,0-0.32-0.15-0.32-0.32v-1.82c0-1.19,0.96-2.15,2.15-2.15
			c1.18,0,2.15,0.96,2.15,2.15v1.82C650.99-2360.55,650.84-2360.4,650.66-2360.4"/>
		<path id="Path_2772" class="st0" d="M641.44-2365.98v-3.64c0-0.18,0.15-0.32,0.32-0.32h1.82c1.18,0,2.15,0.96,2.15,2.15l0,0
			c0,1.18-0.96,2.15-2.15,2.15h-1.82C641.59-2365.66,641.44-2365.8,641.44-2365.98"/>
		<path id="Path_2773" class="st0" d="M647.02-2375.2h3.64c0.18,0,0.32,0.14,0.32,0.32c0,0,0,0,0,0v1.82c0,1.18-0.96,2.15-2.14,2.15
			c0,0,0,0,0,0c-1.18,0-2.15-0.96-2.15-2.15l0,0v-1.82C646.69-2375.05,646.84-2375.2,647.02-2375.2
			C647.02-2375.2,647.02-2375.2,647.02-2375.2"/>
		<path id="Path_2774" class="st0" d="M656.23-2369.62v3.64c0,0.18-0.15,0.32-0.32,0.32h-1.82c-1.18,0-2.15-0.96-2.15-2.15
			c0,0,0,0,0,0c0-1.18,0.96-2.15,2.14-2.15c0,0,0,0,0,0h1.82C656.09-2369.95,656.24-2369.8,656.23-2369.62"/>
		<path id="Path_2775" class="st0" d="M641.81-2364.7L641.81-2364.7c-0.18,0-0.32,0.15-0.32,0.32v3.64c0,0.18,0.15,0.32,0.32,0.32
			h3.64c0.18,0,0.32-0.15,0.32-0.32C645.78-2362.92,644-2364.7,641.81-2364.7L641.81-2364.7"/>
		<path id="Path_2776" class="st0" d="M645.73-2374.83L645.73-2374.83c0-0.18-0.15-0.32-0.32-0.32h-3.64
			c-0.18,0-0.32,0.14-0.32,0.32c0,0,0,0,0,0v3.64c0,0.18,0.14,0.32,0.32,0.32C643.96-2370.86,645.73-2372.64,645.73-2374.83
			L645.73-2374.83"/>
		<path id="Path_2777" class="st0" d="M655.87-2370.91L655.87-2370.91c0.18,0,0.32-0.14,0.32-0.32v-3.64c0-0.18-0.14-0.32-0.32-0.32
			h-3.64c-0.18,0-0.32,0.14-0.32,0.32c0,0,0,0,0,0C651.91-2372.68,653.68-2370.91,655.87-2370.91L655.87-2370.91"/>
		<path id="Path_2778" class="st0" d="M651.95-2360.77L651.95-2360.77c0,0.18,0.14,0.32,0.32,0.32c0,0,0,0,0,0h3.64
			c0.18,0,0.32-0.14,0.32-0.32v-3.64c0-0.18-0.14-0.32-0.32-0.32c0,0,0,0,0,0C653.72-2364.73,651.95-2362.96,651.95-2360.77
			L651.95-2360.77"/>
	</g>
</g>
</svg>
