<?xml version="1.0" encoding="utf-8"?>
<!-- Generator: Adobe Illustrator 24.1.0, SVG Export Plug-In . SVG Version: 6.00 Build 0)  -->
<svg version="1.1" id="Layer_1" xmlns="http://www.w3.org/2000/svg" xmlns:xlink="http://www.w3.org/1999/xlink" x="0px" y="0px"
	 viewBox="0 0 230.47 73.08" style="enable-background:new 0 0 230.47 73.08;" xml:space="preserve">
<style type="text/css">
	.st0{fill:#FED401;}
	.st1{fill:#FFFFFF;}
</style>
<path class="st0" d="M36.54,45.78L36.54,45.78c-5.11,0-9.25-4.14-9.25-9.25c0-5.11,4.14-9.25,9.25-9.25c5.11,0,9.25,4.14,9.25,9.25
	C45.79,41.65,41.64,45.78,36.54,45.78"/>
<path class="st0" d="M45.54,73.08h-18c-0.88,0-1.6-0.72-1.6-1.6v-9c0-5.85,4.75-10.6,10.6-10.6s10.6,4.75,10.6,10.6v9
	C47.14,72.36,46.42,73.08,45.54,73.08"/>
<path class="st0" d="M0,45.54v-18c0-0.88,0.72-1.6,1.6-1.6h9c5.85,0,10.6,4.74,10.6,10.6s-4.74,10.6-10.6,10.6h-9
	C0.72,47.14,0,46.42,0,45.54"/>
<path class="st0" d="M27.54,0h18c0.88,0,1.6,0.72,1.6,1.6v9c0,5.85-4.75,10.6-10.6,10.6s-10.6-4.74-10.6-10.6v-9
	C25.94,0.72,26.65,0,27.54,0"/>
<path class="st0" d="M73.08,27.54v18c0,0.88-0.72,1.6-1.6,1.6h-9c-5.85,0-10.6-4.75-10.6-10.6s4.74-10.6,10.6-10.6h9
	C72.36,25.94,73.08,26.66,73.08,27.54"/>
<path class="st0" d="M1.8,51.88L1.8,51.88c-0.88,0-1.6,0.72-1.6,1.6v18c0,0.88,0.72,1.6,1.6,1.6h18c0.88,0,1.6-0.72,1.6-1.6
	C21.4,60.65,12.63,51.88,1.8,51.88"/>
<path class="st0" d="M21.2,1.8L21.2,1.8c0-0.88-0.72-1.6-1.6-1.6h-18C0.72,0.2,0,0.92,0,1.8v18c0,0.88,0.72,1.6,1.6,1.6
	C12.42,21.4,21.2,12.63,21.2,1.8"/>
<path class="st0" d="M71.27,21.2L71.27,21.2c0.88,0,1.6-0.72,1.6-1.6v-18c0-0.88-0.72-1.6-1.6-1.6h-18c-0.88,0-1.6,0.72-1.6,1.6
	C51.67,12.42,60.45,21.2,71.27,21.2"/>
<path class="st0" d="M51.88,71.27L51.88,71.27c0,0.88,0.72,1.6,1.6,1.6h18c0.88,0,1.6-0.72,1.6-1.6v-18c0-0.88-0.72-1.6-1.6-1.6
	C60.66,51.67,51.88,60.45,51.88,71.27"/>
<path class="st1" d="M101.31,30.45c-7.57,0-11.57-5.53-11.57-11.94c0-6.55,4.41-12.22,11.75-12.22c3.47,0,6.26,1.18,8.39,3.52
	c0.5,0.54,0.46,1.37-0.11,1.84l-1.29,1.09c-0.52,0.44-1.31,0.37-1.76-0.13c-1.33-1.47-3.02-2.18-5.19-2.18
	c-4.83,0-7.25,3.57-7.25,7.8c0,4.27,2.65,8.08,7.39,8.08c2.33,0,4.46-1.04,5.9-2.81c0.42-0.52,1.2-0.63,1.74-0.24l1.05,0.77
	c0.6,0.43,0.69,1.25,0.24,1.82C108.3,28.77,105.21,30.45,101.31,30.45"/>
<path class="st1" d="M137.5,18.37c0,6.92-4.92,12.08-11.85,12.08c-6.92,0-11.71-5.16-11.84-12.08c-0.12-6.82,4.81-11.94,11.84-12.08
	C132.57,6.17,137.5,11.4,137.5,18.37 M118.36,18.37c0,4.65,2.93,7.94,7.29,7.94c4.37,0,7.29-3.3,7.29-7.94
	c0-4.65-2.93-7.94-7.29-7.94C121.29,10.43,118.36,13.72,118.36,18.37"/>
<path class="st1" d="M176.9,15.07v13.5c0,0.88-0.72,1.6-1.6,1.6h-1.36c-0.88,0-1.6-0.72-1.6-1.6V15.95c0-3.53-1.81-5.57-4.65-5.57
	c-3.11,0-5.81,2.46-5.81,7.48v10.71c0,0.88-0.71,1.6-1.6,1.6h-1.36c-0.88,0-1.6-0.72-1.6-1.6V15.95c0-3.53-1.76-5.57-4.64-5.57
	c-3.07,0-5.76,2.46-5.76,7.48v10.71c0,0.88-0.72,1.6-1.6,1.6h-1.36c-0.88,0-1.6-0.72-1.6-1.6V8.45c0-0.88,0.72-1.6,1.6-1.6h1.27
	c0.88,0,1.6,0.72,1.6,1.6v2.26c1.44-2.74,3.62-4.41,7.11-4.41c3.67,0,6.27,1.76,7.34,4.97c1.35-3.02,3.9-4.97,7.62-4.97
	C173.74,6.29,176.9,9.45,176.9,15.07"/>
<path class="st1" d="M99.92,66.78c-3.39,0-6.88-1.26-9.35-3.63c-0.63-0.6-0.65-1.6-0.06-2.23l0.67-0.73
	c0.6-0.65,1.62-0.68,2.27-0.07c1.88,1.79,4.56,2.62,6.79,2.62c2.42,0,4.27-0.88,4.27-2.79c0-1.95-1.95-2.51-4.92-3.11
	c-3.9-0.79-8.87-1.76-8.87-7.06c0-4.78,4.09-7.15,8.59-7.15c2.54,0,5.11,0.71,7.13,2.18c0.76,0.55,0.9,1.59,0.31,2.31l-0.47,0.58
	c-0.5,0.61-1.45,0.76-2.12,0.32c-1.48-0.99-3.38-1.45-4.98-1.45c-2.13,0-3.95,0.93-3.95,2.93c0,2.23,2.23,2.74,5.48,3.34
	c3.86,0.79,8.36,1.63,8.36,6.55C109.07,64.18,104.75,66.78,99.92,66.78"/>
<path class="st1" d="M123.94,66.78c-7.57,0-11.57-5.53-11.57-11.94c0-6.55,4.41-12.22,11.75-12.22c3.34,0,6.05,1.09,8.15,3.26
	c0.65,0.67,0.58,1.72-0.13,2.32l-0.79,0.66c-0.62,0.52-1.6,0.49-2.16-0.09c-1.31-1.36-2.95-2.02-5.03-2.02
	c-4.83,0-7.24,3.57-7.24,7.8c0,4.27,2.65,8.08,7.39,8.08c2.25,0,4.32-0.97,5.75-2.64c0.52-0.6,1.49-0.69,2.13-0.23l0.52,0.38
	c0.75,0.55,0.89,1.59,0.3,2.3C130.74,65.21,127.72,66.78,123.94,66.78"/>
<path class="st1" d="M158.64,51.41v13.5c0,0.88-0.72,1.6-1.6,1.6h-1.36c-0.88,0-1.6-0.72-1.6-1.6V52.29c0-3.53-2.23-5.57-5.2-5.57
	c-3.16,0-6.55,2.46-6.55,7.48v10.71c0,0.88-0.71,1.6-1.6,1.6h-1.36c-0.88,0-1.6-0.72-1.6-1.6V36.8c0-0.88,0.72-1.6,1.6-1.6h1.36
	c0.88,0,1.6,0.72,1.6,1.6v10.1c1.49-2.65,4.41-4.27,7.8-4.27C154.97,42.63,158.64,45.79,158.64,51.41"/>
<path class="st1" d="M187.05,54.7c0,6.92-4.92,12.08-11.85,12.08c-6.92,0-11.84-5.15-11.84-12.08c0-6.97,4.92-12.08,11.84-12.08
	C182.13,42.63,187.05,47.74,187.05,54.7 M167.91,54.7c0,4.65,2.93,7.94,7.29,7.94c4.37,0,7.29-3.3,7.29-7.94
	c0-4.65-2.93-7.94-7.29-7.94C170.84,46.76,167.91,50.06,167.91,54.7"/>
<path class="st1" d="M214.3,54.7c0,6.92-4.92,12.08-11.85,12.08c-6.92,0-11.84-5.15-11.84-12.08c0-6.97,4.92-12.08,11.84-12.08
	C209.38,42.63,214.3,47.74,214.3,54.7 M195.17,54.7c0,4.65,2.93,7.94,7.29,7.94c4.37,0,7.29-3.3,7.29-7.94
	c0-4.65-2.93-7.94-7.29-7.94C198.09,46.76,195.17,50.06,195.17,54.7"/>
<path class="st1" d="M230.21,63.54c-0.26-0.8-1.11-1.3-1.92-1.07c-0.46,0.13-0.93,0.18-1.37,0.18c-1.81,0-3.25-1.3-3.25-3.71V35.86
	c0-0.36-0.29-0.65-0.66-0.65h-3.9h-2.96c-0.88,0-1.6,0.72-1.6,1.6v1.36c0,0.88,0.72,1.6,1.6,1.6h2.96v19.68
	c0,4.74,3.06,7.34,6.83,7.34c1.15,0,2.36-0.25,3.55-0.74c0.77-0.32,1.15-1.18,0.89-1.97L230.21,63.54z"/>
</svg>
