<?xml version="1.0" encoding="utf-8"?>
<!-- Generator: Adobe Illustrator 24.1.0, SVG Export Plug-In . SVG Version: 6.00 Build 0)  -->
<svg version="1.1" id="Layer_1" xmlns="http://www.w3.org/2000/svg" xmlns:xlink="http://www.w3.org/1999/xlink" x="0px" y="0px"
	 viewBox="0 0 315.38 100" style="enable-background:new 0 0 315.38 100;" xml:space="preserve">
<style type="text/css">
	.st0{fill:#FED401;}
	.st1{fill:#010101;}
</style>
<path class="st0" d="M50,62.65L50,62.65c-6.99,0-12.66-5.66-12.66-12.66c0-6.99,5.67-12.65,12.66-12.65
	c6.99,0,12.66,5.66,12.66,12.65C62.66,56.99,56.99,62.65,50,62.65"/>
<path class="st0" d="M62.31,100H37.68c-1.21,0-2.19-0.98-2.19-2.19V85.5c0-8.01,6.5-14.51,14.51-14.51s14.5,6.5,14.5,14.51v12.31
	C64.5,99.02,63.52,100,62.31,100"/>
<path class="st0" d="M0,62.31V37.68c0-1.21,0.98-2.19,2.19-2.19H14.5C22.51,35.5,29,41.99,29,50S22.51,64.5,14.5,64.5H2.19
	C0.98,64.5,0,63.52,0,62.31"/>
<path class="st0" d="M37.68,0h24.63c1.21,0,2.19,0.98,2.19,2.19V14.5C64.5,22.51,58.01,29,50,29s-14.5-6.49-14.5-14.5V2.19
	C35.5,0.98,36.48,0,37.68,0"/>
<path class="st0" d="M100,37.69v24.63c0,1.21-0.98,2.19-2.19,2.19H85.5C77.49,64.5,71,58.01,71,50s6.49-14.5,14.5-14.5h12.31
	C99.02,35.5,100,36.48,100,37.69"/>
<path class="st0" d="M2.47,70.99L2.47,70.99c-1.21,0-2.19,0.98-2.19,2.19v24.63c0,1.21,0.98,2.19,2.19,2.19H27.1
	c1.21,0,2.19-0.98,2.19-2.19C29.29,83,17.28,70.99,2.47,70.99"/>
<path class="st0" d="M29.01,2.47L29.01,2.47c0-1.21-0.98-2.19-2.19-2.19H2.19C0.98,0.28,0,1.26,0,2.47V27.1
	c0,1.21,0.98,2.19,2.18,2.19C17,29.29,29.01,17.28,29.01,2.47"/>
<path class="st0" d="M97.53,29L97.53,29c1.21,0,2.19-0.98,2.19-2.19V2.19c0-1.21-0.98-2.18-2.18-2.18H72.9
	c-1.21,0-2.19,0.98-2.19,2.18C70.71,17,82.72,29,97.53,29"/>
<path class="st0" d="M70.99,97.53L70.99,97.53c0,1.21,0.98,2.19,2.19,2.19h24.63c1.21,0,2.18-0.98,2.18-2.19V72.9
	c0-1.21-0.98-2.19-2.18-2.19C83,70.71,70.99,82.72,70.99,97.53"/>
<path class="st1" d="M138.63,41.67c-10.36,0-15.83-7.56-15.83-16.34c0-8.96,6.04-16.72,16.08-16.72c4.75,0,8.56,1.62,11.49,4.81
	c0.68,0.75,0.63,1.87-0.14,2.52l-1.77,1.49c-0.71,0.6-1.79,0.51-2.41-0.18c-1.82-2.01-4.13-2.98-7.1-2.98
	c-6.61,0-9.92,4.89-9.92,10.68c0,5.84,3.63,11.06,10.11,11.06c3.19,0,6.1-1.43,8.08-3.85c0.58-0.71,1.64-0.86,2.38-0.32l1.44,1.05
	c0.81,0.59,0.95,1.71,0.32,2.5C148.2,39.38,143.98,41.67,138.63,41.67"/>
<path class="st1" d="M188.16,25.14c0,9.47-6.74,16.53-16.21,16.53c-9.47,0-16.03-7.06-16.21-16.53
	c-0.17-9.33,6.58-16.35,16.21-16.53C181.42,8.44,188.16,15.61,188.16,25.14 M161.97,25.14c0,6.36,4,10.87,9.98,10.87
	c5.98,0,9.98-4.51,9.98-10.87c0-6.36-4-10.87-9.98-10.87C165.97,14.27,161.97,18.78,161.97,25.14"/>
<path class="st1" d="M242.08,20.62V39.1c0,1.21-0.98,2.18-2.18,2.18h-1.86c-1.21,0-2.18-0.98-2.18-2.18V21.83
	c0-4.83-2.48-7.63-6.36-7.63c-4.26,0-7.94,3.37-7.94,10.23V39.1c0,1.21-0.98,2.18-2.18,2.18h-1.86c-1.21,0-2.19-0.98-2.19-2.18
	V21.83c0-4.83-2.41-7.63-6.35-7.63c-4.2,0-7.88,3.37-7.88,10.23V39.1c0,1.21-0.98,2.18-2.18,2.18h-1.86c-1.21,0-2.18-0.98-2.18-2.18
	V11.56c0-1.21,0.98-2.18,2.18-2.18h1.73c1.21,0,2.18,0.98,2.18,2.18v3.09c1.97-3.75,4.96-6.04,9.73-6.04c5.02,0,8.58,2.41,10.04,6.8
	c1.84-4.13,5.34-6.8,10.42-6.8C237.76,8.61,242.08,12.93,242.08,20.62"/>
<path class="st1" d="M136.73,91.39c-4.64,0-9.41-1.72-12.8-4.96c-0.86-0.82-0.88-2.18-0.08-3.06l0.92-1c0.82-0.89,2.22-0.94,3.1-0.1
	c2.58,2.45,6.24,3.58,9.3,3.58c3.31,0,5.85-1.21,5.85-3.81c0-2.67-2.67-3.43-6.74-4.26c-5.34-1.08-12.14-2.41-12.14-9.66
	c0-6.55,5.6-9.79,11.76-9.79c3.47,0,6.99,0.97,9.75,2.98c1.03,0.76,1.23,2.17,0.42,3.16l-0.65,0.8c-0.69,0.84-1.99,1.04-2.89,0.44
	c-2.03-1.35-4.62-1.98-6.82-1.98c-2.92,0-5.4,1.27-5.4,4c0,3.05,3.05,3.75,7.5,4.58c5.28,1.08,11.44,2.22,11.44,8.96
	C149.25,87.83,143.34,91.39,136.73,91.39"/>
<path class="st1" d="M169.6,91.39c-10.36,0-15.83-7.56-15.83-16.34c0-8.96,6.04-16.72,16.08-16.72c4.57,0,8.28,1.5,11.16,4.46
	c0.89,0.91,0.79,2.36-0.18,3.18l-1.07,0.91c-0.84,0.71-2.19,0.67-2.95-0.13c-1.79-1.86-4.03-2.76-6.89-2.76
	c-6.61,0-9.91,4.89-9.91,10.68c0,5.84,3.62,11.06,10.11,11.06c3.09,0,5.91-1.33,7.88-3.61c0.71-0.82,2.04-0.95,2.92-0.31l0.72,0.52
	c1.02,0.75,1.21,2.17,0.4,3.15C178.91,89.24,174.78,91.39,169.6,91.39"/>
<path class="st1" d="M217.09,70.35v18.47c0,1.21-0.98,2.18-2.18,2.18h-1.86c-1.21,0-2.18-0.98-2.18-2.18V71.55
	c0-4.83-3.05-7.63-7.12-7.63c-4.32,0-8.96,3.37-8.96,10.23v14.66c0,1.21-0.98,2.18-2.18,2.18h-1.86c-1.21,0-2.19-0.98-2.19-2.18
	V50.36c0-1.21,0.98-2.18,2.19-2.18h1.86c1.21,0,2.18,0.98,2.18,2.18v13.82c2.03-3.62,6.04-5.85,10.68-5.85
	C212.06,58.33,217.09,62.66,217.09,70.35"/>
<path class="st1" d="M255.97,74.86c0,9.47-6.74,16.53-16.21,16.53c-9.47,0-16.21-7.05-16.21-16.53c0-9.53,6.74-16.53,16.21-16.53
	C249.23,58.33,255.97,65.33,255.97,74.86 M229.78,74.86c0,6.36,4,10.87,9.98,10.87c5.98,0,9.98-4.51,9.98-10.87
	c0-6.36-4-10.87-9.98-10.87C233.79,63.99,229.78,68.5,229.78,74.86"/>
<path class="st1" d="M293.26,74.86c0,9.47-6.74,16.53-16.21,16.53c-9.47,0-16.21-7.05-16.21-16.53c0-9.53,6.74-16.53,16.21-16.53
	C286.52,58.33,293.26,65.33,293.26,74.86 M267.07,74.86c0,6.36,4,10.87,9.98,10.87c5.98,0,9.98-4.51,9.98-10.87
	c0-6.36-4-10.87-9.98-10.87C271.08,63.99,267.07,68.5,267.07,74.86"/>
<path class="st1" d="M315.03,86.94c-0.36-1.1-1.51-1.78-2.63-1.47c-0.63,0.17-1.27,0.25-1.87,0.25c-2.48,0-4.45-1.78-4.45-5.08
	V49.07c0-0.49-0.4-0.89-0.9-0.89h-5.33h-4.04c-1.21,0-2.19,0.98-2.19,2.18v1.86c0,1.21,0.98,2.18,2.19,2.18h4.04v26.94
	c0,6.49,4.19,10.04,9.34,10.04c1.58,0,3.22-0.34,4.86-1.02c1.05-0.43,1.58-1.62,1.22-2.7L315.03,86.94z"/>
</svg>
