<?xml version="1.0" encoding="utf-8"?>
<!-- Generator: Adobe Illustrator 15.0.0, SVG Export Plug-In . SVG Version: 6.00 Build 0)  -->
<!DOCTYPE svg PUBLIC "-//W3C//DTD SVG 1.1//EN" "http://www.w3.org/Graphics/SVG/1.1/DTD/svg11.dtd">
<svg version="1.1" xmlns="http://www.w3.org/2000/svg" xmlns:xlink="http://www.w3.org/1999/xlink" x="0px" y="0px" width="100px"
	 height="100px" viewBox="0 0 100 100" enable-background="new 0 0 100 100" xml:space="preserve">
<g id="Layer_2">
</g>
<g id="Layer_1">
	<g>
		<rect fill="#141724" width="100" height="100"/>
		<path fill="#68BE6B" d="M3.5,4.225h28.67v28.23H3.5V4.225z"/>
		<path fill="#E32F29" d="M35.66,4.225h28.67v28.23H35.66V4.225z"/>
		<path fill="#FEDD00" d="M67.83,4.225H96.5v28.23H67.83V4.225z"/>
		<path fill="#40BAEB" d="M3.5,35.885h28.67v28.221H3.5V35.885z"/>
		<path fill="#FEDD00" d="M35.66,35.885h28.67v28.221H35.66V35.885z"/>
		<path fill="#68BE6B" d="M67.83,35.885H96.5v28.221H67.83V35.885z"/>
		<path fill="#E32F29" d="M3.5,67.555h28.67v28.23H3.5V67.555z"/>
		<path fill="#40BAEB" d="M35.66,67.555h28.67v28.23H35.66V67.555z"/>
		<path fill="#FEDD00" d="M67.83,67.555H96.5v28.23H67.83V67.555z"/>
	</g>
</g>
</svg>
