<svg version="1.1" id="Layer_1" xmlns="http://www.w3.org/2000/svg" xmlns:xlink="http://www.w3.org/1999/xlink" x="0px" y="0px" width="100px" height="100px" viewBox="0 0 100 100" enable-background="new 0 0 100 100" xml:space="preserve"><path fill="#141724" d="M0 0h100v98.43H0z"/><path fill="#68BE6B" d="M3.5 3.44h28.67v28.23H3.5z"/><path fill="#E32F29" d="M35.66 3.44h28.67v28.23H35.66z"/><path fill="#FEDD00" d="M67.83 3.44H96.5v28.23H67.83z"/><path fill="#40BAEB" d="M3.5 35.1h28.67v28.22H3.5z"/><path fill="#FEDD00" d="M35.66 35.1h28.67v28.22H35.66z"/><path fill="#68BE6B" d="M67.83 35.1H96.5v28.22H67.83z"/><path fill="#E32F29" d="M3.5 66.77h28.67V95H3.5z"/><path fill="#40BAEB" d="M35.66 66.77h28.67V95H35.66z"/><path fill="#FEDD00" d="M67.83 66.77H96.5V95H67.83z"/><path fill="#1C1D1A" d="M18.14 8.22c1.21.09 1.81.49 1.81 1.2v.08c0 .82-1.24 1.51-3.72 2.06a17.28 17.28 0 0 0-4.49 3.09c-1.31 1.42-1.97 2.8-1.97 4.14v.34c0 1.87 1.33 3.11 4 3.73.71.14 1.45.2 2.22.2 2.82 0 5.21-.9 7.18-2.7.4-.26 1.3-1.09 2.72-2.5 1.3-1.12 2.41-1.68 3.35-1.68l.08.12v.05c0 1-.56 2.03-1.68 3.1 0 .13-.67.88-2.02 2.24a14.37 14.37 0 0 1-10.05 4.07c-3.75 0-6.29-1.22-7.6-3.65a6.17 6.17 0 0 1-1.02-3.36v-.28c0-2.73 2.04-5.52 6.13-8.36 2.1-1.26 3.69-1.89 4.78-1.89h.29zM16.4 40.55c2.07 0 3.44.45 4.12 1.34.07.15.1.29.1.39 0 .29-.35.5-1.07.61-.12.05-.4.08-.82.08l-3.16-.08c-.95 0-2.02.51-3.2 1.54-.28.28-.56.67-.86 1.15.41.59 1.02 1.01 1.84 1.26 1.33.44 3.49 1.1 6.45 2 3.67 1.11 5.5 2.42 5.5 3.95v.27c0 1.97-2.55 3.58-7.67 4.84-1.42.3-2.68.45-3.77.45-2.47 0-4.02-.52-4.65-1.57a2.32 2.32 0 0 1-.24-1.01c0-1.04.58-1.9 1.75-2.59.43-.21.84-.31 1.22-.31.08.2.13.42.13.68l-.25 1.93c1 .28 1.97.42 2.94.42 2.47 0 4.71-.62 6.71-1.86.35-.26.65-.54.9-.84a5.73 5.73 0 0 0-2.05-1.53c-1-.49-3.38-1.2-7.1-2.18-3.14-1.01-4.71-2.21-4.71-3.61v-.26c0-1.41 1.21-2.79 3.63-4.1a8.09 8.09 0 0 1 3.81-.97h.44zM16.93 71.83c2.47 0 4.38 2.8 5.73 8.4.18 1.04.28 2 .28 2.91v.16c0 2.17-.5 3.97-1.47 5.4-1.16 1.33-2.46 2-3.88 2h-.42c-1.66 0-3.15-.96-4.45-2.89A12.7 12.7 0 0 1 11 81.23v-.58c0-3.06.59-5.56 1.75-7.5.6-.59 1.22-.94 1.85-1.04.93-.19 1.65-.28 2.17-.28h.16zm-2.04 3.61h-.14c-.17.04-.36.59-.55 1.65a13 13 0 0 0-.5 3.56v.08c0 3.62.93 5.95 2.79 6.99.43.16.8.25 1.1.25h.15c1 0 1.84-.74 2.5-2.22.14-.52.2-1.23.2-2.14v-.47c0-2.28-.52-4.55-1.56-6.8-.89-1.35-1.62-2.02-2.19-2.02h-.12c-.4 0-.73.4-1 1.22l-.68-.1zM49.02 71.83c2.48 0 4.4 2.8 5.73 8.4.2 1.04.28 2 .28 2.91v.16c0 2.17-.48 3.97-1.46 5.4-1.17 1.33-2.46 2-3.88 2h-.42c-1.66 0-3.15-.96-4.46-2.89a12.7 12.7 0 0 1-1.7-6.58v-.58c0-3.06.58-5.56 1.75-7.5.6-.59 1.2-.94 1.84-1.04.92-.19 1.65-.28 2.17-.28h.15zM47 75.44h-.13c-.18.04-.37.59-.56 1.65-.34 1.18-.5 2.36-.5 3.56v.08c0 3.62.92 5.95 2.78 6.99.44.16.8.25 1.1.25h.16c1 0 1.83-.74 2.5-2.22.13-.52.2-1.23.2-2.14v-.47c0-2.28-.52-4.55-1.56-6.8-.89-1.35-1.62-2.02-2.19-2.02h-.12c-.4 0-.73.4-1 1.22l-.68-.1zM74.92 72.86c.63 0 1.05.18 1.26.53.1.21.16.37.16.49v.16l-.32 2.3-.08 1.85c0 1.73.32 5.1.97 10.06 1.15-.26 2.47-.74 3.98-1.47 3.43-.98 6.1-1.47 8.01-1.47.75 0 1.37.1 1.84.28L90.71 87c0 .06-.54.15-1.6.27-1.92.43-3.33.74-4.26.92-1.53.35-3.1.84-4.74 1.46-1.35.52-2.55.9-3.6 1.15-1.33-.1-2-.27-2-.5a78.33 78.33 0 0 1-1.07-12.9v-2.13l.04-1.55c.15-.08.3-.28.43-.61.26-.17.49-.26.67-.26h.34zM50.24 40.21c1.2.09 1.81.49 1.81 1.2v.08c0 .82-1.24 1.5-3.73 2.06a17.04 17.04 0 0 0-4.48 3.08c-1.32 1.43-1.98 2.8-1.98 4.15v.33c0 1.88 1.34 3.12 4 3.73.71.14 1.46.21 2.23.21 2.82 0 5.2-.9 7.18-2.7.4-.26 1.3-1.1 2.71-2.5 1.3-1.12 2.42-1.68 3.35-1.68l.08.11v.06c0 1-.55 2.03-1.68 3.09 0 .14-.67.89-2 2.25a14.38 14.38 0 0 1-10.06 4.07c-3.75 0-6.3-1.22-7.6-3.65a6.12 6.12 0 0 1-1.02-3.36v-.28c0-2.74 2.04-5.52 6.12-8.36 2.1-1.26 3.7-1.89 4.79-1.89h.28zM85.18 36.13c.77 0 1.2.27 1.31.8.07.1.1.35.13.77l.15 2.82c0 2.42 0 5.24-.02 8.44.08.68.18 1.02.28 1.02 2.73.33 4.19.88 4.39 1.65 0 .64-.4.97-1.22.97h-.23c-2-.08-2.98-.16-2.98-.26v-.04l-.08.06c.06 0 .1.32.1.95v.36c.08.6.26 2.99.52 7.17l.04.44c-.32.35-.81.53-1.48.53-.73 0-1.09-.16-1.09-.46-.2-1.31-.41-3.7-.62-7.14a5.45 5.45 0 0 0-.24-1.61l-.8-.05-4 .16c.13 1.9.19 3.12.19 3.65v.32c0 1.19-.21 1.78-.64 1.78l-1.17-.07-.47.07c-.27 0-.41-.61-.41-1.85l.01-.94c-.06-1.83-.16-2.79-.3-2.86l-.25.06-.4.03c-.95 0-1.56-.2-1.84-.6a.7.7 0 0 1-.13-.4c.02-.88.18-1.33.47-1.33h1.4c.43-.02.64-.08.64-.16-.02-3.42-.11-7.06-.3-10.93v-.09c.15-1.8.46-2.7.94-2.7l.46-.04c.81.01 1.21.15 1.21.4.18.19.26.44.26.77l-.06 1.7c0 2 .02 5.27.08 9.78l.12 1.03h.24c2.05 0 3.64-.12 4.75-.35-.11-6.15-.21-10.09-.32-11.8v-.31c0-.97.33-1.55 1-1.74h.36zM49 7.6c2.46 0 4.38 2.8 5.72 8.4a16 16 0 0 1 .28 2.91v.16c0 2.17-.49 3.97-1.46 5.4-1.17 1.33-2.46 2-3.88 2h-.42c-1.67 0-3.15-.96-4.46-2.89a12.74 12.74 0 0 1-1.7-6.57v-.59c0-3.06.57-5.55 1.74-7.49.6-.6 1.21-.95 1.85-1.06.92-.18 1.65-.27 2.17-.27h.15zm-2.04 3.61h-.14c-.18.04-.36.6-.56 1.65a12.9 12.9 0 0 0-.5 3.56v.08c0 3.62.93 5.95 2.8 6.99.42.16.79.25 1.1.25h.15c1 0 1.83-.74 2.5-2.22.13-.52.2-1.23.2-2.14v-.47c0-2.28-.52-4.54-1.56-6.8-.89-1.34-1.62-2.02-2.2-2.02h-.12c-.4 0-.73.4-.99 1.22l-.68-.1zM85.3 6.7c.48.51.93 1.49 1.36 2.93.41 1.68 1.23 4.14 2.46 7.4 1.52 4.7 2.99 8 4.4 9.86.17.24.26.47.28.68v.13c-.16.65-.5.98-1.02.98l-.35.03c-1.09 0-2.08-1.15-2.96-3.46-.85-1.76-2.23-5.28-4.12-10.55l-.57-1.4h-.04a90.7 90.7 0 0 0-1.39 7.72c-.8 3.41-1.2 5.66-1.2 6.72-.29.07-.44.25-.44.52 0 .1-.42.22-1.27.38h-.4c-.3 0-.49-.16-.59-.5-.23-.52-.45-1.64-.65-3.37l-1.14-6.36c-.43-1.72-.9-3.09-1.43-4.1l-.17-.29h-.03c-.46 1.19-.98 3.6-1.56 7.24-.3 1.62-.6 2.6-.94 2.94-.3.27-.64.41-1.05.41h-.27c-.5 0-.75-.15-.75-.45a5.4 5.4 0 0 1-.18-1.33l.08-2.29c0-.26-.12-.96-.37-2.1v-.27c0-.7.43-1.06 1.26-1.06l.14.04c.29-.6.77-2.2 1.42-4.78.61-1.86 1.42-2.79 2.42-2.79 1.22 0 2.27 1.64 3.15 4.91.32 1 .75 2.8 1.27 5.42h.04a24.3 24.3 0 0 0 1.25-4.92c.6-4.12 1.18-6.86 1.72-8.2l.98-.09h.66z"/></svg>
