<svg xmlns="http://www.w3.org/2000/svg" x="0px" y="0px" width="180px" height="20px" viewBox="60 103 180 20" enable-background="new 60 103 180 20" xml:space="preserve"><path fill="#707070" d="M174.025 119.051c-.598.262-1.562.5-2.758.5-2.691 0-4.318-1.688-4.318-4.404 0-2.008.808-3.916 2.278-5.133 1.085-.933 2.45-1.435 4.007-1.435 1.188 0 2.025.299 2.311.521l-.43 1.059c-.395-.239-1.152-.446-2.1-.446-1.107 0-2.226.43-3.048 1.204-.995.93-1.628 2.43-1.628 4.04 0 1.91.871 3.477 3.24 3.477.804 0 1.691-.158 2.277-.457l.169 1.074zm10.586-6.117c0 1.849-.661 3.884-1.93 5.148-.945.936-2.18 1.484-3.648 1.484-2.746 0-4.043-2.064-4.043-4.326 0-1.885.745-3.944 2.039-5.227.9-.885 2.227-1.437 3.569-1.437 2.855.003 4.013 2.089 4.013 4.358zm-6.621-2.178c-1.025 1.025-1.625 2.889-1.625 4.373 0 1.736.775 3.334 2.861 3.334.899 0 1.768-.391 2.428-1.057.998-1.012 1.58-2.922 1.58-4.41 0-1.512-.487-3.313-2.81-3.313-.946 0-1.785.41-2.434 1.073zm15.889 8.639l.762-5.75c.141-1.008.377-2.57.584-3.6h-.062c-.492 1.076-1.076 2.337-1.661 3.429l-3.156 5.859h-1.013l-.791-5.732a52.703 52.703 0 0 1-.332-3.555h-.029c-.236.981-.572 2.592-.825 3.6l-1.448 5.75h-1.232l2.76-10.645h1.676l.84 6.109c.108.902.236 1.865.25 2.654h.049c.33-.789.791-1.738 1.248-2.621l3.302-6.143h1.704l-1.359 10.645h-1.267zm12.006 0l.759-5.75c.14-1.008.38-2.57.584-3.6h-.063c-.486 1.076-1.07 2.337-1.658 3.429l-3.159 5.859h-1.013l-.789-5.732a52.643 52.643 0 0 1-.33-3.555h-.033c-.236.981-.57 2.592-.82 3.6l-1.451 5.75h-1.234l2.764-10.645h1.678l.834 6.109c.111.902.236 1.865.251 2.654h.048c.334-.789.791-1.738 1.249-2.621l3.301-6.143h1.704l-1.357 10.645h-1.265zm9.207-5.008h-3.867l-.728 3.887h4.359l-.222 1.121h-5.672l2.021-10.644h5.438l-.221 1.124h-4.107l-.648 3.409h3.869l-.222 1.103zm2.985-5.48c.647-.14 1.534-.236 2.325-.236 1.055 0 1.972.253 2.541.774.489.427.785 1.044.785 1.772 0 1.541-1.181 2.697-2.523 3.074l-.015.033c.742.254 1.104 1.041 1.184 2.146.111 1.484.188 2.492.33 2.924h-1.357c-.06-.219-.173-1.342-.251-2.574-.077-1.455-.617-2.07-1.675-2.07h-1.17l-.868 4.645h-1.311l2.005-10.488zm.376 4.833h1.172c1.662 0 2.732-1.089 2.732-2.367 0-1.136-.852-1.642-2.053-1.642-.52 0-.867.046-1.104.111l-.747 3.898zm13.002 5.311c-.599.262-1.562.5-2.764.5-2.686 0-4.311-1.688-4.311-4.404 0-2.008.803-3.916 2.271-5.133 1.093-.933 2.45-1.435 4.015-1.435 1.184 0 2.023.299 2.305.521l-.426 1.059c-.391-.239-1.152-.446-2.098-.446-1.107 0-2.229.43-3.053 1.204-.994.93-1.623 2.43-1.623 4.04 0 1.91.867 3.477 3.238 3.477.805 0 1.688-.158 2.276-.457l.17 1.074zm7.219-4.664h-3.867l-.729 3.887h4.359l-.223 1.121h-5.67l2.022-10.644H240l-.223 1.124h-4.104l-.65 3.409h3.872l-.221 1.103zM159.14 108.547h-3.446c-3.129 0-4.174 1.962-4.421 2.57-.897 2.544 1.206 3.75 1.206 3.75s1.131.598 1.854 1.014c.714.414.704 1.434.143 1.922-1.867 1.375-2.588-.629-2.718-.975-.126-.344-.497-.137-.497-.137s-.492.227-.938.516c-.495.318-.198.695-.198.695s1.605 2.193 4.183 1.604c.866-.201 4.396-1.01 3.662-4.422-.384-1.738-2.703-2.385-3.14-2.602-.631-.28-.891-.796-.781-1.346.15-.765.65-1.093 1.572-1.093h3.298l.221-1.496zm-14.549-4.94h-4.307c-4.749 0-5.579 4.046-5.579 4.046l-1.75 11.044s-.013.039-.017.107l-.088.508h.564l.034.006h3.328c.709 0 .806-.619.806-.619l.874-5.387h3.16c.466 0 .523-.454.523-.454l.281-1.784h-3.613l.528-3.349s.232-2.021 1.509-2.021h2.825c.597 0 .634-.526.634-.526l.208-1.124s.006-.02.006-.053l.074-.394z"/><path fill="#707070" d="M167.506 108.55h-.482l-.024-.003h-9.249c-.404 0-.453.408-.453.408l-.112.762s-.064.328.404.328h2.336c.531 0 .42.458.42.458l-1.297 8.2s-.003.023-.01.049l-.092.555h.51l.011.004h2.634c.578 0 .654-.549.654-.549l1.303-8.261s.033-.456.656-.456h2.011c.519 0 .622-.492.622-.492l.09-.566s.006-.041.006-.089l.062-.348zm-17.623 10.091c-.01-.07-1.528-8.449-1.55-8.533-.046-.169-.442-1.746-1.902-1.746-1.247 0-1.66.466-2.023.975-.131.186-.432.737-.432.737l-4.182 8.614-.019.035c-.004.004-.004.004-.006.01l-.275.531h1.377c.657 0 .827-.561.827-.561l.475-1.021s.147-.344.512-.344h2.79c.427 0 .449.295.449.295l.157 1.084s.064.574.585.574h2.625c.563 0 .605-.521.592-.65zm-4.657-2.909l-2.129.006s1.571-3.28 1.633-3.417c.059-.166.388-.557.5.027.108.588.376 2.777.376 2.777s.103.607-.38.607z"/><g fill="#707070"><path d="M61.25 115.605v3.707H60v-9.242h3.536c.986 0 1.752.254 2.298.762s.819 1.176.819 2.006c0 .842-.273 1.514-.819 2.016-.546.501-1.312.752-2.298.752H61.25zm0-.984h2.285c.626 0 1.094-.168 1.403-.504.309-.335.463-.759.463-1.27s-.156-.938-.466-1.28c-.312-.342-.778-.513-1.4-.513H61.25v3.567zM67.719 115.814c0-1.016.275-1.852.825-2.51s1.297-.987 2.241-.987c.952 0 1.704.328 2.257.984.552.656.828 1.494.828 2.513v.141c0 1.023-.275 1.861-.825 2.514-.55.651-1.299.977-2.247.977s-1.698-.326-2.25-.98c-.553-.653-.829-1.49-.829-2.51v-.142zm1.25.137c0 .728.153 1.327.46 1.801.307.474.763.71 1.368.71.597 0 1.049-.236 1.358-.71s.463-1.073.463-1.801v-.14c0-.718-.156-1.316-.466-1.794-.312-.478-.767-.716-1.368-.716-.597 0-1.048.239-1.355.716-.307.478-.46 1.076-.46 1.794v.14zM77.158 116.812l.146.831h.038l.178-.831 1.371-4.367h1.003l1.377 4.367.197.927h.038l.184-.927 1.079-4.367h1.244l-1.993 6.868h-1.009l-1.327-4.184-.286-1.168-.038.007-.273 1.161-1.308 4.184H76.77l-1.993-6.868h1.244l1.137 4.367zM88.088 119.445c-.957 0-1.717-.318-2.282-.955-.564-.637-.847-1.463-.847-2.479v-.279c0-.978.291-1.791.873-2.44.582-.65 1.271-.975 2.066-.975.927 0 1.627.279 2.101.838s.711 1.304.711 2.234v.78h-4.456l-.019.032c.013.658.18 1.199.501 1.624.322.424.772.636 1.352.636.423 0 .794-.061 1.114-.181.319-.121.595-.287.828-.498l.489.812c-.246.243-.569.445-.971.607s-.888.244-1.46.244zm-.19-6.144c-.419 0-.776.176-1.073.529-.296.352-.478.793-.546 1.324l.013.032h3.167v-.165c0-.488-.131-.898-.394-1.227-.261-.328-.651-.493-1.167-.493zM95.363 113.549l-.641-.038c-.33 0-.608.078-.835.235a1.497 1.497 0 0 0-.523.66v4.906h-1.25v-6.868h1.117l.121 1.003c.195-.355.435-.633.721-.832a1.68 1.68 0 0 1 .987-.298 1.824 1.824 0 0 1 .476.069l-.173 1.163zM99.298 119.445c-.957 0-1.717-.318-2.282-.955-.564-.637-.847-1.463-.847-2.479v-.279c0-.978.291-1.791.873-2.44.582-.65 1.271-.975 2.066-.975.927 0 1.627.279 2.101.838s.711 1.304.711 2.234v.78h-4.456l-.019.032c.013.658.18 1.199.501 1.624.322.424.772.636 1.352.636.423 0 .794-.061 1.114-.181.319-.121.595-.287.828-.498l.489.812c-.246.243-.569.445-.971.607s-.888.244-1.46.244zm-.19-6.144c-.419 0-.776.176-1.073.529-.296.352-.478.793-.546 1.324l.013.032h3.167v-.165c0-.488-.131-.898-.394-1.227-.261-.328-.651-.493-1.167-.493zM103.037 116.006c0-1.105.236-1.996.708-2.673s1.133-1.016 1.983-1.016c.402 0 .759.074 1.069.222.312.148.577.364.797.647v-3.777h1.25v9.902h-1.022l-.146-.844c-.224.321-.5.564-.825.729s-.705.247-1.136.247c-.838 0-1.494-.303-1.968-.91s-.711-1.406-.711-2.396v-.131zm1.251.133c0 .694.142 1.249.425 1.666s.724.625 1.32.625c.373 0 .686-.084.939-.254.254-.169.461-.406.622-.711v-3.205a1.93 1.93 0 0 0-.625-.676c-.256-.167-.564-.251-.924-.251-.601 0-1.044.247-1.33.743-.285.494-.428 1.138-.428 1.93v.133zM119.808 116.139c0 .99-.238 1.789-.714 2.396s-1.131.91-1.964.91c-.453 0-.846-.087-1.181-.263s-.611-.435-.832-.778l-.152.908h-1.022v-9.902h1.25v3.847c.216-.305.483-.538.803-.698.32-.161.693-.241 1.121-.241.846 0 1.506.338 1.98 1.016.474.677.711 1.567.711 2.673v.132zm-1.251-.133c0-.787-.145-1.43-.435-1.927-.29-.497-.731-.746-1.324-.746-.385 0-.71.094-.974.282a1.987 1.987 0 0 0-.632.759v2.978c.161.338.371.603.632.793.26.19.589.285.987.285.588 0 1.026-.209 1.314-.628s.432-.974.432-1.663v-.133zM123.362 116.768l.222.863h.038l1.688-5.187h1.39l-2.888 7.922a3.554 3.554 0 0 1-.746 1.206c-.324.343-.761.514-1.311.514a3.974 3.974 0 0 1-.749-.101l.127-.983c-.025-.004.05 0 .225.013.176.013.287.02.333.02.267 0 .484-.119.654-.355.169-.237.311-.5.425-.787l.298-.718-2.552-6.729h1.396l1.45 4.322z"/></g></svg>
