<svg version="1.1" id="Layer_1" xmlns="http://www.w3.org/2000/svg" xmlns:xlink="http://www.w3.org/1999/xlink" x="0px" y="0px" width="300px" height="226px" viewBox="-117 -93 300 226" enable-background="new -117 -93 300 226" xml:space="preserve"><path fill="#538FCC" d="M129.42-92.939s-2.258 5.481-8.828 5.481H93.803c-22.961 0-27.088 19.477-27.088 19.477l-9.59 50.373h14.758c21.236 0 20.551 15.216 20.551 15.216l-.607 8.369s-.834-8.369-15.223-8.369c-11.186 0-17.809 3.654-17.809 3.654s-4.561 2.665-6.084 8.523c-.693 3.191-7.92 41.537-7.92 41.537s-2.213 8.888 5.748 12.372C56.268 66.206 66.711 67 66.711 67h-48.09C-5.507 67-7.634 48.593-6.641 43.562c.608-3.881 2.73-12.242 3.265-14.446C2.867 5.223 54.379-1.931 54.379-1.931S1.514 3.287-1.934 3.546c-40.854 4.359-44.281-21.762-44.281-21.762H4.617l12.331-45.961S26.026-93 54.903-93c6.279 0 74.517.061 74.517.061z"/><defs><path id="a" d="M129.42-92.939s-2.258 5.481-8.828 5.481H93.803c-22.961 0-27.088 19.477-27.088 19.477l-9.59 50.373h14.758c21.236 0 20.551 15.216 20.551 15.216l-.607 8.369s-.834-8.369-15.223-8.369c-11.186 0-17.809 3.654-17.809 3.654s-4.561 2.665-6.084 8.523c-.693 3.191-7.92 41.537-7.92 41.537s-2.213 8.888 5.748 12.372C56.268 66.206 66.711 67 66.711 67h-48.09C-5.507 67-7.634 48.593-6.641 43.562c.608-3.881 2.73-12.242 3.265-14.446C2.867 5.223 54.379-1.931 54.379-1.931S1.514 3.287-1.934 3.546c-40.854 4.359-44.281-21.762-44.281-21.762H4.617l12.331-45.961S26.026-93 54.903-93c6.279 0 74.517.061 74.517.061z"/></defs><clipPath id="b"><use overflow="visible" xlink:href="#a"/></clipPath><g clip-path="url(#b)"><path fill="#6695CE" d="M194.797-28.877l-16.543 16.332 3.086-14.299 13.457-2.033"/><path fill="#3E6EB6" d="M58.398-51.243l-7.746 2.114-.166-9.714 7.912 7.6"/><path fill="#487ABD" d="M50.486-58.863L35.847-37.887l14.805-11.242-.144-9.697"/><path fill="#4171B8" d="M50.475-58.843l-14.441 7.337-.162 13.586 14.636-20.943"/><path fill="#4578BC" d="M36.029-51.304L20.824-34.941l15.06-2.998.166-13.324"/><path fill="#4572B8" d="M20.853-34.922l-4.772-14.644 16.268-13.251z"/><path fill="#3F6CB4" d="M15.955-49.457l3.687-8.413 12.853-5.056z"/><path fill="#4874B9" d="M19.642-57.87l-3.565 8.252-11.165-.616z"/><path fill="#3D67B1" d="M19.642-57.87l-15.062.085.332 7.551z"/><path fill="#406AB3" d="M21.237-70.299L4.58-57.785l15.082-.081 1.575-12.433"/><path fill="#446CB4" d="M4.58-57.785L1.732-72.024l19.521 1.721z"/><path fill="#3E67B1" d="M1.732-72.024l-14.579 14.231 17.427.008-2.848-14.239"/><path fill="#5B8FCB" d="M194.611-28.801l-16.357 16.256 16.558-.595-.201-15.661"/><path fill="#6595CE" d="M181.34-26.844l-18.408 11.532 15.322 2.767 3.086-14.299"/><path fill="#4B78BC" d="M67.902-50.745l-10.613 7.6 1.109-8.098 9.504.498"/><path fill="#4676BB" d="M57.289-43.145l-6.637-5.984 7.746-2.114z"/><path fill="#4F7FC1" d="M57.289-43.36L46.48-37.166l4.172-11.963z"/><path fill="#4173B9" d="M50.652-49.129L35.933-37.955l10.547.789z"/><path fill="#4B7DC0" d="M57.289-43.36l-3.201 17.314-7.608-11.12z"/><path fill="#5181C2" d="M67.902-50.745l-10.609 7.438 16.049 5.25-5.44-12.688"/><path fill="#5484C4" d="M57.289-43.36l8.709 11.387 7.344-6.084z"/><path fill="#5385C5" d="M65.871-31.973l-6.658 13.377-1.92-24.678z"/><path fill="#4578BC" d="M59.367-18.814l-5.279-7.232 3.224-17.411z"/><path fill="#477BBE" d="M54.088-26.046l-10.018.583 2.41-11.703z"/><path fill="#4678BC" d="M46.48-37.166l-12.906 8.604 10.496 3.099z"/><path fill="#477BBE" d="M35.863-37.923l-2.289 9.361 12.906-8.604-10.56-.789"/><path fill="#4B7DC0" d="M35.884-37.972L20.347-27.144l13.227-1.418z"/><path fill="#386DB5" d="M35.903-37.955l-15.099 3.014-.457 7.826z"/><path fill="#3664AF" d="M20.84-34.962l-4.763-14.656L5.034-36.012l15.806 1.05"/><path fill="#3F6DB5" d="M16.077-49.618L5.034-36.012l-.122-14.222z"/><path fill="#375FAC" d="M4.58-57.785l-18.12 6.663 18.452.888z"/><path fill="#6A9DD4" d="M194.812-13.14L181.166-.497 197.604.524z"/><path fill="#6396CF" d="M194.812-13.14l-16.421.421 2.775 12.222z"/><path fill="#6195CF" d="M178.391-12.719L163.119-5.31l18.047 4.813z"/><path fill="#6A9AD1" d="M162.932-15.312l.187 10.002 15.551-7.36-15.738-2.642"/><path fill="#6697D0" d="M162.932-15.312L151.68-3.632l11.439-1.678-.187-10.002"/><path fill="#6C9BD2" d="M148.49-16.647l3.19 13.015 11.252-11.68-14.442-1.335"/><path fill="#6298D1" d="M163.119-5.31L152.65 9.412l-.97-13.044z"/><path fill="#5D97D1" d="M151.68-3.632l-13.701 6.984 14.671 6.06z"/><path fill="#6DA1D6" d="M141.127-8.826l-3.006 11.951 13.842-6.757z"/><path fill="#6B99D1" d="M148.49-16.647l-7.363 7.821-1.063-10.467 8.426 2.646"/><path fill="#6D9CD2" d="M130.986-13.828l10.141 5.002-1.063-10.467z"/><path fill="#6799D1" d="M130.986-13.828L117.104.103l-2.739-13.279z"/><path fill="#699CD3" d="M114.365-13.176L100.99-.861 117.193.387z"/><path fill="#5C94CE" d="M114.365-13.176l-16.244.457L100.99-.861z"/><path fill="#578ECA" d="M114.26-28.469l-16.139 15.75 16.244-.457-.105-15.293"/><path fill="#6292CC" d="M100.859-27.188l-2.738 14.469 16.33-15.806-13.592 1.337"/><path fill="#558AC8" d="M100.811-27.152l-19.346.932.488 11.549 18.858-12.481"/><path fill="#5A8ECA" d="M100.859-27.188L82.012-14.703l16.109 1.984 2.738-14.469"/><path fill="#5D8AC7" d="M101.213-34.909L85.686-36.21l-3.229 8.937 18.756-7.636"/><path fill="#5E8ECA" d="M101.213-34.909l-18.736 7.611 18.548.094.188-7.705"/><path fill="#5D8ECA" d="M85.686-36.21L68.975-23.595l13.502-3.703 3.209-8.912"/><path fill="#4982C3" d="M82.477-27.298L71.795-15.991l-2.82-7.604z"/><path fill="#5689C7" d="M81.484-26.204l-9.666 10.196 10.194 1.305z"/><path fill="#5084C4" d="M68.967-23.583l-2.969-8.39 19.688-4.237z"/><path fill="#5585C4" d="M73.176-38.102l-7.178 6.129 19.688-4.237-12.51-1.892"/><path fill="#4A7FC1" d="M65.998-31.973l-6.664 13.377 9.613-4.97z"/><path fill="#467CBF" d="M68.975-23.595L57.146-17.62l14.69 1.641z"/><path fill="#4E85C5" d="M59.305-18.912l-8.826 5.318 3.609-12.452z"/><path fill="#447DC0" d="M54.088-26.046L34.093-13.16l16.386-.434z"/><path fill="#4A82C3" d="M54.088-26.046l-10.018.583-9.936 12.303z"/><path fill="#417DC0" d="M44.07-25.463l-9.876 12.287-.62-15.386z"/><path fill="#3E77BC" d="M33.574-28.562L17.421-12.873l16.785-.303z"/><path fill="#477DC0" d="M33.574-28.562l-13.227 1.418-2.926 14.271z"/><path fill="#4478BC" d="M20.84-34.962l-.493 7.818-18.526.029 19.019-7.847"/><path fill="#4474BA" d="M20.84-34.962l-15.806-1.05-3.213 8.897 19.019-7.847"/><path fill="#5A97D1" d="M193.01 11.048l-10.856-.469L197.604.524z"/><path fill="#619BD3" d="M197.604.524L181.166-.497l.988 11.076z"/><path fill="#67A0D6" d="M180.914-.586l-18.799 9.844 20.039 1.321z"/><path fill="#699FD5" d="M162.973-5.188l-.68 14.276 18.873-9.585z"/><path fill="#699DD4" d="M162.803-5.155L152.65 9.412l9.862-.154z"/><path fill="#689FD5" d="M162.293 9.088l-10.84 13.117 1.197-12.793z"/><path fill="#6CA6DA" d="M162.512 9.258l-11.315 13.117 15.09.389z"/><path fill="#6DA3D7" d="M162.512 9.258l3.605 13.466 16.166-12.129z"/><path fill="#6AA5D9" d="M182.154 10.579l-1.158 11.796-14.709.389z"/><path fill="#6BA5D9" d="M193.01 11.048l-10.727-.453-1.369 11.52z"/><path fill="#6FA8DB" d="M193.01 11.048l.722 6.514-12.818 4.553z"/><path fill="#6AA8DB" d="M196.787 29.262l-14.973 16.463 11.918-28.163z"/><path fill="#71ACDD" d="M193.732 17.725l-16.691 13.302 4.736 14.535 11.955-28"/><path fill="#6AA8DB" d="M193.865 17.473l-13.121 4.853-3.873 8.653z"/><path fill="#75B0E0" d="M180.914 22.115l-3.873 8.912-11.225-.518z"/><path fill="#71AEDF" d="M165.816 30.509l-.425 14.186 11.566-13.457z"/><path fill="#62A8DC" d="M176.957 31.238l-11.566 13.457 16.423 1.03z"/><path fill="#67AEE0" d="M181.814 45.725l-.169 7.704 14.796-10.54z"/><path fill="#73B3E2" d="M196.441 42.889l.346-13.627-14.973 16.463z"/><path fill="#78B9E6" d="M181.814 45.725l-16.423-1.03 16.254 8.734z"/><path fill="#79BAE1" d="M165.258 44.817l-2.108 8.474 18.495.138z"/><path fill="#6CAEDF" d="M165.688 30.59L153.34 42.2l12.051 2.495z"/><path fill="#71AFDF" d="M165.514 30.412l-17.549-.939 5.461 12.557z"/><path fill="#68A5D9" d="M165.943 23.022l-17.724 6.451 17.469 1.117z"/><path fill="#69A7DB" d="M166.117 22.724l-.429 7.866 15.226-8.475z"/><path fill="#6BA6DA" d="M166.076 22.861l-14.879-.486-3.232 7.098 18.152-6.749"/><path fill="#74AEDE" d="M151.197 22.375l-12.437 7.316 9.205-.218z"/><path fill="#5E9ED6" d="M151.273 22.205l-9.248-3.484-3.265 10.97z"/><path fill="#6BA5D9" d="M152.65 9.412l-10.625 9.309 9.172 3.654z"/><path fill="#6EA5D9" d="M152.65 9.412l-15.351 4.019 4.726 5.29z"/><path fill="#75ABDC" d="M142.025 18.721l-11.115 2.698 6.389-7.988z"/><path fill="#68A4D9" d="M142.025 18.721l-11.115 2.698 7.85 8.272z"/><path fill="#649FD6" d="M137.299 13.431l-6.6-7.713.211 15.701z"/><path fill="#6AA0D6" d="M130.82 5.774l21.83 3.638-15.351 4.019z"/><path fill="#6AA0D6" d="M152.65 9.412l-14.671-6.06-6.854 2.673z"/><path fill="#5D95CF" d="M141.127-8.826l-3.051 12.064-7.199 2.901z"/><path fill="#679AD1" d="M130.91 5.993l-4.283-7.6 14.5-7.219z"/><path fill="#6E9FD4" d="M131.156-13.687l-4.529 12.08 14.5-7.219-9.971-4.861"/><path fill="#6C9AD1" d="M148.316-16.685l-7.189 7.859 10.836 5.194-3.647-13.053"/><path fill="#5991CD" d="M131.186-13.812L126.66-1.72 117.08.265l14.106-14.077"/><path fill="#5C94CE" d="M88.85-13.147L82.785-1.931l-.773-12.772z"/><path fill="#5691CD" d="M82.012-14.703L71.77-4.523l11.05 2.552z"/><path fill="#5A91CC" d="M82.027-14.712L71.75-16.008l.02 11.485z"/><path fill="#548ECB" d="M71.75-16.008L61.193-9.077l-4.047-8.56z"/><path fill="#558ECB" d="M57.146-17.62l-6.667 4.026 10.714 4.509z"/><path fill="#518FCC" d="M50.479-13.594L45.82-2.109l15.41-6.996z"/><path fill="#4A85C5" d="M50.486-13.602L36.005.694l9.815-2.803z"/><path fill="#4988C7" d="M36.293.468l-2.171-13.644 16.357-.418z"/><path fill="#4A8AC9" d="M34.146-13.16L20.391-.845 36.293.468z"/><path fill="#4080C2" d="M34.194-13.181l-16.773.308 2.97 12.028z"/><path fill="#3F77BC" d="M20.347-27.144L.626-15.182l16.795 2.309z"/><path fill="#376EB6" d="M20.347-27.144l-18.526.029L.626-15.17z"/><path fill="#3969B3" d="M4.912-50.234L-7.905-38.39l12.939 2.378z"/><path fill="#3969B3" d="M5.236-36.153l-16.528 3.094-.113 9.127z"/><path fill="#4278BC" d="M5.034-36.012l-16.609 12.255 13.396-3.358z"/><path fill="#3C6DB5" d="M2.02-27.144l-13.595 3.387-1.961 7.693z"/><path fill="#3F74BA" d="M1.821-27.115L.646-14.975l-14.182-1.089z"/><path fill="#4272B8" d="M5.034-36.012l-12.656-2.555-3.67 5.508z"/><path fill="#548FCB" d="M71.75-16.008L61.221-9.129 71.77-4.523z"/><path fill="#5593CE" d="M61.213-9.138l-3.67 12.012 14.238-7.437z"/><path fill="#4C8CCA" d="M61.213-9.182L57.568 2.865 49.15 5.296z"/><path fill="#5494CF" d="M49.109 5.345L36.005.694l9.759-2.973z"/><path fill="#5194CF" d="M36.005.694l-4.126 10.274 17.23-5.623z"/><path fill="#4887C7" d="M57.449 2.882L71.77 9.558 71.754-4.54z"/><path fill="#518ECB" d="M71.77 9.558L82.809-1.963 71.77-4.523z"/><path fill="#4380C2" d="M82.809-1.979l-.684 10.856 13.303-6.87 4.334-8.086z"/><path fill="#5798D2" d="M82.186 8.731l-11.25 13.693.75-12.98z"/><path fill="#579BD4" d="M71.77 9.558l-10.188 9.123 9.354 3.743z"/><path fill="#61A0D7" d="M82.068 8.885l3.78 13.733-14.912-.194z"/><path fill="#67A1D6" d="M82.186 8.731l19.902 1.377-16.322 12.347z"/><path fill="#377BBF" d="M100.99-.861L82.186 8.731l19.902 1.377z"/><path fill="#5E99D2" d="M100.811-.861l1.259 11.003L117.02.387z"/><path fill="#7BBBE1" d="M196.559 42.929l-14.914 10.5 12.986-1.425z"/><path fill="#7ABCE3" d="M181.559 53.502L179.631 66.4l14.971-14.373z"/><path fill="#69A2D7" d="M130.91 21.419l-17.828-4.294 17.795-10.986z"/><path fill="#5E9BD3" d="M113.309 17.004l-.344-6.061 18.16-4.918z"/><path fill="#6CA2D7" d="M112.676 11.057L117.104.103l14.021 5.922z"/><path fill="#6E9FD5" d="M126.66-1.72L116.885.046l14.24 5.979z"/><path fill="#5E9AD2" d="M112.789 11L117.104.103 102.07 10.142z"/><path fill="#6EA6DA" d="M102.07 10.142l11.239 6.862-.344-6.061z"/><path fill="#6AA5D9" d="M102.07 10.142l-.988 11.707 12.227-4.845z"/><path fill="#69A3D8" d="M102.07 10.142L85.848 22.618l15.234-.769z"/><path fill="#5697D1" d="M57.576 2.833l-8.459 2.479 22.426 4.116z"/><path fill="#68A4D9" d="M131.043 21.37l-14.676 7.6-3.058-11.966z"/><path fill="#6DA9DC" d="M116.367 28.97l-15 16.138 11.942-28.104z"/><path fill="#65A5DA" d="M130.91 21.419l-14.599 21.098.056-13.547z"/><path fill="#72B1E1" d="M131.043 21.37l.074 10.151-14.806 10.996z"/><path fill="#76B4E2" d="M116.367 28.97l-.056 13.547-14.944 2.591z"/><path fill="#5FA0D7" d="M101.082 21.849L85.693 29.95l.073-7.495zM85.693 22.537l-16.82 6.862 2.063-6.975z"/><path fill="#4F95D0" d="M70.936 22.424l-12.186 6.87 2.832-10.613z"/><path fill="#529BD4" d="M61.582 18.681l-11.039 3.013 8.207 7.6z"/><path fill="#5397D1" d="M71.668 9.477l-14.85 4.367-7.701-8.548z"/><path fill="#4D96D1" d="M56.875 13.819l-6.551 7.972-1.191-16.462z"/><path fill="#5F9FD6" d="M50.543 21.694l6.303-7.882 4.879 4.869z"/><path fill="#5B9BD4" d="M56.846 13.812l4.879 4.869L71.77 9.558z"/><path fill="#66A6DA" d="M70.936 22.424l-12.198 6.659 10.414.292z"/><path fill="#5A9FD6" d="M85.693 22.537l-16.541 6.838 16.541.575z"/><path fill="#71ACDD" d="M101.082 21.849l-15.574 8.118 11.265.647z"/><path fill="#68A6DA" d="M113.309 17.004l-16.536 13.61 4.143-8.75z"/><path fill="#72AEDE" d="M96.773 30.614l4.594 14.494 11.942-28.104z"/><path fill="#71AFDF" d="M147.965 29.473l-9.703 7.875.498-7.657z"/><path fill="#6CAADD" d="M138.76 29.691l-7.643 1.83 7.145 5.827z"/><path fill="#64A5DA" d="M138.76 29.691l-7.643 1.83-.074-10.151z"/><path fill="#7CB5E2" d="M131.117 31.521l-4.279 11.335 11.424-5.508z"/><path fill="#79B2E1" d="M153.426 42.03l-15.164-4.682 9.703-7.875z"/><path fill="#7DB8E3" d="M138.092 37.477l9.078 11.067 6.17-6.344z"/><path fill="#7CBBE3" d="M138.445 37.477l1.106 24.386 7.801-13.319z"/><path fill="#73B5E0" d="M139.551 61.863l-5.035-7.72 3.746-16.795z"/><path fill="#6BADDF" d="M131.117 31.521l-4.279 11.335-10.527-.339z"/><path fill="#7CBBE3" d="M116.529 42.37l-15.127 10.979 12.657-1.014z"/><path fill="#7BB7E3" d="M116.311 42.517l-2.44 9.818 12.967-9.479z"/><path fill="#6EB3DF" d="M126.838 42.856l-2.377 12.081-10.402-2.602z"/><path fill="#79B8E3" d="M126.838 42.856l7.726 11.117 3.881-16.674z"/><path fill="#76B7E3" d="M134.43 53.745l-9.969 1.192 2.377-12.081z"/><path fill="#60A6DB" d="M96.635 30.606L85.746 44.267l15.621.841z"/><path fill="#6AABDD" d="M85.693 29.95l.008 14.494 10.934-13.838z"/><path fill="#64AADD" d="M85.701 29.812L72.824 42.021l12.922 2.246z"/><path fill="#67A9DC" d="M69.295 29.537l3.529 12.484L85.693 29.95z"/><path fill="#4D9CD5" d="M58.754 29.059l-8.027 2.204-.184-9.569z"/><path fill="#5CA6DB" d="M50.324 21.598l-14.501 21 14.904-11.335z"/><path fill="#4A99D4" d="M50.324 21.598l-14.667 7.234.166 13.766z"/><path fill="#4A98D2" d="M50.324 21.598l-17.501-3.785 2.85 11.036z"/><path fill="#5297D2" d="M49.15 5.296L32.827 17.813 50.43 21.71z"/><path fill="#4990CD" d="M49.117 5.329l-17.238 5.639.944 6.845z"/><path fill="#4087C7" d="M36.293.468l-4.442 10.686-11.112-.972z"/><path fill="#3B83C5" d="M36.293.468L20.391-.845l.348 11.027z"/><path fill="#4389C8" d="M20.391-.845L1.509 8.285l19.23 1.897z"/><path fill="#4586C6" d="M20.391-.845L3.158-5.625 1.335 8.602z"/><path fill="#3F86C7" d="M3.187-5.601L-8.634 9.566l9.969-.964z"/><path fill="#4F8DCB" d="M45.764-2.279l3.345 7.624 12.077-14.45z"/><path fill="#437EC1" d="M17.681-13.034L3.187-5.601.61-15.182z"/><path fill="#3D7BBF" d="M17.681-13.034L3.19-5.601S20.265-.748 20.391-.845c.121-.114-2.71-12.189-2.71-12.189z"/><path fill="#3D79BD" d="M.618-15.182l-9.75 11.243L3.187-5.601z"/><path fill="#3B79BD" d="M3.203-5.642l-11.837 15.2-.498-13.497S3.523-5.642 3.203-5.642z"/><path fill="#7AB9E3" d="M153.34 42.2l-5.988 6.344 18.039-3.849z"/><path fill="#76B7E3" d="M165.258 44.817l-15.596 11.367-2.31-7.64z"/><path fill="#7FBCE2" d="M165.225 44.663l-15.563 11.521 13.488-2.893z"/><path fill="#76B8E2" d="M147.352 48.544l-7.786 13.108 10.096-5.468z"/><path fill="#7EBEE3" d="M139.408 61.442l-8.158 5.348 3.18-13.045z"/><path fill="#77B9E1" d="M134.43 53.745l-19.967 13.563 16.787-.673z"/><path fill="#6EB5E1" d="M181.785 53.34l-18.281 12.04-.354-12.089z"/><path fill="#74BAE2" d="M149.662 56.184l-1.402 7.835 14.89-10.728z"/><path fill="#71B5E1" d="M149.662 56.184l-1.402 7.835-8.694-2.367z"/><path fill="#79BBE3" d="M148.006 64.019l15.291 1.531-.147-12.259z"/><path fill="#76BBE2" d="M181.785 53.34l-1.992 13.239-16.496-1.029z"/><path fill="#3983C5" d="M-9.132 9.348l10.467-.746L-9.132 21.58z"/><path fill="#438ECC" d="M1.335 8.602l3.646 13.545-15.24.147z"/><path fill="#4691CE" d="M1.335 8.602l19.404 1.58L4.981 22.147z"/><path fill="#4993CF" d="M20.739 10.182l-.992 11.836-14.766.129z"/><path fill="#4994D0" d="M20.739 10.182l11.14.786-12.132 11.05z"/><path fill="#569CD5" d="M31.879 10.968l.944 6.845-13.076 4.205z"/><path fill="#4093D0" d="M4.981 22.147l.336 7.965 14.43-8.094z"/><path fill="#3A8ECC" d="M4.981 22.147l.478 7.714h-16.71z"/><path fill="#3C8ECD" d="M-10.259 22.294l-.992 7.567 16.232-7.714z"/><path fill="#56A0D8" d="M19.747 22.018l-14.43 8.094 10.715.559z"/><path fill="#4599D4" d="M5.459 29.861l-14.62 12.575-2.09-12.575z"/><path fill="#439AD5" d="M-9.161 42.436L5.366 44.25l.093-14.389z"/><path fill="#499CD6" d="M5.459 29.861c-.048.389-.093 14.389-.093 14.389l10.666-13.571-10.573-.818z"/><path fill="#3B98D3" d="M16.032 30.671L5.317 44.088l15.661 1.58z"/><path fill="#4C97D2" d="M19.747 22.018l-3.905 8.71 16.981-12.915z"/><path fill="#50A1D9" d="M32.823 17.813L20.978 45.668l-5.136-14.94z"/><path fill="#509DD6" d="M20.934 45.433l14.754-16.642-2.865-10.978z"/><path fill="#54A0D8" d="M58.98 28.962l-1.384 8.888-6.869-6.587z"/><path fill="#5EA7DC" d="M69.283 29.366L57.596 37.85l1.384-8.888z"/><path fill="#66ACDF" d="M50.617 31.238l-4.068 12.154 11.047-5.542z"/><path fill="#55A5DB" d="M50.727 31.263l-3.93 12.144-10.974-.809z"/><path fill="#58A5DB" d="M35.673 28.775L20.934 45.433l14.889-2.835z"/><path fill="#4BA2D9" d="M5.317 44.088L-9.7 55.674l.539-13.238z"/><path fill="#55ABDB" d="M5.321 44.088L1.89 53.486-9.7 55.674z"/><path fill="#58A8DD" d="M5.317 44.088l-3.431 9.398 19.048-8.053z"/><path fill="#5AABDF" d="M20.934 45.433v7.972l-19.048.081z"/><path fill="#46A3DB" d="M1.886 53.486L1.538 65.76l19.396-12.355z"/><path fill="#49A1D9" d="M35.823 42.598L20.934 53.405v-7.972z"/><path fill="#61B0E0" d="M35.823 42.598l-1.689 9.518-13.2 1.289z"/><path fill="#5FACDF" d="M46.549 43.392l-12.72 8.879 1.994-9.673z"/><path fill="#64AFE0" d="M46.99 43.245l7.559 10.549 3.047-15.944z"/><path fill="#62ADDF" d="M46.963 43.213L44.021 55.09l10.698-1.151z"/><path fill="#50A8DE" d="M46.914 43.132L44.021 55.09l-10.034-3.078z"/><path fill="#69AADD" d="M69.295 29.537L57.596 37.85l15.228 4.171z"/><path fill="#6EB2E2" d="M57.596 37.85l9.342 10.564 6.291-6.433z"/><path fill="#6BB3E3" d="M57.596 37.85l1.58 23.365 7.762-12.801z"/><path fill="#5EAEE1" d="M59.176 60.996l-4.627-7.202 3.047-15.944z"/><path fill="#70B4E3" d="M73.229 41.981l12.662 2.439-18.678 3.492z"/><path fill="#6BB3E3" d="M67.213 47.912l2.248 8.677 16.285-12.322z"/><path fill="#65B1E2" d="M69.461 56.589l-10.285 4.407 8.037-13.084z"/><path fill="#76B6E4" d="M85.766 44.322l-2.946 8.865-13.359 3.402 16.285-12.322"/><path fill="#7AB9E3" d="M101.066 53.373l-18.42-.186 18.721-8.079z"/><path fill="#74B6E3" d="M101.367 45.108L85.92 44.25l-3.274 8.937z"/><path fill="#68AEE0" d="M101.139 53.535l.228-8.427 15.162-2.738z"/><path fill="#51ABDB" d="M1.886 53.486l-15.778 11.002 15.43 1.102z"/><path fill="#47A8DE" d="M1.89 53.486L-9.7 55.674l-4.192 8.814z"/><path fill="#6AB4E2" d="M101.066 53.373L82.008 65.404l.638-12.217z"/><path fill="#71B8E1" d="M82.355 53.275L68.1 63.938l13.908 1.466z"/><path fill="#6BB3E0" d="M82.82 53.187l-13.359 3.402-.535 7.105z"/><path fill="#60B0E2" d="M69.461 56.589l-.535 7.105-9.75-2.698z"/><path fill="#7ABAE6" d="M101.066 53.373l12.993-1.038-15.735 14.778z"/><path fill="#74BAE2" d="M114.059 52.335l.408 14.608-16.317.527z"/><path fill="#5CAFDE" d="M33.987 52.012L17.79 67.105l3.144-13.7z"/><path fill="#57ADDE" d="M20.934 53.405L1.538 65.76l16.252 1.345z"/><path fill="#5AAEDE" d="M33.987 52.012L17.79 67.105l16.227-.065z"/><path fill="#60AFDE" d="M33.968 52.004l10.053 3.086-10.004 11.95z"/><path fill="#64B4E1" d="M54.719 53.939L44.021 55.09 34.017 67.04z"/><path fill="#5FAFDF" d="M54.719 53.939l-3.414 12.526-17.288.575z"/><path fill="#6EB6DE" d="M54.549 53.794l4.683 7-7.927 5.671z"/><path fill="#60B8E4" d="M71.75 49.63l-.795 19.849-22.83-.397z"/><path fill="#57A9DB" d="M50.617 67.064l.688-.599-16.373.552z"/><path fill="#7ABBE2" d="M82.008 65.404l16.519 1.636 2.735-13.83z"/><path fill="#7AB9E1" d="M114.059 52.335l.404 14.973 9.998-12.371z"/><path fill="#7DBCE2" d="M124.461 54.937l-9.844 12.298 19.813-13.49z"/><path fill="#6FBBE3" d="M194.781 51.882l-15.054 14.583 15.148.341z"/><path fill="#3969B3" d="M-10.988-38.009l-11.97 8.118.684-6.607 11.286-1.511"/><path fill="#3F6DB5" d="M-13.54-51.122l-8.734 14.624-11.492.969 20.226-15.593"/><path fill="#4278BC" d="M-13.54-51.122l-8.734 14.624 14.652-2.069-5.918-12.555"/><path fill="#4272B8" d="M-22.869-30.012l11.577-3.047.333-5.063z"/><path fill="#4278BC" d="M-11.292-33.059l-14.81 15.277 3.233-12.23 11.577-3.047"/><path fill="#3B79BD" d="M-11.292-33.059l-14.846 15.245 14.733-6.118.113-9.127"/><path fill="#6591CC" d="M165.951-36.363l-16.248 12.026-2.844-8.086 19.092-3.94"/><path fill="#5F8FCB" d="M140.064-19.293l9.639-5.044-2.57-8.543-7.069 13.587"/><path fill="#6897D0" d="M140.064-19.293l-8.908 5.237 3.307-12.484 5.601 7.247"/><path fill="#5F92CD" d="M114.908-13.225l16.248-.462 3.307-12.853z"/><path fill="#6897CF" d="M114.908-13.225l9.362-12.306 10.193-1.009z"/><path fill="#6291CC" d="M124.27-25.531l-10.01-2.938.648 15.244z"/><path fill="#658FCA" d="M127.029-37.194l-2.759 11.663 10.193-1.009-7.434-10.654"/><path fill="#5785C4" d="M127.029-37.194l-12.769 8.725 10.01 2.938 2.759-11.663"/><path fill="#6D90CA" d="M177.156-49.679l3.211-8.353-14.23 7.984"/><path fill="none" d="M166.137-50.048l11.019.369"/><path fill="#6B96CE" d="M196.738-37.932l-1.98 9.216-13.418 1.872 15.398-11.088"/><path fill="#6892CC" d="M181.559-34.986l-15.608-1.377-2.431 8.769 18.039-7.392"/><path fill="#6B96CE" d="M181.559-34.986l-.219 8.142-17.82-.75 18.039-7.392"/><path fill="#5B8AC7" d="M163.52-27.594l-.588 12.282 18.17-11.305-17.582-.977"/><path fill="#6594CE" d="M163.52-27.594l-15.204 10.909 14.616 1.373.588-12.282"/><path fill="#608DC9" d="M163.52-27.594l-13.823 3.366-1.133 7.292 14.956-10.658"/><path fill="#568BC9" d="M149.697-24.228l-9.633 4.935 8.252 2.608 1.381-7.543"/><path fill="#708BC6" d="M195.039-93.814l-13.937 12.432 16.603 1.151z"/><path fill="#6786C3" d="M195.094-93.766l-17.424.101 3.432 12.101z"/><path fill="#6F89C5" d="M149.588-96.942l-18.123 2.46 9.916 5.172 8.207-7.632"/><path fill="#5D82C1" d="M102.133-70.246l10.779 7.652v-7.222z"/><path fill="#6284C3" d="M102.334-70.189l-1.969 11.691 12.547-4.096-10.578-7.595"/><path fill="#5980C1" d="M102.334-70.189L85.576-57.785l14.906-1.029 1.852-11.375"/><path fill="#5179BD" d="M85.73-57.988l.069 7.697 14.683-8.523z"/><path fill="#577FC0" d="M102.084-70.307l-20.305-1.575 3.951 13.894 16.354-12.319"/><path fill="#587DBE" d="M100.859-81.325s-19.488 9.548-19.076 9.443c.41-.102 20.305 1.576 20.305 1.576l-1.229-11.019"/><path fill="#4F7BBE" d="M85.799-50.291l-12.477 11.99 12.364 2.091.113-14.081"/><path fill="#4776BB" d="M85.576-57.785l-17.674 7.04 17.897.454z"/><path fill="#4E79BD" d="M85.576-57.785l-14.689-.223-2.985 7.263z"/><path fill="#537ABD" d="M81.779-71.882L70.887-58.356l14.931.543z"/><path fill="#4B71B7" d="M81.779-71.882l-9.3 1.429-1.592 12.097z"/><path fill="#4D76BB" d="M72.475-70.477L61.877-62.29l9.01 3.934z"/><path fill="#3B6AB3" d="M70.887-58.356l-12.489 7.113 3.479-11.047z"/><path fill="#517DBF" d="M67.902-50.745l-9.504-.498 12.489-7.113-2.985 7.611"/><path fill="#4F79BD" d="M61.877-62.29l-11.391 3.436 6.416-7.815z"/><path fill="#5179BD" d="M56.902-66.669l15.614-3.849-10.639 8.228z"/><path fill="#4772B8" d="M72.232-70.453l-22.746-4.33 7.416 8.114z"/><path fill="#5077BB" d="M49.486-74.783l8.563-3.301 15.127 7.858z"/><path fill="#416CB4" d="M58.037-78.125l13.291-6.421 1.147 14.033z"/><path fill="#4C71B7" d="M72.479-70.453L82.877-85.68l-11.549 1.118z"/><path fill="#5479BC" d="M82.877-85.68l-1.098 13.798-9.3 1.429z"/><path fill="#5D7EBF" d="M82.883-85.667l17.976 4.342-19.269 9.43 1.287-13.785"/><path fill="#4270B7" d="M49.486-74.783l1 15.929 6.416-7.815z"/><path fill="#4370B7" d="M49.486-74.783L32.349-62.817l18.137 3.963z"/><path fill="#3B68B2" d="M49.486-74.783l-17.173 5.177.182 6.68z"/><path fill="#4069B2" d="M49.498-74.791c-.143-.032-12.703-5.412-12.703-5.412l-4.482 10.597 17.185-5.185z"/><path fill="#4266B0" d="M36.795-80.203l9.029-2.248 3.662 7.668z"/><path fill="#3F66B0" d="M71.305-84.525l-10.25-4.817-3.03 11.258z"/><path fill="#3F6EB6" d="M61.08-89.301L49.457-74.75l8.588-3.318z"/><path fill="#3E6BB4" d="M61.08-89.301l-15.256 6.85 3.662 7.668z"/><path fill="#4164AF" d="M61.08-89.301l-10.529-4.732-4.727 11.582z"/><path fill="#3A5FAC" d="M50.551-94.033l-13.756 13.83 9.029-2.248z"/><path fill="#2F5BA9" d="M36.795-80.203l-3.018-13.441 16.774-.389z"/><path fill="#385EAB" d="M33.777-93.644L20.176-81.272l16.619 1.069z"/><path fill="#4366B0" d="M33.777-93.644l-17.275.223 3.674 12.149z"/><path fill="#3C62AD" d="M20.176-81.272L2.012-85.956l14.49-7.465z"/><path fill="#4468B1" d="M2.012-85.956l-.28 13.932 18.444-9.248z"/><path fill="#4267B1" d="M2.012-85.956l-.166-9.365 14.656 1.9z"/><path fill="#3D5BA9" d="M36.795-80.203l-15.558 9.904-1.061-10.973z"/><path fill="#3A64AF" d="M36.795-80.203l-4.482 10.597-11.076-.693z"/><path fill="#4670B7" d="M32.341-69.598L19.629-57.846l1.608-12.453z"/><path fill="#4063AE" d="M2.012-85.956l-12.866 2.172L1.509-95.321z"/><path fill="#3B61AD" d="M2.012-85.956L-9.076-71.08l-1.778-12.704z"/><path fill="#3D63AE" d="M2.012-85.956L-9.076-71.08l10.808-.944z"/><path fill="#3958A8" d="M21.237-70.299L1.732-72.024l18.444-9.248z"/><path fill="#4974B9" d="M32.495-62.926l-12.833 5.048 12.651-11.728z"/><path fill="#4372B8" d="M61.877-62.29l-11.391 3.436 7.912 7.611z"/><path fill="#3E6EB6" d="M50.486-58.854l-14.481 7.558-3.656-11.521z"/><path fill="#6480C0" d="M177.926-93.498l16.369-16.808.799 16.54-17.168.268"/><path fill="#4170B7" d="M36.065-51.296L20.84-34.962l11.509-27.855z"/><path fill="#6986C3" d="M177.67-93.665l2.58-13.918-17.391 12.059z"/><path fill="#5376BA" d="M97.59-93.709L82.891-85.7l17.968 4.375z"/><path fill="#3061AE" d="M82.035-95.467l.895 9.751 14.47-7.867z"/><path fill="#3763AF" d="M82.039-95.496L71.328-84.562 82.93-85.66z"/><path fill="#3F66B0" d="M82.035-95.467l-13.894-1.738 3.187 12.659z"/><path fill="#3E6BB4" d="M68.141-97.205l-7.061 7.904 10.248 4.776z"/><path fill="#385EAB" d="M61.08-89.301l-2.406-9.82 9.467 1.916z"/><path fill="#3C61AD" d="M58.674-99.121l-8.195 5.056 10.601 4.764z"/><path fill="#4167B1" d="M50.502-94.252l4.453-13.724-21.178 14.332z"/><path fill="#4063AE" d="M33.976-93.839l.137-15.798-17.611 16.216z"/><path fill="#6F8AC6" d="M149.588-96.942l-10.127-3.236-8.117 5.529 18.244-2.293"/><path fill="#5E7CBE" d="M131.344-94.649l-16.776.964 20.834-14.239z"/><path fill="#5876BA" d="M114.568-93.685l.524-17.646-17.449 17.809 16.925-.163"/><path fill="#335FAC" d="M-54.365-22.485l13.554 12.752-6.85 15.758z"/><path fill="#608AC7" d="M166.137-50.048L153.283-38.39l12.668 2.027.186-13.685"/><path fill="#658CC8" d="M153.283-38.39l-5.42-12.209s18.465.737 18.273.551c-.185-.182-12.853 11.658-12.853 11.658z"/><path fill="#6991CB" d="M153.283-38.39l-15.056-4.864 9.636-7.345z"/><path fill="#6E94CD" d="M153.283-38.39l-6.424 5.967-8.632-10.831z"/><path fill="#6993CD" d="M147.32-32.512l-7.256 13.219-1.474-23.686z"/><path fill="#5E8CC9" d="M140.064-19.293l-5.601-7.247 3.576-16.346z"/><path fill="#6892CC" d="M134.463-26.54l-6.977-11.015 10.741-5.699z"/><path fill="#6C93CC" d="M138.227-43.254l-6.977-6.15-4.221 12.21z"/><path fill="#5E85C4" d="M131.25-49.404l7.34-.915-.363 7.065z"/><path fill="#668BC7" d="M147.863-50.599l-9.273.28-.363 7.065z"/><path fill="#5380C1" d="M177.156-49.679l-11.205 13.316 15.608 1.377z"/><path fill="#6489C6" d="M176.883-49.679l-10.746-.369-.186 13.685z"/><path fill="#6A91CB" d="M146.859-32.423l19.092-3.94-12.668-2.027z"/><path fill="#5F86C4" d="M180.279-57.947l-14.689.101 1.01 7.434z"/><path fill="#5C80C1" d="M147.863-50.599l17.727-7.247 1.01 7.434z"/><path fill="#6689C6" d="M165.59-57.846l-3.582-14.235-10.928 14.049z"/><path fill="#6D8BC6" d="M162.008-72.081l3.582 13.862 16.98-12.027z"/><path fill="#6689C6" d="M182.57-70.246l-16.98 12.4 14.689-.101z"/><path fill="#6C8CC8" d="M180.367-58.308l12.672-11.201-10.469-.737z"/><path fill="#6B8EC9" d="M193.039-69.509l.645 6.794-13.405 4.768z"/><path fill="#658BC7" d="M193.684-62.715l-16.528 13.036 3.123-8.268z"/><path fill="#6790CB" d="M193.684-62.715l-16.528 13.036 4.403 14.693z"/><path fill="#648DC9" d="M181.814-35.027l14.805-15.912-2.935-11.776z"/><path fill="#6692CC" d="M196.619-50.939l.119 13.007-15.154 3.14z"/><path fill="#5787C5" d="M196.738-37.932l-15.154 3.14-.244 7.948z"/><path fill="#6D96CE" d="M165.951-36.363s-2.258 8.77-2.432 8.77c-.178 0-13.822 3.366-13.822 3.366l16.254-12.136z"/><path fill="#6B8FCA" d="M138.59-50.319l11.801-7.649-2.528 7.369z"/><path fill="#537BBD" d="M142.268-61.682l-3.666 11.148 11.789-7.434z"/><path fill="#6183C2" d="M142.268-61.682l-10.916 3.253 7.25 7.895z"/><path fill="#5980C1" d="M131.352-58.429l-.178 8.823 7.416-.713z"/><path fill="#658CC8" d="M131.061-58.547l-14.75 20.729 14.939-11.586z"/><path fill="#557FC0" d="M131.061-58.547l-14.807 7.661.057 12.837z"/><path fill="#628DC9" d="M116.254-50.886l-15.041 15.977 14.92-2.966z"/><path fill="#5181C2" d="M116.133-37.875l-15.18 10.654.26-7.688z"/><path fill="#6893CD" d="M100.859-27.188l13.592-1.337 1.682-9.35z"/><path fill="#6390CB" d="M114.451-28.525l12.578-8.669-10.896-.681z"/><path fill="#5D86C5" d="M131.25-49.404l-14.939 11.586 10.718.624z"/><path fill="#5E86C5" d="M101.225-34.901l11.937-27.753 3.119 11.569z"/><path fill="#6088C6" d="M101.225-34.881l-4.772-14.556 16.709-13.217z"/><path fill="#4B79BD" d="M96.453-49.437L85.686-36.21l15.527 1.301z"/><path fill="#5982C2" d="M96.453-49.437l-10.654-.854-.113 14.081z"/><path fill="#6289C6" d="M85.799-50.291l14.566-8.207-3.912 9.061z"/><path fill="#6085C4" d="M100.365-58.498l12.793-4.156S96.392-49.007 96.392-49.189c.001-.187 3.973-9.309 3.973-9.309z"/><path fill="#587ABD" d="M112.912-62.594v-7.222l17.203-5.384z"/><path fill="#6484C2" d="M130.115-75.2c-.797.304-16.957 12.546-16.957 12.546l17.902 4.107-.945-16.653z"/><path fill="#5F81C1" d="M130.115-75.2l7.467 8.446-6.521 8.207z"/><path fill="#6E8EC9" d="M137.582-66.754l4.686 5.072-11.207 3.135z"/><path fill="#6B87C4" d="M130.115-75.2c-.246-.125-12.67-4.954-12.67-4.954l-4.777 10.16 17.447-5.206z"/><path fill="#5277BB" d="M117.445-80.154l-15.361 9.847 10.828.491z"/><path fill="#5779BC" d="M117.445-80.154l-15.847-.799.486 10.646zM117.445-80.154l14.02-14.328-4.281 11.565z"/><path fill="#6784C2" d="M117.445-80.154l-2.877-13.531 16.897-.797z"/><path fill="#6784C2" d="M114.568-93.685l-13.709 12.36 16.586 1.171z"/><path fill="#5F7DBE" d="M114.568-93.685l-16.953.3 3.244 12.06z"/><path fill="#6887C5" d="M130.115-75.2l-2.931-7.717-9.739 2.763z"/><path fill="#6E89C5" d="M127.184-82.917l14.38-6.425-10.099-5.14z"/><path fill="#6785C3" d="M141.195-89.281l-14.011 6.364 2.931 7.717z"/><path fill="#5D7BBD" d="M130.115-75.2l7.901-2.082 3.179-11.999z"/><path fill="#6B8AC6" d="M138.016-77.282l-.434 10.528-7.467-8.446z"/><path fill="#6989C6" d="M138.016-77.282l14.683 6.49-15.117 4.038z"/><path fill="#6B8CC7" d="M137.582-66.754l4.897 4.958 10.22-8.996z"/><path fill="#6788C5" d="M152.699-70.55l-2.308 12.582-8.123-3.714z"/><path fill="#5D7CBE" d="M152.699-70.792l-1.041-13.037-13.642 6.547z"/><path fill="#7089C5" d="M151.658-83.829l-10.463-5.452-3.179 11.999z"/><path fill="#6182C2" d="M152.699-70.792l9.309-1.289-11.617 14.113z"/><path fill="#6483C2" d="M152.699-70.792l10.651-15.427-11.692 2.39z"/><path fill="#6786C3" d="M152.699-70.792l9.309-1.289 1.342-14.138z"/><path fill="#6D8AC6" d="M163.35-86.219l17.752 4.837-19.094 9.301z"/><path fill="#6886C4" d="M181.348-81.325l-19.34 9.244 20.562 1.835z"/><path fill="#6481C0" d="M163.041-86.284l14.697-6.91 3.61 11.869z"/><path fill="#6E8AC6" d="M163.35-86.219l-.491-9.244 15.067 1.965z"/><path fill="#6886C4" d="M162.859-95.463l-11.201 11.634 11.692-2.39zM162.859-95.524l-13.091-1.531 1.89 13.226z"/><path fill="#6E87C4" d="M149.768-97.055l-8.573 7.774 10.463 5.452z"/><path fill="#6482C1" d="M197.391-80.28L182.57-70.246l-1.468-11.136z"/><path fill="#5D7EBF" d="M197.391-80.28l-4.416 10.524-10.405-.49z"/><path fill="#6186C4" d="M150.391-57.968l-2.528 7.369 17.727-7.247z"/><path fill="#5B81C1" d="M113.162-62.654l3.092 11.768 14.996-7.718z"/><path fill="#517EC0" d="M67.902-50.745l17.897.454-12.623 12.189z"/><path fill="#3F6DB5" d="M-13.54-51.122l5.918 12.555L4.912-50.234z"/><path fill="#3D67B1" d="M-12.847-57.793l-.693 6.671 18.12-6.663z"/><path fill="#3F6DB5" d="M-9.076-71.08l-3.771 13.287L1.732-72.024z"/><path fill="#3969B3" d="M-11.292-33.059l.304-4.95 3.366-.558z"/><path fill="#3B79BD" d="M-13.536-16.064l4.404 12.125 9.75-11.243z"/><path fill="#3576B0" d="M-9.132-3.939l-18.335 5.816 18.719 3.185z"/><path fill="#3F74BA" d="M-13.536-16.064L-28.378 2.72l19.246-6.659z"/><path fill="#3C6DB5" d="M-13.536-16.064l-12.768-1.75-2.074 20.534z"/><path fill="#4278BC" d="M-11.405-23.932l-14.981 6.118 12.85 1.75z"/><path fill="#4365AF" d="M-26.183-17.814l-14.656 8.105L-28.378 2.72z"/><path fill="#3E5FAC" d="M-40.839-9.709l12.801 12.736-19.643 3.014z"/><path fill="#3C6DB5" d="M-40.839-9.704l17.97-20.3-3.314 12.193z"/><path fill="#4365AF" d="M-40.823-9.725L-52.964-21.16l9.698-1.026z"/><path fill="#3968B2" d="M-40.839-9.704l-2.427-12.482 20.397-7.818z"/></g><linearGradient id="c" x1="2205.981" x2="1864.695" y1="-1297.498" y2="-849.948" gradientTransform="matrix(.22 0 0 -.22 -387.61 -257.77)" gradientUnits="userSpaceOnUse"><stop offset=".031" stop-color="#4bacd5"/><stop offset=".429" stop-color="#4cc5d7" stop-opacity=".27"/><stop offset="1" stop-color="#1c466a"/></linearGradient><path fill="url(#c)" d="M129.414-92.939s-2.252 5.481-8.834 5.481H93.799c-22.957 0-27.088 19.477-27.088 19.477l-9.59 50.373h14.762c21.232 0 20.543 15.216 20.543 15.216l-.607 8.369s-.834-8.369-15.215-8.369c-11.193 0-17.805 3.654-17.805 3.654s-4.564 2.665-6.092 8.523c-.686 3.191-7.912 41.537-7.912 41.537s-2.221 8.888 5.748 12.372C56.264 66.206 66.711 67 66.711 67h-48.09C-5.503 67-7.642 48.593-6.645 43.562c.604-3.881 2.73-12.242 3.261-14.446C2.867 5.223 54.379-1.931 54.379-1.931S1.509 3.287-1.93 3.546c-40.862 4.359-44.289-21.762-44.289-21.762H4.617L16.94-64.177S26.03-93 54.899-93c6.273 0 74.515.061 74.515.061z"/><g><g fill="#1A4366"><path d="M-1.714 131.143c-1.674.736-4.375 1.404-7.723 1.404-7.534 0-12.09-4.726-12.09-12.334 0-5.623 2.261-10.963 6.379-14.372 3.038-2.612 6.859-4.017 11.22-4.017 3.321 0 5.67.837 6.467 1.458l-1.202 2.964c-1.107-.668-3.227-1.249-5.88-1.249-3.099 0-6.231 1.202-8.533 3.369-2.788 2.605-4.557 6.805-4.557 11.313 0 5.347 2.437 9.729 9.073 9.729 2.248 0 4.732-.439 6.373-1.276l.473 3.011zM27.922 114.017c0 5.178-1.85 10.875-5.401 14.412-2.646 2.62-6.103 4.159-10.214 4.159-7.689 0-11.321-5.779-11.321-12.111 0-5.279 2.086-11.044 5.711-14.636 2.518-2.478 6.231-4.023 9.991-4.023 7.993.006 11.234 5.846 11.234 12.199zM9.384 107.92c-2.869 2.869-4.55 8.088-4.55 12.246 0 4.86 2.174 9.33 8.013 9.33 2.518 0 4.948-1.094 6.798-2.957 2.794-2.829 4.421-8.182 4.421-12.348 0-4.232-1.363-9.275-7.864-9.275-2.653 0-5.002 1.147-6.818 3.004zM53.871 132.108l2.133-16.101c.393-2.822 1.055-7.196 1.635-10.079h-.176c-1.377 3.011-3.012 6.542-4.65 9.6l-8.838 16.404h-2.836l-2.213-16.047c-.445-3.456-.75-6.898-.932-9.957h-.082c-.66 2.748-1.6 7.257-2.309 10.079l-4.056 16.101h-3.45l7.729-29.805h4.691l2.35 17.106c.305 2.524.662 5.225.703 7.433h.135c.924-2.208 2.215-4.867 3.496-7.338l9.242-17.201h4.773l-3.809 29.805h-3.536zM87.484 132.108l2.125-16.101c.393-2.822 1.066-7.196 1.635-10.079h-.176c-1.363 3.011-2.998 6.542-4.645 9.6l-8.844 16.404h-2.836l-2.207-16.047c-.439-3.456-.75-6.898-.924-9.957h-.096c-.662 2.748-1.594 7.257-2.295 10.079l-4.064 16.101h-3.455l7.736-29.805h4.697l2.336 17.106c.311 2.524.662 5.225.703 7.433h.135c.932-2.208 2.213-4.867 3.496-7.338l9.242-17.201h4.773l-3.801 29.805h-3.535zM113.264 118.087h-10.828l-2.037 10.882h12.205l-.621 3.14H96.104l5.658-29.805h15.223l-.615 3.146h-11.502l-1.816 9.546h10.834l-.622 3.091zM121.621 102.742c1.811-.392 4.295-.661 6.51-.661 2.955 0 5.521.709 7.115 2.167 1.369 1.194 2.199 2.923 2.199 4.962 0 4.313-3.307 7.554-7.068 8.606l-.039.095c2.078.709 3.092 2.917 3.314 6.009.311 4.158.525 6.979.924 8.188h-3.801c-.168-.614-.484-3.761-.701-7.21-.217-4.07-1.729-5.792-4.691-5.792h-3.275l-2.43 13.002h-3.672l5.615-29.366zm1.055 13.535h3.279c4.652 0 7.65-3.051 7.65-6.629 0-3.18-2.383-4.598-5.746-4.598-1.457 0-2.43.129-3.092.311l-2.091 10.916zM159.076 131.143c-1.676.736-4.375 1.404-7.736 1.404-7.521 0-12.07-4.726-12.07-12.334 0-5.623 2.248-10.963 6.357-14.372 3.059-2.612 6.859-4.017 11.24-4.017 3.314 0 5.664.837 6.455 1.458l-1.195 2.964c-1.094-.668-3.227-1.249-5.873-1.249-3.1 0-6.238 1.202-8.547 3.369-2.781 2.605-4.543 6.805-4.543 11.313 0 5.347 2.43 9.729 9.066 9.729 2.254 0 4.725-.439 6.373-1.276l.473 3.011zM179.287 118.087h-10.828l-2.039 10.882h12.205l-.621 3.14h-15.877l5.664-29.805H183l-.621 3.146h-11.49l-1.822 9.546h10.842l-.622 3.091z"/></g><path fill="#1A4366" d="M-43.393 101.736h-9.65c-8.759 0-11.686 5.495-12.377 7.196-2.511 7.122 3.379 10.498 3.379 10.498s3.163 1.674 5.188 2.842c1.998 1.154 1.971 4.01.401 5.38-5.231 3.849-7.247-1.762-7.611-2.733-.354-.959-1.394-.378-1.394-.378s-1.374.634-2.626 1.444c-1.384.891-.554 1.944-.554 1.944s4.496 6.143 11.709 4.489c2.427-.561 12.307-2.829 10.254-12.381-1.074-4.867-7.568-6.677-8.79-7.284-1.766-.783-2.495-2.228-2.188-3.767.422-2.141 1.823-3.059 4.401-3.059h9.235l.623-4.191zM-84.127 87.904H-96.184c-13.295 0-15.621 11.328-15.621 11.328l-4.901 30.925s-.037.108-.047.297l-.247 1.425h1.58l.095.014h9.316c1.985 0 2.258-1.735 2.258-1.735l2.447-15.081h8.847c1.306 0 1.465-1.27 1.465-1.27l.787-4.995h-10.116l1.479-9.377s.651-5.657 4.226-5.657h7.908c1.671 0 1.775-1.472 1.775-1.472l.584-3.146s.017-.055.017-.148l.205-1.108z"/><path fill="#1A4366" d="M-19.968 101.743h-1.35l-.067-.007h-25.896c-1.131 0-1.269 1.142-1.269 1.142l-.314 2.133s-.182.918 1.131.918h6.542c1.485 0 1.174 1.283 1.174 1.283l-3.632 22.959s-.006.067-.027.135l-.256 1.553h1.428l.03.014h7.372c1.62 0 1.836-1.539 1.836-1.539l3.646-23.128s.094-1.276 1.836-1.276h5.63c1.451 0 1.742-1.377 1.742-1.377l.25-1.587s.02-.114.02-.249l.174-.974zM-69.312 129.995c-.024-.195-4.277-23.654-4.337-23.891-.128-.473-1.239-4.888-5.327-4.888-3.49 0-4.648 1.303-5.664 2.728-.368.52-1.208 2.065-1.208 2.065l-11.709 24.12-.054.095c-.01.014-.01.014-.017.027l-.77 1.492h3.855c1.839 0 2.315-1.573 2.315-1.573l1.33-2.862s.412-.959 1.434-.959h7.811c1.195 0 1.259.824 1.259.824l.439 3.037s.179 1.607 1.64 1.607h7.348c1.573.001 1.692-1.458 1.655-1.822zm-13.036-8.141c-.952 0-5.961.014-5.961.014s4.398-9.181 4.573-9.565c.166-.466 1.087-1.56 1.401.074.304 1.647 1.053 7.776 1.053 7.776s.287 1.701-1.066 1.701z"/></g></svg>
