<svg version="1.1" id="Capa_1" xmlns="http://www.w3.org/2000/svg" xmlns:xlink="http://www.w3.org/1999/xlink" x="0px" y="0px" width="24px" height="24px" viewBox="0 0 24 24" enable-background="new 0 0 24 24" xml:space="preserve"><path fill="#42A5F5" d="M15.636 11.092a2.716 2.716 0 0 0 2.72-2.728 2.718 2.718 0 0 0-2.72-2.729 2.726 2.726 0 0 0-2.728 2.729 2.724 2.724 0 0 0 2.728 2.728zm-7.273 0a2.716 2.716 0 0 0 2.718-2.728 2.717 2.717 0 0 0-2.718-2.729 2.726 2.726 0 0 0-2.729 2.729 2.726 2.726 0 0 0 2.729 2.728zm0 1.817C6.245 12.909 2 13.973 2 16.092v2.271h12.727v-2.271c0-2.119-4.247-3.183-6.364-3.183zm7.273 0c-.263 0-.562.019-.882.046 1.055.764 1.791 1.791 1.791 3.137v2.271H22v-2.271c0-2.119-4.246-3.183-6.364-3.183z"/></svg>
