<?xml version="1.0" encoding="utf-8"?>
<!-- Generator: Adobe Illustrator 15.0.0, SVG Export Plug-In . SVG Version: 6.00 Build 0)  -->
<!DOCTYPE svg PUBLIC "-//W3C//DTD SVG 1.1//EN" "http://www.w3.org/Graphics/SVG/1.1/DTD/svg11.dtd">
<svg version="1.1" id="Layer_1" xmlns="http://www.w3.org/2000/svg" xmlns:xlink="http://www.w3.org/1999/xlink" x="0px" y="0px"
	 width="24px" height="24px" viewBox="0 0 24 24" enable-background="new 0 0 24 24" xml:space="preserve">
<g>
	<path fill="#FFFFFF" d="M15.636,11.092c1.511,0,2.72-1.218,2.72-2.728c0-1.509-1.209-2.729-2.72-2.729
		c-1.509,0-2.728,1.22-2.728,2.729C12.908,9.874,14.127,11.092,15.636,11.092z M8.363,11.092c1.509,0,2.718-1.218,2.718-2.728
		c0-1.509-1.209-2.729-2.718-2.729c-1.51,0-2.729,1.22-2.729,2.729C5.636,9.874,6.854,11.092,8.363,11.092z M8.363,12.909
		C6.245,12.909,2,13.973,2,16.092v2.271h12.727v-2.271C14.727,13.973,10.48,12.909,8.363,12.909z M15.636,12.909
		c-0.263,0-0.562,0.019-0.882,0.046c1.055,0.764,1.791,1.791,1.791,3.137v2.271H22v-2.271C22,13.973,17.754,12.909,15.636,12.909z"
		/>
</g>
</svg>
