<?xml version="1.0" encoding="utf-8"?>
<!-- Generator: Adobe Illustrator 15.0.0, SVG Export Plug-In . SVG Version: 6.00 Build 0)  -->
<!DOCTYPE svg PUBLIC "-//W3C//DTD SVG 1.1//EN" "http://www.w3.org/Graphics/SVG/1.1/DTD/svg11.dtd">
<svg version="1.1" id="Layer_1" xmlns="http://www.w3.org/2000/svg" xmlns:xlink="http://www.w3.org/1999/xlink" x="0px" y="0px"
	 width="110px" height="110px" viewBox="-10 -10 110 110" enable-background="new -10 -10 110 110" xml:space="preserve">
<path fill="#DA151D" d="M99.359,95.83L60.605,57.075c6.643-7.356,10.316-16.915,10.312-26.831C70.918,8.021,52.9-9.998,30.67-9.998
	l0,0C8.447-10.234-9.761,7.591-9.998,29.817c-0.236,22.225,17.589,40.434,39.812,40.67c0.286,0.005,0.571,0.005,0.856,0
	c9.916,0.005,19.476-3.669,26.833-10.312l38.753,38.739c0.848,0.861,2.225,0.866,3.086,0.019c0.004,0,0.009-0.009,0.018-0.019
	c0.851-0.847,0.855-2.225,0.009-3.075C99.368,95.834,99.359,95.83,99.359,95.83L99.359,95.83z M-5.18,30.245
	c0-19.771,16.08-35.855,35.851-35.855c19.769,0,35.851,16.08,35.851,35.855c0,19.769-16.082,35.856-35.851,35.856
	C10.899,66.101-5.18,50.014-5.18,30.245z"/>
</svg>
