<svg version="1.1" id="Capa_1" xmlns="http://www.w3.org/2000/svg" xmlns:xlink="http://www.w3.org/1999/xlink" x="0px" y="0px" width="24px" height="24px" viewBox="0 0 24 24" enable-background="new 0 0 24 24" xml:space="preserve"><g fill="#42A5F5"><path d="M4.144 9.857a2.06 2.06 0 0 0-1.519.625A2.064 2.064 0 0 0 2 12c0 .596.209 1.102.625 1.518.418.418.924.625 1.519.625s1.101-.207 1.519-.625A2.07 2.07 0 0 0 6.287 12c0-.597-.209-1.103-.625-1.518a2.067 2.067 0 0 0-1.518-.625zM4.144 4.143c-.595 0-1.101.209-1.519.625A2.073 2.073 0 0 0 2 6.287c0 .596.209 1.102.625 1.518.418.416.924.625 1.519.625s1.101-.209 1.519-.625c.416-.416.625-.922.625-1.518s-.209-1.102-.625-1.52a2.082 2.082 0 0 0-1.519-.624zM4.144 15.57c-.595 0-1.103.209-1.519.625-.416.418-.625.924-.625 1.52s.209 1.102.625 1.518c.418.416.924.625 1.519.625s1.101-.209 1.519-.625c.416-.416.625-.922.625-1.518s-.209-1.102-.625-1.52a2.079 2.079 0 0 0-1.519-.625zM21.896 4.963a.347.347 0 0 0-.252-.105H8.071a.345.345 0 0 0-.251.105.347.347 0 0 0-.105.252v2.143c0 .098.035.182.105.252.071.07.154.105.251.105h13.572a.34.34 0 0 0 .252-.105.348.348 0 0 0 .105-.253V5.215a.35.35 0 0 0-.104-.252zM21.645 10.57H8.071a.339.339 0 0 0-.251.107.342.342 0 0 0-.105.25v2.144c0 .099.035.183.105.253a.348.348 0 0 0 .251.104h13.572a.34.34 0 0 0 .252-.104.354.354 0 0 0 .105-.254v-2.145a.345.345 0 0 0-.104-.25.353.353 0 0 0-.251-.105zM21.645 16.287H8.071a.34.34 0 0 0-.251.104.347.347 0 0 0-.105.252v2.146c0 .096.035.18.105.25a.352.352 0 0 0 .251.104h13.572a.354.354 0 0 0 .356-.354v-2.146a.347.347 0 0 0-.104-.252.344.344 0 0 0-.25-.104z"/></g></svg>
