<svg xmlns="http://www.w3.org/2000/svg" x="0px" y="0px" width="24px" height="24px" viewBox="3 3 24 24" enable-background="new 3 3 24 24" xml:space="preserve"><path fill="#555" d="M5.961 5.239L3.284 3.898a.467.467 0 1 1 .416-.836l2.856 1.43c.151.06.261.194.289.354l.621 3.497h11.606a.47.47 0 1 1 .001.94H7.632L9.581 20.25h1.513a.47.47 0 1 1 .001.942h-1.35l.241 1.355a2.228 2.228 0 0 1 2.099 1.756h7.912a2.225 2.225 0 1 1 4.351.94 2.227 2.227 0 0 1-4.351 0h-7.913a2.227 2.227 0 1 1-3.02-2.531L5.961 5.239zm8.893 15.95h7.982a1.95 1.95 0 0 0 1.413-.588 2.78 2.78 0 0 0 .731-1.482l1.488-8.379a1.78 1.78 0 0 0 .026-.292 2.047 2.047 0 0 0-.563-1.354 2.317 2.317 0 0 0-1.275-.72 2.05 2.05 0 0 0-.332-.03h-1.492a.47.47 0 1 0 0 .941h1.492c.058 0 .115.004.171.015.288.058.549.207.745.427a1.1 1.1 0 0 1 .315.722.854.854 0 0 1-.012.133l-1.489 8.379a1.833 1.833 0 0 1-.469.974 1.036 1.036 0 0 1-.75.315h-7.982a.47.47 0 0 0 0 .939zm-1.88-.937a.47.47 0 1 0 0 .94.47.47 0 0 0 0-.94zm7.978-11.909a.469.469 0 1 0 0 .938.469.469 0 0 0 0-.938zm2.133 15.518a1.29 1.29 0 0 0-1.827 1.817 1.286 1.286 0 0 0 1.82.005 1.285 1.285 0 0 0 .007-1.822zm-12.267 0a1.29 1.29 0 0 0-1.826 1.817 1.287 1.287 0 0 0 2.201-.906 1.286 1.286 0 0 0-.372-.912l-.003.001z"/></svg>
