<?xml version="1.0" encoding="utf-8"?>
<!-- Generator: Adobe Illustrator 15.0.0, SVG Export Plug-In . SVG Version: 6.00 Build 0)  -->
<!DOCTYPE svg PUBLIC "-//W3C//DTD SVG 1.1//EN" "http://www.w3.org/Graphics/SVG/1.1/DTD/svg11.dtd">
<svg version="1.1" id="Layer_1" xmlns="http://www.w3.org/2000/svg" xmlns:xlink="http://www.w3.org/1999/xlink" x="0px" y="0px"
	 width="24px" height="24px" viewBox="0 0 24 24" enable-background="new 0 0 24 24" xml:space="preserve">
<g id="Capa_1">
	<g>
		<g>
			<path fill="#FFFFFF" d="M22,5.308l-1.32-1.323c-0.193-0.191-0.424-0.289-0.688-0.289c-0.268,0-0.494,0.096-0.688,0.289
				l-7.78,7.782L8.36,8.602C8.17,8.411,7.94,8.313,7.676,8.313c-0.266,0-0.491,0.098-0.686,0.289L5.666,9.926
				c-0.19,0.191-0.289,0.42-0.289,0.686c0,0.265,0.099,0.494,0.289,0.687l5.172,5.17c0.19,0.191,0.421,0.287,0.687,0.287
				c0.267,0,0.494-0.096,0.687-0.287L22,6.679c0.193-0.191,0.289-0.42,0.289-0.686C22.287,5.728,22.191,5.5,22,5.308z"/>
		</g>
		<path fill="#FFFFFF" d="M19.564,10.511c0.094,0.483,0.146,0.979,0.146,1.489c0,4.412-3.589,8-8,8s-8-3.588-8-8
			c0-4.411,3.589-8,8-8c1.736,0,3.341,0.562,4.654,1.506l1.429-1.43C16.105,2.78,14.003,2,11.711,2c-5.521,0-10,4.478-10,10
			c0,5.523,4.479,10,10,10c5.521,0,10-4.477,10-10c0-1.093-0.184-2.143-0.506-3.128L19.564,10.511z"/>
	</g>
</g>
<g id="Layer_2" display="none">
	<path display="inline" d="M12,4c4.411,0,8,3.589,8,8c0,4.413-3.589,8-8,8s-8-3.588-8-8C4,7.589,7.589,4,12,4 M12,2
		C6.478,2,2,6.478,2,12c0,5.523,4.478,10,10,10c5.521,0,10-4.477,10-10C22,6.478,17.521,2,12,2L12,2z"/>
</g>
</svg>
