<svg version="1.1" id="Capa_1" xmlns="http://www.w3.org/2000/svg" xmlns:xlink="http://www.w3.org/1999/xlink" x="0px" y="0px" width="24px" height="24px" viewBox="0 0 24 24" enable-background="new 0 0 24 24" xml:space="preserve"><path fill="#42A5F5" d="M22 5.308l-1.32-1.323a.95.95 0 0 0-.688-.289.937.937 0 0 0-.688.289l-7.781 7.782L8.36 8.602a.936.936 0 0 0-.684-.289.945.945 0 0 0-.686.289L5.666 9.926a.943.943 0 0 0-.289.686.95.95 0 0 0 .289.687l5.172 5.17c.19.191.421.287.687.287a.94.94 0 0 0 .687-.287L22 6.679a.931.931 0 0 0 .289-.686.948.948 0 0 0-.289-.685z"/><path fill="#42A5F5" d="M19.564 10.511c.094.483.146.979.146 1.489 0 4.412-3.589 8-8 8s-8-3.588-8-8c0-4.411 3.589-8 8-8 1.735 0 3.341.562 4.654 1.506l1.429-1.43A9.947 9.947 0 0 0 11.711 2c-5.521 0-10 4.478-10 10 0 5.523 4.479 10 10 10s10-4.477 10-10c0-1.093-.184-2.143-.506-3.128l-1.641 1.639z"/></svg>
