<?xml version="1.0" encoding="utf-8"?>
<!-- Generator: Adobe Illustrator 15.0.0, SVG Export Plug-In . SVG Version: 6.00 Build 0)  -->
<!DOCTYPE svg PUBLIC "-//W3C//DTD SVG 1.1//EN" "http://www.w3.org/Graphics/SVG/1.1/DTD/svg11.dtd">
<svg version="1.1" id="Capa_1" xmlns="http://www.w3.org/2000/svg" xmlns:xlink="http://www.w3.org/1999/xlink" x="0px" y="0px"
	 width="24px" height="24px" viewBox="0 0 24 24" enable-background="new 0 0 24 24" xml:space="preserve">
<g>
	<g>
		<path fill="#FFFFFF" d="M4.144,9.857c-0.597,0-1.103,0.207-1.519,0.625C2.209,10.897,2,11.403,2,12
			c0,0.596,0.209,1.102,0.625,1.518c0.418,0.418,0.924,0.625,1.519,0.625s1.101-0.207,1.519-0.625
			C6.078,13.102,6.287,12.596,6.287,12c0-0.597-0.209-1.103-0.625-1.518C5.244,10.064,4.737,9.857,4.144,9.857z"/>
		<path fill="#FFFFFF" d="M4.144,4.143c-0.595,0-1.101,0.209-1.519,0.625C2.209,5.186,2,5.691,2,6.287
			c0,0.596,0.209,1.102,0.625,1.518C3.043,8.221,3.549,8.43,4.144,8.43s1.101-0.209,1.519-0.625
			c0.416-0.416,0.625-0.922,0.625-1.518c0-0.596-0.209-1.102-0.625-1.52C5.244,4.352,4.737,4.143,4.144,4.143z"/>
		<path fill="#FFFFFF" d="M4.144,15.57c-0.595,0-1.103,0.209-1.519,0.625C2.209,16.613,2,17.119,2,17.715s0.209,1.102,0.625,1.518
			c0.418,0.416,0.924,0.625,1.519,0.625s1.101-0.209,1.519-0.625c0.416-0.416,0.625-0.922,0.625-1.518s-0.209-1.102-0.625-1.52
			C5.244,15.779,4.737,15.57,4.144,15.57z"/>
		<path fill="#FFFFFF" d="M21.896,4.963c-0.072-0.07-0.154-0.105-0.252-0.105H8.071c-0.097,0-0.18,0.035-0.251,0.105
			C7.75,5.035,7.715,5.117,7.715,5.215v2.143c0,0.098,0.035,0.182,0.105,0.252c0.071,0.07,0.154,0.105,0.251,0.105h13.571
			c0.1,0,0.182-0.035,0.252-0.105C21.965,7.539,22,7.455,22,7.357V5.215C22,5.117,21.965,5.035,21.896,4.963z"/>
		<path fill="#FFFFFF" d="M21.645,10.57H8.071c-0.097,0-0.18,0.035-0.251,0.107c-0.07,0.07-0.105,0.154-0.105,0.25v2.144
			c0,0.098,0.035,0.182,0.105,0.252c0.071,0.07,0.154,0.104,0.251,0.104h13.571c0.1,0,0.182-0.034,0.252-0.104S22,13.168,22,13.07
			v-2.144c0-0.096-0.035-0.18-0.104-0.25C21.822,10.605,21.74,10.57,21.645,10.57z"/>
		<path fill="#FFFFFF" d="M21.645,16.287H8.071c-0.097,0-0.18,0.033-0.251,0.104c-0.07,0.072-0.105,0.154-0.105,0.252v2.146
			c0,0.096,0.035,0.18,0.105,0.25c0.071,0.069,0.154,0.104,0.251,0.104h13.571c0.1,0,0.182-0.035,0.252-0.104
			c0.068-0.07,0.104-0.154,0.104-0.25v-2.146c0-0.098-0.035-0.182-0.104-0.252C21.822,16.32,21.74,16.287,21.645,16.287z"/>
	</g>
</g>
</svg>
