<svg version="1.1" xmlns="http://www.w3.org/2000/svg" xmlns:xlink="http://www.w3.org/1999/xlink" x="0px" y="0px" width="100px" height="100px" viewBox="0 0 100 100" enable-background="new 0 0 100 100" xml:space="preserve"><g fill="#D9171F"><path d="M50.001 73.104a5.259 5.259 0 0 0-5.254 5.254c0 2.896 2.356 5.256 5.254 5.256s5.254-2.359 5.254-5.256a5.259 5.259 0 0 0-5.254-5.254zm0 13.312c-4.441 0-8.056-3.615-8.056-8.059 0-4.441 3.614-8.057 8.056-8.057s8.057 3.615 8.057 8.057c0 4.444-3.616 8.059-8.057 8.059zM68.51 61.252c-.359 0-.718-.137-.992-.408-4.68-4.68-10.9-7.258-17.52-7.258a24.606 24.606 0 0 0-17.516 7.258 1.4 1.4 0 1 1-1.981-1.982c5.21-5.209 12.134-8.078 19.497-8.078 7.367 0 14.291 2.867 19.5 8.078a1.402 1.402 0 0 1 0 1.982c-.271.271-.63.408-.988.408zM81.674 48.086c-.358 0-.718-.137-.992-.409-16.916-16.919-44.444-16.917-61.361 0a1.401 1.401 0 0 1-1.98-1.981c18.009-18.012 47.313-18.009 65.326 0a1.403 1.403 0 0 1 0 1.981 1.41 1.41 0 0 1-.993.409z"/><path d="M94.835 34.924c-.358 0-.717-.137-.991-.409-24.172-24.168-63.511-24.174-87.688 0a1.401 1.401 0 0 1-1.98-1.981c25.27-25.27 66.382-25.264 91.648 0a1.4 1.4 0 0 1-.989 2.39z"/></g><path fill="none" d="M0 0h100.001v100H0z"/></svg>
