<svg version="1.1" xmlns="http://www.w3.org/2000/svg" xmlns:xlink="http://www.w3.org/1999/xlink" x="0px" y="0px" width="100px" height="100px" viewBox="0 0 100 100" enable-background="new 0 0 100 100" xml:space="preserve"><g fill="#D9171F"><path d="M60.405 38.107H23.244a1.487 1.487 0 0 0 0 2.972h37.161a1.487 1.487 0 0 0 0-2.972zM23.244 29.189h14.864a1.487 1.487 0 0 0 0-2.972H23.244a1.487 1.487 0 0 0 0 2.972zM61.892 51.486c0-.82-.666-1.486-1.486-1.486H23.244a1.487 1.487 0 0 0 0 2.972h37.161a1.486 1.486 0 0 0 1.487-1.486zM50 63.377c0-.82-.666-1.486-1.486-1.486h-25.27a1.487 1.487 0 0 0 0 2.972h25.27c.82 0 1.486-.666 1.486-1.486zM23.244 73.783a1.487 1.487 0 0 0 0 2.972h20.81a1.487 1.487 0 0 0 0-2.972h-20.81z"/><path d="M55.945 10.48l15.736 15.736H55.945V10.48zM9.865 8.379h43.107V29.19h20.811v25.27h2.973V27.088L55.074 5.406H6.893v89.188h46.08v-2.973H9.865V8.379z"/><path d="M90.134 91.621H60.405v-29.73h13.378V80.6l-6.382-6.381L65.3 76.32l9.97 9.969 9.97-9.969-2.102-2.102-6.382 6.382V61.891h13.378v29.73zM57.432 58.918v35.676h35.676V58.918H57.432z"/></g><path fill="none" d="M0 0h100.001v100H0z"/></svg>
