<svg version="1.1" xmlns="http://www.w3.org/2000/svg" xmlns:xlink="http://www.w3.org/1999/xlink" x="0px" y="0px" width="100px" height="100px" viewBox="0 0 100 100" enable-background="new 0 0 100 100" xml:space="preserve"><g fill="#D9171F"><path d="M29.171 91.659H8.341v-8.481a4.91 4.91 0 0 1 4.91-4.909h3.303l-2.156 5.399c-.22.553-.09 1.183.331 1.604l2.976 2.976a1.488 1.488 0 0 0 2.104 0l2.976-2.976a1.487 1.487 0 0 0 .33-1.604l-2.16-5.399h3.308a4.91 4.91 0 0 1 4.91 4.909v8.481zm-9.186-7.8l-1.229 1.232-1.229-1.23 1.229-3.075 1.229 3.073zm-8.461-14.595c2.547-.209 7.142-.98 9.284-3.801l5.317 3.191c-.597 3.644-5.086 6.639-7.369 6.639a9.372 9.372 0 0 1-7.232-6.029zm-.13-2.985c.403-4.987 2.75-7.353 7.362-7.353 4.223 0 6.546 1.997 7.211 6.162l-4.957-2.976a1.487 1.487 0 0 0-2.177.806c-.752 2.259-4.817 3.113-7.439 3.361zm17.24 10.339a7.85 7.85 0 0 0-3.386-1.253 10.328 10.328 0 0 0 3.923-7.512c0-9.837-5.665-11.902-10.415-11.902-4.751 0-10.415 2.065-10.415 11.902a10.329 10.329 0 0 0 3.924 7.512 7.86 7.86 0 0 0-6.899 7.812v9.969c0 .821.666 1.488 1.488 1.488h23.805c.821 0 1.488-.667 1.488-1.488v-9.969a7.874 7.874 0 0 0-3.513-6.559zM60.415 91.659h-20.83v-8.481a4.91 4.91 0 0 1 4.91-4.909h3.303l-2.16 5.399a1.487 1.487 0 0 0 .33 1.604l2.976 2.976a1.488 1.488 0 0 0 2.104 0l2.976-2.976a1.487 1.487 0 0 0 .33-1.604l-2.156-5.399h3.308a4.91 4.91 0 0 1 4.91 4.909v8.481zm-9.186-7.8L50 85.092l-1.229-1.23L50 80.786l1.229 3.073zm-8.461-14.595c2.547-.209 7.142-.98 9.284-3.801l5.317 3.191c-.597 3.644-5.085 6.639-7.369 6.639a9.372 9.372 0 0 1-7.232-6.029zm-.129-2.985c.402-4.987 2.749-7.353 7.361-7.353 4.222 0 6.546 1.997 7.21 6.162l-4.957-2.976a1.487 1.487 0 0 0-2.177.806c-.751 2.259-4.816 3.113-7.437 3.361zm17.239 10.339a7.851 7.851 0 0 0-3.385-1.253 10.33 10.33 0 0 0 3.922-7.512c0-9.837-5.664-11.902-10.415-11.902-4.751 0-10.415 2.065-10.415 11.902a10.329 10.329 0 0 0 3.924 7.512 7.86 7.86 0 0 0-6.899 7.812v9.969c0 .821.666 1.488 1.488 1.488h23.804c.822 0 1.488-.667 1.488-1.488v-9.969a7.873 7.873 0 0 0-3.512-6.559zM91.659 91.659h-20.83v-8.481a4.91 4.91 0 0 1 4.91-4.909h3.303l-2.16 5.399a1.487 1.487 0 0 0 .33 1.604l2.976 2.976a1.488 1.488 0 0 0 2.104 0l2.976-2.976a1.487 1.487 0 0 0 .33-1.604l-2.156-5.399h3.308a4.91 4.91 0 0 1 4.91 4.909v8.481zm-9.186-7.8l-1.229 1.232-1.229-1.23 1.229-3.075 1.229 3.073zm-8.461-14.595c2.547-.209 7.142-.98 9.284-3.801l5.317 3.191c-.597 3.644-5.085 6.639-7.369 6.639a9.372 9.372 0 0 1-7.232-6.029zm-.129-2.985c.403-4.987 2.749-7.353 7.361-7.353 4.223 0 6.547 1.997 7.212 6.162l-4.958-2.976a1.487 1.487 0 0 0-2.177.806c-.753 2.259-4.817 3.113-7.438 3.361zm17.239 10.339a7.851 7.851 0 0 0-3.385-1.253 10.33 10.33 0 0 0 3.922-7.512c0-9.837-5.664-11.902-10.415-11.902s-10.415 2.065-10.415 11.902a10.329 10.329 0 0 0 3.924 7.512 7.86 7.86 0 0 0-6.899 7.812v9.969c0 .821.666 1.488 1.488 1.488h23.805c.822 0 1.488-.667 1.488-1.488v-9.969a7.874 7.874 0 0 0-3.513-6.559zM70.829 33.634h-2.976v2.976h2.976v1.488h-2.976v2.976h2.976V50h-1.487v-5.951c0-.822-.666-1.488-1.488-1.488h-5.951c-.821 0-1.487.666-1.487 1.488V50h-1.488v-8.927h2.976v-2.976h-2.976v-1.488h2.976v-2.976h-2.976v-1.488H70.83v1.489zM66.366 50H63.39v-4.464h2.976V50zm-10.415 0H45.537v-7.432l1.271-1.995a20.383 20.383 0 0 0 3.193-10.966v-.437a12.005 12.005 0 0 0-.387-2.976h6.337V50zm-17.853-1.283L31.9 38.975a17.404 17.404 0 0 1-2.729-9.367 9.225 9.225 0 0 1 8.652-9.364h.275a8.927 8.927 0 0 1 8.927 8.927v.438a17.398 17.398 0 0 1-2.729 9.373l-6.198 9.735zM42.561 50h-1.752l1.752-2.754V50zm31.244 0V30.658c0-.822-.666-1.488-1.487-1.488H58.927v-4.463c0-.822-.666-1.488-1.487-1.488h-9.039a11.876 11.876 0 0 0-10.668-5.951c-6.527.365-11.61 5.803-11.538 12.34a20.385 20.385 0 0 0 3.193 10.966L35.387 50h-1.753v2.976h41.659V50h-1.488z"/><path d="M51.488 27.683h2.975v2.976h-2.975zM63.391 33.634h2.976v2.976h-2.976zM63.391 38.098h2.976v2.976h-2.976zM51.488 32.146h2.975v2.976h-2.975zM51.488 36.609h2.975v2.976h-2.975zM47.025 41.073h2.976v2.976h-2.976zM51.488 41.073h2.975v2.976h-2.975zM47.025 45.536h2.976v2.976h-2.976zM51.488 45.536h2.975v2.976h-2.975zM87.929 36.408l-2.917.588c.183.909.331 1.839.446 2.763l2.95-.351a39.255 39.255 0 0 0-.479-3zM12.061 36.479a37.948 37.948 0 0 0-.477 2.995l2.955.349c.107-.917.256-1.848.438-2.768l-2.916-.576zM83.72 25.077l-2.592 1.461a32.87 32.87 0 0 1 1.28 2.492l2.697-1.256a38.916 38.916 0 0 0-1.385-2.697zM80.34 20.046l-2.336 1.848a35.554 35.554 0 0 1 1.654 2.263l2.467-1.662a40.276 40.276 0 0 0-1.785-2.449zM19.629 20.095a37.59 37.59 0 0 0-1.788 2.45l2.473 1.656a36.019 36.019 0 0 1 1.648-2.265l-2.333-1.841zM76.216 15.603l-2.018 2.188a37.004 37.004 0 0 1 1.983 1.978l2.183-2.022a38.79 38.79 0 0 0-2.148-2.144zM16.252 25.126a38.385 38.385 0 0 0-1.382 2.705l2.699 1.25c.395-.852.824-1.691 1.275-2.494l-2.592-1.461zM13.707 30.639a37.203 37.203 0 0 0-.938 2.888l2.862.808c.251-.893.543-1.785.869-2.666l-2.793-1.03zM23.745 15.639a36.812 36.812 0 0 0-2.146 2.146l2.186 2.019a35.518 35.518 0 0 1 1.979-1.979l-2.019-2.186zM86.274 30.578l-2.789 1.033c.325.877.618 1.772.871 2.664l2.863-.814a40.088 40.088 0 0 0-.945-2.883zM39.477 6.815a40.99 40.99 0 0 0-2.884.939l1.031 2.789a37.134 37.134 0 0 1 2.663-.865l-.81-2.863zM45.428 5.635c-.994.117-2.002.276-2.996.472l.575 2.92c.92-.182 1.852-.33 2.77-.438l-.349-2.954zM48.454 5.395l.112 2.976a39.101 39.101 0 0 1 2.803 0l.119-2.976a38.855 38.855 0 0 0-3.034 0zM33.791 8.915c-.912.421-1.822.893-2.702 1.381l1.458 2.595c.812-.457 1.65-.893 2.494-1.275l-1.25-2.701zM54.507 5.625l-.341 2.955c.915.105 1.847.252 2.769.432l.57-2.921c-.999-.195-2-.351-2.998-.466zM71.447 11.849l-1.65 2.477a35.538 35.538 0 0 1 2.268 1.646l1.839-2.339a38.567 38.567 0 0 0-2.457-1.784zM60.456 6.797l-.799 2.865c.893.25 1.785.538 2.663.859l1.025-2.792a36.95 36.95 0 0 0-2.889-.932zM28.502 11.885a39.495 39.495 0 0 0-2.45 1.785l1.842 2.336a37.408 37.408 0 0 1 2.268-1.651l-1.66-2.47zM66.151 8.889l-1.243 2.701c.841.389 1.683.817 2.499 1.271l1.451-2.598a39.28 39.28 0 0 0-2.707-1.374zM38.098 32.146a2.975 2.975 0 1 1-.001-5.951 2.975 2.975 0 0 1 .001 5.951zm0-8.927a5.951 5.951 0 1 0 0 11.902 5.951 5.951 0 0 0 0-11.902z"/></g><path fill="none" d="M0 0h100.001v100H0z"/></svg>
