<svg version="1.1" xmlns="http://www.w3.org/2000/svg" xmlns:xlink="http://www.w3.org/1999/xlink" x="0px" y="0px" width="100px" height="100px" viewBox="0 0 100 100" enable-background="new 0 0 100 100" xml:space="preserve"><g fill="#D9171F"><text font-family="'Roboto-Regular'" font-size="1" transform="translate(18.4272 34.6338)"></text><path d="M62.156 14.255C51.682 8.962 39.064 10.986 30.76 19.29c-9.651 9.651-10.617 25.04-2.247 35.796.296.379.738.578 1.185.578.322 0 .647-.103.921-.316.654-.509.771-1.451.263-2.105-7.443-9.563-6.583-23.247 2-31.83 7.385-7.386 18.605-9.186 27.92-4.479.738.374 1.643.077 2.016-.663s.078-1.643-.662-2.016zM74.138 26.24c-.374-.74-1.275-1.037-2.016-.663s-1.037 1.276-.664 2.016c4.703 9.313 2.902 20.53-4.48 27.914-8.583 8.583-22.267 9.442-31.831 2.001-.654-.51-1.597-.393-2.105.262-.509.654-.392 1.598.263 2.105 4.899 3.813 10.76 5.689 16.602 5.689 6.983 0 13.94-2.681 19.194-7.936 8.3-8.301 10.326-20.916 5.037-31.388zM70.261 20.524c-.372-.421-.763-.836-1.161-1.234-.398-.399-.813-.79-1.234-1.161-.621-.549-1.569-.49-2.117.131-.549.621-.49 1.569.131 2.118.373.331.743.679 1.099 1.034.355.355.703.726 1.034 1.1.296.335.71.507 1.125.507.353 0 .708-.124.993-.376.62-.549.679-1.497.13-2.119z"/><path d="M82.786 39.587l-1.975 3.238c-.63 1.032-.873 2.26-.686 3.455l.588 3.739c.124.787-.199 1.566-.843 2.034l-3.061 2.226c-.979.713-1.677 1.754-1.961 2.932l-.892 3.682c-.187.772-.782 1.368-1.555 1.555l-3.682.892a5.1078 5.1078 0 0 0-2.931 1.962l-2.227 3.059c-.467.645-1.246.967-2.033.844l-3.738-.589a5.1267 5.1267 0 0 0-3.457.685L51.1 71.273c-.678.413-1.521.413-2.198 0l-3.238-1.975a5.127 5.127 0 0 0-2.663-.746c-.264 0-.53.02-.793.062l-3.74.589c-.787.123-1.566-.2-2.034-.844l-2.226-3.061a5.1222 5.1222 0 0 0-2.931-1.961l-3.683-.891c-.772-.188-1.368-.783-1.554-1.555l-.891-3.683a5.1165 5.1165 0 0 0-1.961-2.932l-3.059-2.226c-.644-.469-.967-1.248-.843-2.034l.588-3.739a5.1156 5.1156 0 0 0-.685-3.455l-1.974-3.237c-.413-.678-.413-1.52 0-2.197l1.975-3.238c.629-1.033.873-2.26.685-3.455l-.588-3.74c-.124-.787.199-1.566.843-2.034l3.06-2.226a5.1142 5.1142 0 0 0 1.961-2.931l.891-3.682c.187-.772.782-1.368 1.555-1.555l3.682-.891a5.111 5.111 0 0 0 2.931-1.961l2.226-3.06c.468-.644 1.248-.967 2.035-.843l3.739.588a5.1183 5.1183 0 0 0 3.456-.685L48.903 5.7c.678-.413 1.52-.413 2.198 0l3.238 1.975c1.031.63 2.26.874 3.455.685l3.74-.588c.785-.123 1.564.2 2.033.843l2.227 3.061a5.1166 5.1166 0 0 0 2.93 1.961l3.683.891c.771.187 1.367.783 1.555 1.555l.891 3.682a5.1165 5.1165 0 0 0 1.961 2.932l3.061 2.226c.644.468.967 1.248.843 2.034l-.589 3.739a5.12 5.12 0 0 0 .686 3.456l1.975 3.238c.408.677.408 1.52-.004 2.197zm-4.567 48.171l-6.636-.793a1.4956 1.4956 0 0 0-1.408.631l-3.823 5.481-9.639-21.503c.203-.027.408-.027.613.005l3.738.589c.525.082 1.051.08 1.559.004l4.976 11.102c.25.557.797.887 1.37.887.205 0 .413-.042.612-.131.756-.34 1.095-1.228.756-1.983l-5.009-11.175c.242-.225.465-.473.664-.746l2.225-3.06a2.12 2.12 0 0 1 .505-.491l9.497 21.183zM33.71 93.077l-3.823-5.481a1.499 1.499 0 0 0-1.409-.631l-6.636.793 9.481-21.15c.173.127.329.28.457.457l2.226 3.061c.211.29.449.554.708.788l-4.99 11.132c-.339.757-.001 1.645.755 1.983.199.09.408.132.613.132.573 0 1.121-.33 1.37-.887l4.973-11.093c.489.067.993.065 1.499-.014l3.74-.589a2.12 2.12 0 0 1 .67.005L33.71 93.077zm51.639-51.928c1-1.642 1-3.681-.001-5.322l-1.974-3.237c-.26-.427-.361-.933-.283-1.426l.588-3.739c.301-1.905-.482-3.793-2.042-4.928l-3.06-2.226a2.121 2.121 0 0 1-.81-1.21l-.892-3.682c-.451-1.87-1.895-3.313-3.766-3.766l-3.682-.892a2.1115 2.1115 0 0 1-1.21-.81l-2.225-3.06c-1.135-1.56-3.023-2.343-4.928-2.043l-3.74.589c-.494.077-1-.023-1.426-.283L52.66 3.139c-1.643-1.001-3.681-1-5.322 0L44.1 5.113c-.426.26-.933.36-1.426.283l-3.739-.588c-1.905-.3-3.793.483-4.928 2.043L31.782 9.91c-.294.405-.724.692-1.21.81l-3.682.891c-1.87.452-3.313 1.895-3.766 3.765l-.891 3.683c-.118.486-.405.916-.81 1.21l-3.061 2.226c-1.56 1.134-2.342 3.022-2.042 4.928l.588 3.74c.078.493-.023 1-.283 1.426l-1.975 3.238c-1 1.642-1 3.681 0 5.322l1.975 3.237c.26.427.36.934.283 1.427l-.588 3.738c-.3 1.905.483 3.794 2.042 4.929l3.059 2.225c.405.295.692.725.81 1.211l.891 3.682c.452 1.87 1.895 3.312 3.765 3.766l1.538.372-10.404 23.212c-.221.493-.16 1.067.16 1.503s.85.665 1.387.601l8.373-1.001 4.823 6.916c.282.405.743.643 1.23.643.047 0 .094-.002.141-.006a1.5 1.5 0 0 0 1.229-.881l10.628-23.708 1.347.821c.821.5 1.741.75 2.661.75.92 0 1.84-.25 2.662-.75l1.395-.851 10.641 23.737c.221.494.691.83 1.229.881.049.004.096.006.143.006.485 0 .946-.237 1.229-.642l4.822-6.917 8.373 1.002c.537.062 1.067-.166 1.388-.602.319-.436.382-1.01.16-1.503L71.63 65.723l1.479-.357c1.87-.453 3.313-1.896 3.766-3.766l.892-3.683c.117-.486.405-.916.81-1.21l3.06-2.226c1.561-1.134 2.343-3.022 2.043-4.928l-.588-3.74c-.078-.493.022-1 .283-1.426l1.974-3.238z"/><path d="M57.492 41.188c-.383.354-.555.882-.453 1.394l1.814 9.127-8.121-4.545c-.228-.128-.48-.191-.733-.191s-.505.063-.733.191l-8.12 4.545 1.813-9.127c.102-.512-.07-1.039-.453-1.394l-6.831-6.317 9.24-1.096a1.504 1.504 0 0 0 1.186-.861L50 24.465l3.898 8.449c.219.474.666.8 1.186.861l9.24 1.096-6.832 6.317zM67.56 33.82c-.331-1.018-1.197-1.729-2.259-1.855l-9.029-1.071-3.809-8.256c-.449-.972-1.393-1.576-2.463-1.576s-2.014.604-2.462 1.576l-3.809 8.256-9.029 1.071c-1.063.126-1.929.837-2.26 1.855-.331 1.018-.048 2.102.738 2.828l6.676 6.173-1.772 8.918c-.208 1.05.2 2.093 1.066 2.722.478.348 1.032.523 1.59.523.454 0 .91-.116 1.328-.351L50 50.193l7.934 4.44c.936.522 2.053.457 2.92-.173.865-.629 1.273-1.672 1.064-2.722l-1.771-8.918 6.675-6.173c.785-.726 1.068-1.809.738-2.827z"/></g><path fill="none" d="M0 0h100.001v100H0z"/></svg>
