<svg version="1.1" xmlns="http://www.w3.org/2000/svg" xmlns:xlink="http://www.w3.org/1999/xlink" x="0px" y="0px" width="100px" height="100px" viewBox="0 0 100 100" enable-background="new 0 0 100 100" xml:space="preserve"><path fill="#D9171F" d="M92.014 41.667H77.143a92.314 92.314 0 0 0-6.799-12.414l11.602-3.194c.158-.043.314-.094.468-.147h9.601v15.755zM74.323 58.178a1.386 1.386 0 0 0-1.971.5 75.827 75.827 0 0 1-4.097 6.717 76.871 76.871 0 0 0-13.003-30.273 5.302 5.302 0 0 0 3.338-2.633l8.952-2.465c6.641 9.959 11.271 21.305 13.514 33.07a79.895 79.895 0 0 0-6.733-4.916zm-29.85 33.804v-47.55h11.056v47.551H44.473zm-30.174-47.55h7.362a92.675 92.675 0 0 0-6.077 21.974 1.38 1.38 0 0 0 2.287 1.231 78.705 78.705 0 0 1 8.078-6.318 77.09 77.09 0 0 0 5.503 8.403 1.38 1.38 0 0 0 2.47-.631 74.074 74.074 0 0 1 7.785-23.81v46.701H14.299v-47.55zM41.41 32.488a5.304 5.304 0 0 0 3.336 2.632 76.903 76.903 0 0 0-13.001 30.274 75.981 75.981 0 0 1-4.098-6.717 1.385 1.385 0 0 0-.876-.683 1.382 1.382 0 0 0-1.093.184 79.572 79.572 0 0 0-6.733 4.916 90.283 90.283 0 0 1 13.516-33.069l8.949 2.463zM15.785 20.951a4.76 4.76 0 0 1-.228-3.866l2.21-5.939A4.752 4.752 0 0 1 20.46 8.37a4.755 4.755 0 0 1 3.872.11l16.887 8.02a5.27 5.27 0 0 0-.43 2.085v1.099c-1.835-1.057-4.742-2.621-7.9-3.897-7.475-3.023-12.466-2.861-14.834.482a1.383 1.383 0 0 0 2.256 1.597c3.097-4.372 15.629 2.033 20.479 5.027v6.559l-22-6.057a4.76 4.76 0 0 1-3.005-2.444zm27.961 20.716a73.788 73.788 0 0 1 4.309-6.379h3.889a73.583 73.583 0 0 1 4.311 6.379H43.746zm2.322-25.598h7.863a2.52 2.52 0 0 1 2.516 2.515v11.425a2.52 2.52 0 0 1-2.516 2.516h-7.863a2.518 2.518 0 0 1-2.515-2.516V18.584a2.519 2.519 0 0 1 2.515-2.515zm29.598-7.59a4.758 4.758 0 0 1 3.873-.11 4.75 4.75 0 0 1 2.694 2.777l2.209 5.938c.476 1.278.394 2.652-.228 3.866s-1.688 2.081-3.002 2.442L59.21 29.45v-6.643c4.945-3.028 17.273-9.274 20.343-4.943a1.381 1.381 0 1 0 2.255-1.597c-2.367-3.344-7.358-3.506-14.834-.482-3.079 1.244-5.922 2.764-7.764 3.818v-1.021c0-.739-.153-1.444-.43-2.085l16.886-8.018zm17.73 14.668h-7.292a7.49 7.49 0 0 0 .572-.937 7.585 7.585 0 0 0 .357-6.089l-2.209-5.938a7.583 7.583 0 0 0-4.244-4.375 7.59 7.59 0 0 0-6.1.175l-17.486 8.305a5.257 5.257 0 0 0-3.062-.982h-7.863a5.246 5.246 0 0 0-3.062.983L25.52 5.982a7.591 7.591 0 0 0-6.099-.174 7.589 7.589 0 0 0-4.245 4.374l-2.209 5.94a7.591 7.591 0 0 0 .358 6.088c.167.327.36.641.572.937H6.605c-.764 0-1.383.619-1.383 1.383v9.95a1.383 1.383 0 0 0 2.765 0v-8.569h9.601c.153.055.309.104.467.148l11.604 3.193a92.327 92.327 0 0 0-6.801 12.414H7.987v-1.658a1.382 1.382 0 1 0-2.765 0v3.041c0 .763.619 1.382 1.383 1.382h4.929v48.933c0 .764.618 1.382 1.382 1.382h74.168c.764 0 1.383-.618 1.383-1.382v-8.025a1.383 1.383 0 1 0-2.765 0v6.644h-27.41V45.281a74.033 74.033 0 0 1 7.785 23.81 1.383 1.383 0 0 0 2.472.631 77.23 77.23 0 0 0 5.502-8.403 78.705 78.705 0 0 1 8.078 6.318 1.383 1.383 0 0 0 2.287-1.231 92.747 92.747 0 0 0-6.076-21.974h7.361V79.81a1.382 1.382 0 1 0 2.765 0V44.432h4.93c.763 0 1.382-.619 1.382-1.382V24.53a1.384 1.384 0 0 0-1.382-1.383z"/><path fill="none" d="M0 0h100.001v100H0z"/></svg>
