<svg version="1.1" xmlns="http://www.w3.org/2000/svg" xmlns:xlink="http://www.w3.org/1999/xlink" x="0px" y="0px" width="100px" height="100px" viewBox="0 0 100 100" enable-background="new 0 0 100 100" xml:space="preserve"><g fill="#D9171F"><path d="M42.562 15.78V6.853h29.757v8.927H59.877l-6.9 5.751V15.78H42.562zM50 27.883l10.955-9.127h14.34V3.877h-35.71v14.878H50v9.128z"/><path d="M45.537 9.829h2.976v2.976h-2.976zM51.488 9.829H63.39v2.976H51.488zM66.367 9.829h2.977v2.976h-2.977zM52.057 93.146H27.115l1.488-2.975h21.966l1.488 2.975zM20.244 75.293h4.463v-2.975h-4.463v-2.977h38.684v2.977H27.683v2.975h31.245v17.854h-3.543l-2.977-5.951H26.763l-2.976 5.951h-3.544V75.293zm-2.976-11.902h46.123v2.977H17.268v-2.977zm5.951-8.536a2.99 2.99 0 0 1 2.158-2.861l6.129-1.751c.863 1.125 2.542 2.734 5.104 2.734s4.24-1.609 5.104-2.735l6.129 1.751c1.14.326 1.935 1.318 2.094 2.471h-1.424a4.469 4.469 0 0 0-4.463 4.463c0 .523.107 1.021.274 1.488H23.219v-5.56zm13.391-7.831c1.044 0 2.043-.19 2.976-.521v1.598c-.37.57-1.395 1.899-2.976 1.899s-2.606-1.329-2.976-1.898v-1.598c.933.33 1.931.52 2.976.52zm-5.951-11.902c0-3.282 2.669-5.951 5.951-5.951s5.951 2.669 5.951 5.951v2.976c0 3.282-2.669 5.952-5.951 5.952s-5.951-2.669-5.951-5.952v-2.976zM62.52 57.439l9.926-9.927a1.67 1.67 0 0 1 2.362 2.36L64.264 60.416H48.513c-.821 0-1.488-.668-1.488-1.488s.667-1.488 1.488-1.488H62.52zm3.847-19.342v-2.976c0-3.282 2.67-5.951 5.951-5.951s5.951 2.669 5.951 5.951v2.976c0 3.282-2.67 5.952-5.951 5.952s-5.951-2.67-5.951-5.952zm14.879 29.757V54.465h2.975V70.83c0 4.102-3.338 7.439-7.439 7.439H61.904v-2.977h11.902c4.102.001 7.44-3.335 7.44-7.438zm-8.771 13.39h2.961l1.189 11.902h-2.961l-1.189-11.902zm-10.571 0h7.58l1.189 11.902h-8.77V81.244zm4.463-11.902V62.52L76.91 51.977c.762-.762 1.215-1.786 1.316-2.854.014.104.043.202.043.31v18.422a4.47 4.47 0 0 1-4.463 4.465H61.904v-2.977h4.463zm13.248 23.804l-1.203-12.043c4.969-.785 8.785-5.088 8.785-10.273V51.488h-5.951v-2.057a5.353 5.353 0 0 0-2.898-4.77 8.897 8.897 0 0 0 2.898-6.564v-2.976c0-4.923-4.004-8.927-8.928-8.927s-8.928 4.003-8.928 8.927v2.976c0 3.852 2.457 7.131 5.883 8.381l-7.986 7.987h-8.344c-.166-2.48-1.869-4.644-4.283-5.334l-6.099-1.74v-2.658a8.897 8.897 0 0 0 2.976-6.636v-2.976c0-4.923-4.003-8.927-8.927-8.927s-8.927 4.003-8.927 8.927v2.976c0 2.635 1.154 4.999 2.976 6.636v2.659l-6.099 1.741a5.975 5.975 0 0 0-4.316 5.723v5.561h-5.951v8.926h2.976v23.805H3.878v2.977h92.245v-2.977H79.615z"/></g><path fill="none" d="M0 0h100.002v100H0z"/></svg>
