<svg version="1.1" xmlns="http://www.w3.org/2000/svg" xmlns:xlink="http://www.w3.org/1999/xlink" x="0px" y="0px" width="100px" height="100px" viewBox="0 0 100 100" enable-background="new 0 0 100 100" xml:space="preserve"><g fill="#D9171F"><path d="M92.402 82.457a5.995 5.995 0 0 1-5.998 6.04H13.597a6.003 6.003 0 0 1-5.999-6.04v-4.375H38.28l1.089 1.182a9.056 9.056 0 0 0 6.642 2.91h7.979a9.06 9.06 0 0 0 6.641-2.91l1.09-1.182h30.684l-.003 4.375zM11.503 29.041a6.042 6.042 0 0 1 6.081-6.007h29.441v3.691c.006.448.061.894.163 1.331h-3.277c-1.706-2.232-4.307-3.443-7.217-3.443-2.909 0-5.509 1.211-7.215 3.443H17.484c-.821 0-1.518.599-1.518 1.42v40.232a1.519 1.519 0 0 0 1.518 1.494h65.033a1.52 1.52 0 0 0 1.518-1.494V29.475c0-.821-.695-1.42-1.518-1.42h-3.318c.107-.436.17-.882.186-1.331v-3.691h3.033a6.04 6.04 0 0 1 6.08 6.007v46.067H61.07a1.51 1.51 0 0 0-1.094.51l-1.533 1.645a6.056 6.056 0 0 1-4.453 1.937h-7.979a6.039 6.039 0 0 1-4.454-1.921l-1.531-1.677a1.502 1.502 0 0 0-1.095-.493H11.504l-.001-46.067zm38.498-15.777a1.758 1.758 0 0 1 1.769-1.761h22.848c.98-.008 1.783.78 1.791 1.761v13.46c0 .98-.811 1.702-1.791 1.702H61.941c-.305.014-.6.119-.846.301L55.2 32.81l.883-2.299a1.56 1.56 0 0 0-.164-1.408 1.516 1.516 0 0 0-1.225-.677H51.77a1.707 1.707 0 0 1-1.768-1.703V13.264zM30.374 33.841a6.322 6.322 0 1 1 6.321 6.321 6.329 6.329 0 0 1-6.321-6.321zm6.321 9.297c5.125.01 9.287-4.137 9.297-9.262a9.14 9.14 0 0 0-.459-2.846h4.089c.694.225 1.417.35 2.147.372h.762l-1.821 4.805a1.514 1.514 0 0 0 .47 1.72c.26.208.584.324.92.327.305-.012.598-.115.844-.296l9.461-6.556H74.55v.071c.93 0 1.57-.257 2.217-.443h4.293v37.195H18.942V31.03h8.915a9.136 9.136 0 0 0-.459 2.846 9.279 9.279 0 0 0 9.297 9.262zm57.254 31.969h-2.477V29.041a9.02 9.02 0 0 0-9.055-8.983h-3.033v-6.794a4.758 4.758 0 0 0-4.768-4.737H51.77a4.736 4.736 0 0 0-4.745 4.737v6.794H17.584a9.02 9.02 0 0 0-9.057 8.983v46.067H6.052c-.821 0-1.43.726-1.43 1.547v5.803a8.975 8.975 0 0 0 2.616 6.371 8.974 8.974 0 0 0 6.358 2.645h72.808a8.976 8.976 0 0 0 8.974-9.016v-5.803c.001-.821-.607-1.548-1.429-1.548z"/><path d="M23.592 49.461a5.555 5.555 0 0 1 4.861-5.498 10.915 10.915 0 0 0 16.491 0 5.563 5.563 0 0 1 4.87 5.498v12.256H23.592V49.461zm-2.976 0v13.796a1.456 1.456 0 0 0 1.502 1.435h29.153c.393.013.773-.132 1.059-.401s.451-.642.459-1.033V49.461c0-4.694-3.849-8.574-8.541-8.574a1.52 1.52 0 0 0-1.2.635 7.847 7.847 0 0 1-12.706-.007 1.5 1.5 0 0 0-1.198-.628c-4.696 0-8.528 3.88-8.528 8.574zM55.668 18.57h6.873a1.489 1.489 0 0 0 0-2.976h-6.873a1.488 1.488 0 0 0 0 2.976zM55.668 23.777h15.051a1.488 1.488 0 1 0 0-2.976H55.668a1.488 1.488 0 0 0 0 2.976z"/></g><path fill="none" d="M0 0h100v100H0z"/></svg>
