<svg version="1.1" id="Capa_1" xmlns="http://www.w3.org/2000/svg" xmlns:xlink="http://www.w3.org/1999/xlink" x="0px" y="0px" width="24px" height="24px" viewBox="0 0 24 24" enable-background="new 0 0 24 24" xml:space="preserve"><path fill="#42A5F5" d="M19.271 8.363h-2.729V4.727H3.817c-1 0-1.817.818-1.817 1.818v10h1.817a2.725 2.725 0 0 0 2.728 2.729 2.725 2.725 0 0 0 2.729-2.729h5.455a2.724 2.724 0 0 0 2.728 2.729 2.725 2.725 0 0 0 2.729-2.729H22V12l-2.729-3.637zM6.545 17.908c-.754 0-1.363-.608-1.363-1.363s.607-1.363 1.363-1.363c.754 0 1.363.608 1.363 1.363s-.609 1.363-1.363 1.363zm12.273-8.18L20.6 12h-4.055V9.728h2.273zm-1.365 8.18c-.754 0-1.363-.608-1.363-1.363s.609-1.363 1.363-1.363c.756 0 1.365.608 1.365 1.363s-.609 1.363-1.365 1.363z"/></svg>
