<?xml version="1.0" encoding="utf-8"?>
<!-- Generator: Adobe Illustrator 15.0.0, SVG Export Plug-In . SVG Version: 6.00 Build 0)  -->
<!DOCTYPE svg PUBLIC "-//W3C//DTD SVG 1.1//EN" "http://www.w3.org/Graphics/SVG/1.1/DTD/svg11.dtd">
<svg version="1.1" id="Layer_1" xmlns="http://www.w3.org/2000/svg" xmlns:xlink="http://www.w3.org/1999/xlink" x="0px" y="0px"
	 width="24px" height="24px" viewBox="0 0 24 24" enable-background="new 0 0 24 24" xml:space="preserve">
<path fill="#FFFFFF" d="M19.271,8.363h-2.729V4.727H3.817C2.817,4.727,2,5.545,2,6.545v10h1.817c0,1.51,1.218,2.729,2.728,2.729
	s2.729-1.219,2.729-2.729h5.455c0,1.51,1.217,2.729,2.727,2.729s2.73-1.219,2.73-2.729H22V12L19.271,8.363z M6.545,17.908
	c-0.754,0-1.363-0.608-1.363-1.363s0.607-1.363,1.363-1.363c0.754,0,1.363,0.608,1.363,1.363S7.299,17.908,6.545,17.908z
	 M18.818,9.728L20.6,12h-4.055V9.728H18.818z M17.453,17.908c-0.754,0-1.363-0.608-1.363-1.363s0.609-1.363,1.363-1.363
	c0.756,0,1.365,0.608,1.365,1.363S18.209,17.908,17.453,17.908z"/>
</svg>
