<svg xmlns="http://www.w3.org/2000/svg" x="0px" y="0px" width="31px" height="28px" viewBox="-0.5 1 31 28" enable-background="new -0.5 1 31 28" xml:space="preserve"><path fill="#DA151D" d="M12.559 23.678a2.665 2.665 0 0 0-2.663 2.662A2.665 2.665 0 0 0 12.559 29a2.664 2.664 0 0 0 2.661-2.66 2.665 2.665 0 0 0-2.661-2.662zm0 3.838a1.179 1.179 0 0 1-1.176-1.176 1.18 1.18 0 0 1 1.176-1.178 1.178 1.178 0 0 1 0 2.354zM21.893 23.678a2.665 2.665 0 0 0-2.662 2.662A2.664 2.664 0 0 0 21.893 29a2.663 2.663 0 0 0 2.661-2.66 2.664 2.664 0 0 0-2.661-2.662zm0 3.838a1.179 1.179 0 0 1-1.176-1.176c0-.648.527-1.178 1.176-1.178.647 0 1.175.529 1.175 1.178a1.18 1.18 0 0 1-1.175 1.176zM22.547 9.667H11.901a.743.743 0 1 0 0 1.486h10.646a.743.743 0 1 0 0-1.486zM21.968 13.524H12.48a.743.743 0 0 0 0 1.487h9.488a.744.744 0 0 0 0-1.487z"/><path fill="#DA151D" d="M29.795 6.356a1.483 1.483 0 0 0-1.152-.547H5.501l-.468-2.268a1.486 1.486 0 0 0-.864-1.064L.909 1.062a.742.742 0 1 0-.592 1.363L3.579 3.84l3.595 17.451a1.489 1.489 0 0 0 1.455 1.186h17.798a.744.744 0 0 0 0-1.486H8.628l-.437-2.123h18.374a1.49 1.49 0 0 0 1.454-1.186l2.079-10.087c.09-.439-.02-.89-.303-1.239zm-3.23 11.025H7.885L5.807 7.295h22.836l-2.078 10.086z"/></svg>
