<?xml version="1.0" encoding="utf-8"?>
<!-- Generator: Adobe Illustrator 15.0.0, SVG Export Plug-In . SVG Version: 6.00 Build 0)  -->
<!DOCTYPE svg PUBLIC "-//W3C//DTD SVG 1.1//EN" "http://www.w3.org/Graphics/SVG/1.1/DTD/svg11.dtd">
<svg version="1.1" id="Capa_1" xmlns="http://www.w3.org/2000/svg" xmlns:xlink="http://www.w3.org/1999/xlink" x="0px" y="0px"
	 width="512px" height="512px" viewBox="0 0 512 512" enable-background="new 0 0 512 512" xml:space="preserve">
<g>
	<path fill="#707070" d="M256,0C114.609,0,0,114.609,0,256c0,141.393,114.609,256,256,256c141.393,0,256-114.607,256-256
		C512,114.609,397.393,0,256,0z M256,482.801C130.739,482.801,29.2,381.264,29.2,256C29.2,130.738,130.738,29.2,256,29.2
		c125.264,0,226.801,101.538,226.801,226.8C482.801,381.264,381.264,482.801,256,482.801z"/>
</g>
<path fill="#707070" d="M313.66,184.785h-29.645c-7.979,0-13.584,6.757-13.584,15.18v13.212h42.332l-6.855,42.88h-35.49V371h-43.327
	V256.058h-28.75v-42.88h28.75v-21.864h0.085c0.761-24.926,9.415-48.659,51.638-50.156V141h34.846V184.785L313.66,184.785z"/>
</svg>
