<?xml version="1.0" encoding="utf-8"?>
<!-- Generator: Adobe Illustrator 15.0.0, SVG Export Plug-In . SVG Version: 6.00 Build 0)  -->
<!DOCTYPE svg PUBLIC "-//W3C//DTD SVG 1.1//EN" "http://www.w3.org/Graphics/SVG/1.1/DTD/svg11.dtd">
<svg version="1.1" id="Layer_1" xmlns="http://www.w3.org/2000/svg" xmlns:xlink="http://www.w3.org/1999/xlink" x="0px" y="0px"
	 width="80px" height="24px" viewBox="0 0 80 24" enable-background="new 0 0 80 24" xml:space="preserve">
<g>
	<path fill="#DA151D" d="M0.488,5.581h12c0.22,1.181,1.22,2.054,2.39,2.054s2.17-0.873,2.39-2.054h2.244
		C19.788,5.573,20.006,5.344,20,5.068c0.006-0.276-0.212-0.506-0.488-0.514h-2.244c-0.22-1.181-1.22-2.054-2.39-2.054
		s-2.17,0.873-2.39,2.054h-12C0.212,4.562-0.006,4.792,0,5.068C0,5.35,0.22,5.581,0.488,5.581z M14.878,3.527
		c0.806,0,1.463,0.693,1.463,1.54c0,0.848-0.657,1.541-1.463,1.541c-0.805,0-1.463-0.693-1.463-1.54
		C13.415,4.22,14.073,3.527,14.878,3.527z M19.512,11.487h-12c-0.22-1.182-1.22-2.055-2.39-2.055s-2.17,0.873-2.39,2.054H0.488
		C0.212,11.494-0.006,11.724,0,12c0,0.282,0.22,0.514,0.488,0.514h2.244c0.22,1.18,1.22,2.055,2.39,2.055s2.17-0.873,2.39-2.055h12
		C19.788,12.506,20.006,12.276,20,12C20.006,11.724,19.788,11.495,19.512,11.487z M5.122,13.54c-0.805,0-1.463-0.694-1.463-1.541
		c0-0.847,0.658-1.54,1.463-1.54c0.805,0,1.463,0.693,1.463,1.54C6.585,12.846,5.927,13.539,5.122,13.54z M19.512,18.418h-7.121
		C12.17,17.236,11.17,16.364,10,16.364s-2.17,0.872-2.39,2.054H0.488C0.212,18.426-0.006,18.656,0,18.932
		c0,0.282,0.22,0.514,0.488,0.514H7.61C7.83,20.627,8.83,21.5,10,21.5s2.17-0.873,2.391-2.055h7.121
		c0.276-0.008,0.495-0.238,0.488-0.514C20.005,18.655,19.788,18.427,19.512,18.418z M10,20.473c-0.805,0-1.463-0.693-1.463-1.539
		c0-0.849,0.658-1.541,1.463-1.541s1.463,0.692,1.463,1.539C11.463,19.779,10.805,20.473,10,20.473z"/>
	<g>
		<path fill="#DA151D" d="M33.518,12.574h-4.539v4.402h-1.347V7.023h6.583v1.06h-5.236v3.432h4.539V12.574z"/>
		<path fill="#DA151D" d="M37.209,16.977h-1.354V7.023h1.354V16.977z"/>
		<path fill="#DA151D" d="M41.092,15.917h4.711v1.06h-6.058V7.023h1.347V15.917z"/>
		<path fill="#DA151D" d="M52.639,8.083h-3.199v8.894h-1.348V8.083H44.9v-1.06h7.738V8.083z"/>
		<path fill="#DA151D" d="M55.447,12.663v4.313h-1.346V7.03h3.602c1.09,0,1.922,0.241,2.496,0.725s0.861,1.185,0.861,2.105
			c0,0.511-0.133,0.955-0.4,1.333c-0.266,0.378-0.654,0.679-1.166,0.902c0.547,0.178,0.941,0.466,1.18,0.865
			c0.24,0.398,0.359,0.892,0.359,1.479v0.937c0,0.31,0.033,0.588,0.102,0.834s0.188,0.446,0.355,0.602v0.164h-1.387
			c-0.178-0.155-0.293-0.383-0.342-0.684c-0.051-0.301-0.076-0.61-0.076-0.93v-0.909c0-0.538-0.156-0.971-0.471-1.299
			s-0.736-0.492-1.266-0.492H55.447z M55.447,11.604h2.119c0.762,0,1.311-0.145,1.645-0.434c0.336-0.288,0.502-0.729,0.502-1.32
			c0-0.559-0.162-0.992-0.488-1.299c-0.326-0.308-0.832-0.461-1.521-0.461h-2.256V11.604z"/>
		<path fill="#DA151D" d="M68.771,14.413h-4.17l-0.943,2.563h-1.375l3.85-9.953h1.154l3.787,9.953h-1.373L68.771,14.413z
			 M65.018,13.285h3.35l-1.641-4.532h-0.041L65.018,13.285z"/>
		<path fill="#DA151D" d="M73.789,12.663v4.313h-1.348V7.03h3.604c1.088,0,1.92,0.241,2.494,0.725S79.4,8.939,79.4,9.86
			c0,0.511-0.133,0.955-0.4,1.333c-0.266,0.378-0.654,0.679-1.164,0.902c0.547,0.178,0.939,0.466,1.178,0.865
			c0.24,0.398,0.359,0.892,0.359,1.479v0.937c0,0.31,0.035,0.588,0.104,0.834s0.186,0.446,0.355,0.602v0.164h-1.389
			c-0.178-0.155-0.291-0.383-0.342-0.684c-0.049-0.301-0.074-0.61-0.074-0.93v-0.909c0-0.538-0.158-0.971-0.473-1.299
			s-0.736-0.492-1.264-0.492H73.789z M73.789,11.604h2.119c0.76,0,1.309-0.145,1.643-0.434c0.336-0.288,0.504-0.729,0.504-1.32
			c0-0.559-0.164-0.992-0.49-1.299c-0.324-0.308-0.832-0.461-1.52-0.461h-2.256V11.604z"/>
	</g>
</g>
</svg>
