<?xml version="1.0" encoding="utf-8"?>
<!-- Generator: Adobe Illustrator 15.0.0, SVG Export Plug-In . SVG Version: 6.00 Build 0)  -->
<!DOCTYPE svg PUBLIC "-//W3C//DTD SVG 1.1//EN" "http://www.w3.org/Graphics/SVG/1.1/DTD/svg11.dtd">
<svg version="1.1" id="Capa_1" xmlns="http://www.w3.org/2000/svg" xmlns:xlink="http://www.w3.org/1999/xlink" x="0px" y="0px"
	 width="512px" height="512px" viewBox="0 0 512 512" enable-background="new 0 0 512 512" xml:space="preserve">
<g>
	<path fill="#707070" d="M256,0C114.609,0,0,114.609,0,256c0,141.393,114.609,256,256,256c141.392,0,256-114.607,256-256
		C512,114.609,397.393,0,256,0z M256,482.801C130.739,482.801,29.2,381.264,29.2,256C29.2,130.738,130.738,29.2,256,29.2
		c125.263,0,226.801,101.538,226.801,226.8C482.801,381.264,381.264,482.801,256,482.801z"/>
</g>
<g>
	<path fill="#707070" d="M319.289,118H192.71c-41.195,0-74.71,33.515-74.71,74.71v126.579C118,360.484,151.515,394,192.71,394
		h126.579C360.485,394,394,360.484,394,319.289V192.71C394,151.515,360.485,118,319.289,118z M377.819,319.289
		c0,32.277-26.255,58.529-58.528,58.529H192.71c-32.275,0-58.529-26.252-58.529-58.529V192.71c0-32.275,26.254-58.529,58.529-58.529
		h126.579c32.274,0,58.528,26.254,58.528,58.529L377.819,319.289L377.819,319.289z"/>
	<path fill="#707070" d="M256,180.53c-41.618,0-75.47,33.86-75.47,75.47c0,41.608,33.852,75.469,75.47,75.469
		c41.608,0,75.469-33.86,75.469-75.469C331.469,214.391,297.608,180.53,256,180.53z M256,315.28
		c-32.689,0-59.289-26.591-59.289-59.28s26.6-59.289,59.289-59.289s59.279,26.6,59.279,59.289S288.689,315.28,256,315.28z"/>
	<path fill="#707070" d="M333.271,160.457c-8.585,0-15.574,6.991-15.574,15.575c0,8.588,6.988,15.575,15.574,15.575
		c8.588,0,15.575-6.986,15.575-15.575C348.846,167.448,341.858,160.457,333.271,160.457z"/>
</g>
</svg>
