<svg xmlns="http://www.w3.org/2000/svg" x="0px" y="0px" width="39px" height="28px" viewBox="0.5 1.5 39 28" enable-background="new 0.5 1.5 39 28" xml:space="preserve"><path fill="#D0B500" d="M34.563 14.09a10.867 10.867 0 0 0-3.83-.656.56.56 0 0 0 0 1.117 9.6 9.6 0 0 1 3.33.537.56.56 0 0 0 .752-.252.558.558 0 0 0-.25-.752l-.002.006z"/><path fill="#D0B500" d="M37.346 22.039l-2.307-.658a.233.233 0 0 1-.169-.223v-.771c.188-.131.367-.279.533-.438a4.114 4.114 0 0 0 1.26-2.973v-1.06l.223-.443a3.548 3.548 0 0 0 .374-1.585V11.01a.558.558 0 0 0-.558-.559h-5.373a3.545 3.545 0 0 0-3.542 3.542v.034c0 .457.105.908.311 1.317l.284.571v.912c0 1.393.666 2.703 1.792 3.521v.803c0 .125 0 .176-.462.307l-1.124.322-3.255-1.184a.55.55 0 0 0-.152-.426l-1.037-1.09v-1.834c.111-.09.22-.184.323-.281a6.553 6.553 0 0 0 2.064-4.763v-1.463c.395-.85.6-1.776.602-2.713V2.059a.56.56 0 0 0-.559-.559h-8.36a5.339 5.339 0 0 0-5.336 5.333v1.193a6.44 6.44 0 0 0 .602 2.713V12a6.817 6.817 0 0 0 2.387 5.205v1.877l-1.04 1.094a.559.559 0 0 0-.152.426l-3.434 1.248c-.245.09-.478.211-.69.361l-.54-.268a4.266 4.266 0 0 0 2.138-1.73.555.555 0 0 0 0-.502 9.904 9.904 0 0 1-.49-3.467c-.013-.394-.025-.766-.049-1.102a4.856 4.856 0 0 0-4.734-4.697 4.857 4.857 0 0 0-4.734 4.697c-.024.332-.036.702-.049 1.102a9.933 9.933 0 0 1-.49 3.465.555.555 0 0 0 0 .502 4.26 4.26 0 0 0 2.141 1.729l-1.5.752a2.34 2.34 0 0 0-1.298 2.1v4.123a.558.558 0 0 0 1.116 0v-4.123a1.223 1.223 0 0 1 .681-1.102l1.865-.934.648.617a2.35 2.35 0 0 0 3.236 0l.648-.617.609.301a2.936 2.936 0 0 0-.449 1.559v4.295a.558.558 0 0 0 1.116 0v-4.292a1.842 1.842 0 0 1 1.204-1.721l3.621-1.314 1.504 2.262a1.152 1.152 0 0 0 .963.512c.306.002.599-.121.815-.336l.919-.92v5.816a.559.559 0 1 0 1.116 0v-5.816l.921.92a1.144 1.144 0 0 0 .93.33c.344-.033.655-.219.847-.506l1.504-2.262 3.62 1.314a1.841 1.841 0 0 1 1.205 1.721v4.295a.558.558 0 1 0 1.115 0v-4.295a2.953 2.953 0 0 0-.825-2.043l.15-.037c.178-.047.353-.109.519-.188l1.426 1.424v5.141a.56.56 0 0 0 1.116 0v-5.141l1.415-1.414c.076.039.155.07.237.094l2.307.66c.527.152.892.635.893 1.184v4.613a.56.56 0 1 0 1.116 0v-4.615a2.358 2.358 0 0 0-1.708-2.258zm-32.821-.986a3.988 3.988 0 0 1-1.791-1.15 6.09 6.09 0 0 0 .317-1.336 4.174 4.174 0 0 0 1.475 1.82l-.001.666zm3.199 1.511a1.23 1.23 0 0 1-1.697 0l-.52-.494c.089-.168.136-.354.135-.545v-.594a4.176 4.176 0 0 0 2.465 0v.594c0 .191.046.377.135.545l-.518.494zm-.849-2.562a3.026 3.026 0 0 1-3.022-3.025.556.556 0 0 0-.649-.549v-.145c.012-.383.024-.746.046-1.056a4.145 4.145 0 0 1 1.128-2.607 3.47 3.47 0 0 1 4.985 0 4.145 4.145 0 0 1 1.128 2.607c.022.311.034.673.047 1.056v.1A5.015 5.015 0 0 0 7.79 14.37a6.99 6.99 0 0 0-2.123-.336.557.557 0 0 0-.386.17l-1.002 1.045a.558.558 0 0 0 .802.774l.838-.869c.722.035 3.043.301 3.947 2.294a3.013 3.013 0 0 1-2.99 2.551l-.001.003zm2.349 1.055v-.67a4.14 4.14 0 0 0 1.474-1.82c.056.455.163.902.318 1.334a4.017 4.017 0 0 1-1.793 1.154l.001.002zm5.372-9.056v-1.386a.564.564 0 0 0-.055-.242A5.36 5.36 0 0 1 14 8.027V6.834a4.219 4.219 0 0 1 4.211-4.211h7.804v5.415c0 .812-.186 1.615-.542 2.345a.569.569 0 0 0-.056.243v1.589a5.356 5.356 0 0 1-1.709 3.938c-.136.129-.279.25-.428.363l-.01.006a5.37 5.37 0 0 1-3.623 1.082 5.526 5.526 0 0 1-5.051-5.603zm3.143 11.231a.045.045 0 0 1-.031.012.039.039 0 0 1-.028-.018l-1.735-2.607.559-.588 2.633 1.807-1.398 1.394zm2.267-2.154l-3.022-2.066v-1.045a6.28 6.28 0 0 0 3.028.764 6.472 6.472 0 0 0 3.018-.74v1.02l-3.024 2.067zm2.326 2.149a.04.04 0 0 1-.028.018c-.011.002-.022-.004-.03-.012l-1.397-1.396 2.634-1.807.558.588-1.737 2.609zm10.192-.473l-1.268-1.266c.024-.109.035-.219.034-.33v-.236a3.91 3.91 0 0 0 1.103.195h.129c.417 0 .832-.062 1.229-.186v.225c0 .109.015.217.041.322l-1.268 1.276zm2.106-3.609a3.003 3.003 0 0 1-2.197.852 3.124 3.124 0 0 1-2.93-3.17v-1.041a.558.558 0 0 0-.06-.25l-.345-.69a1.829 1.829 0 0 1-.193-.818v-.034a2.428 2.428 0 0 1 2.424-2.425h4.812v2.318c0 .376-.088.748-.254 1.085l-.282.563a.558.558 0 0 0-.06.25v1.191a3.007 3.007 0 0 1-.917 2.172l.002-.003z"/><path fill="#D0B500" d="M36.105 24.775a.559.559 0 0 0-.558.561v3.58a.56.56 0 0 0 1.116 0v-3.58a.56.56 0 0 0-.558-.561zM3.891 25.514a.559.559 0 0 0-.559.559v2.844a.562.562 0 0 0 .582.535.56.56 0 0 0 .535-.535v-2.845a.56.56 0 0 0-.558-.558zM24.577 8.229c-2.11-2.111-6.528-1.705-8.329-1.436-.564.083-.982.57-.978 1.141V9.22a.559.559 0 0 0 1.116 0V7.934a.036.036 0 0 1 .029-.038 17.6 17.6 0 0 1 3.626-.178 5.763 5.763 0 0 1 3.747 1.303.558.558 0 1 0 .823-.755c-.01-.012-.022-.023-.034-.034v-.003zM13.439 25.971a.557.557 0 0 0-.558.559v2.387a.56.56 0 0 0 1.117-.001v-2.387a.56.56 0 0 0-.559-.558zM26.57 25.971a.557.557 0 0 0-.559.559v2.387a.557.557 0 1 0 1.116-.001v-2.387a.557.557 0 0 0-.557-.558z"/></svg>
