<?xml version="1.0" encoding="utf-8"?>
<!-- Generator: Adobe Illustrator 15.0.0, SVG Export Plug-In . SVG Version: 6.00 Build 0)  -->
<!DOCTYPE svg PUBLIC "-//W3C//DTD SVG 1.1//EN" "http://www.w3.org/Graphics/SVG/1.1/DTD/svg11.dtd">
<svg version="1.1" id="Layer_1" xmlns="http://www.w3.org/2000/svg" xmlns:xlink="http://www.w3.org/1999/xlink" x="0px" y="0px"
	 width="24px" height="32px" viewBox="4 0 24 32" enable-background="new 4 0 24 32" xml:space="preserve">
<g>
	<g>
		<path fill="#555555" d="M15.618,17.292c-1.751,0-3.176,1.425-3.176,3.176c0,0.868,0.361,1.708,0.991,2.306v2.867
			c0,1.205,0.98,2.185,2.185,2.185c1.205,0,2.185-0.979,2.185-2.185v-2.867c0.63-0.598,0.991-1.438,0.991-2.306
			C18.794,18.717,17.369,17.292,15.618,17.292z M16.741,21.66c-0.303,0.285-0.477,0.685-0.477,1.096v2.885
			c0,0.356-0.29,0.646-0.646,0.646s-0.646-0.29-0.646-0.646v-2.885c0-0.411-0.174-0.811-0.477-1.096
			c-0.332-0.312-0.514-0.736-0.514-1.192c0-0.903,0.735-1.638,1.638-1.638c0.902,0,1.638,0.734,1.638,1.638
			C17.256,20.924,17.073,21.348,16.741,21.66z"/>
	</g>
</g>
<g>
	<g>
		<path fill="#555555" d="M24.929,13.117h-2.307V7.004C22.622,3.142,19.48,0,15.618,0S8.614,3.142,8.614,7.004v6.113H6.307
			C5.035,13.117,4,14.152,4,15.424v14.269C4,30.965,5.035,32,6.307,32h18.622c1.272,0,2.308-1.035,2.308-2.307V15.424
			C27.236,14.152,26.201,13.117,24.929,13.117z M10.152,7.004c0-3.014,2.452-5.466,5.466-5.466c3.014,0,5.467,2.452,5.467,5.466
			v6.113H10.152V7.004z M25.698,29.693L25.698,29.693c0,0.424-0.345,0.769-0.77,0.769H6.307c-0.424,0-0.769-0.345-0.769-0.769
			V15.424c0-0.424,0.345-0.769,0.769-0.769h18.622c0.425,0,0.77,0.345,0.77,0.769V29.693z"/>
	</g>
</g>
</svg>
