<?xml version="1.0" encoding="utf-8"?>
<!-- Generator: Adobe Illustrator 15.0.0, SVG Export Plug-In . SVG Version: 6.00 Build 0)  -->
<!DOCTYPE svg PUBLIC "-//W3C//DTD SVG 1.1//EN" "http://www.w3.org/Graphics/SVG/1.1/DTD/svg11.dtd">
<svg version="1.1" id="Layer_1" xmlns="http://www.w3.org/2000/svg" xmlns:xlink="http://www.w3.org/1999/xlink" x="0px" y="0px"
	 width="50px" height="50px" viewBox="0 0 50 50" enable-background="new 0 0 50 50" xml:space="preserve">
<g>
	<path fill="#3C3C3C" d="M37.615,22.578v-0.112c0.001-3.369-1.312-6.537-3.695-8.92c-2.383-2.384-5.551-3.696-8.921-3.696
		c-3.369,0-6.538,1.312-8.92,3.695c-2.383,2.381-3.695,5.55-3.695,8.92v0.112c-1.44,0.272-2.534,1.537-2.534,3.054v6.334
		c0,1.539,1.122,2.812,2.587,3.064c0.26,1.816,1.809,3.221,3.694,3.221h6.464c0.264,1.088,1.238,1.9,2.404,1.9
		c1.368,0,2.481-1.113,2.481-2.482c0-1.367-1.113-2.48-2.481-2.48c-1.168,0-2.144,0.814-2.406,1.902l-6.462-0.002
		c-1.25,0-2.294-0.891-2.534-2.068c1.414-0.295,2.481-1.551,2.481-3.053v-6.334c0-0.832-0.324-1.612-0.913-2.201
		c-0.449-0.449-1.011-0.741-1.621-0.856v-0.11c0-6.317,5.139-11.455,11.455-11.455c6.315,0,11.455,5.139,11.455,11.455v0.112
		c-1.44,0.272-2.535,1.537-2.535,3.055v6.334c0,1.719,1.397,3.117,3.115,3.117s3.115-1.398,3.115-3.117v-6.334
		C40.149,24.115,39.056,22.851,37.615,22.578z M37.034,33.922c-1.077,0-1.953-0.877-1.953-1.955v-6.334
		c0-1.077,0.876-1.953,1.953-1.953c1.076,0,1.953,0.876,1.953,1.953v6.334C38.987,33.045,38.11,33.922,37.034,33.922z M12.963,23.68
		c1.077,0,1.954,0.876,1.954,1.953v6.334c0,1.078-0.876,1.955-1.954,1.955s-1.954-0.877-1.954-1.955v-6.334
		C11.009,24.556,11.886,23.68,12.963,23.68z M24.999,36.35c0.729,0,1.319,0.592,1.319,1.318c0,0.729-0.592,1.32-1.319,1.32
		c-0.728,0-1.32-0.592-1.32-1.32C23.679,36.941,24.271,36.35,24.999,36.35z"/>
</g>
</svg>
