<svg version="1.1" id="Layer_1" xmlns="http://www.w3.org/2000/svg" xmlns:xlink="http://www.w3.org/1999/xlink" x="0px" y="0px" width="50px" height="50px" viewBox="0 0 50 50" enable-background="new 0 0 50 50" xml:space="preserve"><path fill="#23AEE8" d="M23.833 30.914c-.23-.228-.599-.228-.827.002-.229.227-.228.6.001.826.229.229.599.229.827 0 .109-.111.171-.26.171-.412a.595.595 0 0 0-.172-.416z"/><path fill="#23AEE8" d="M36.25 25.705c-.324 0-.586.262-.586.586v2.578H25.586v-1.447c-.003-2.205-1.645-4.063-3.832-4.338.441-.544.683-1.223.682-1.924v-4.122c0-.323-.263-.585-.586-.585h-3.068c-1.363.001-2.468 1.106-2.47 2.47v2.238c-.001.701.24 1.38.682 1.924-2.186.276-3.826 2.135-3.828 4.338v1.447h-1.994V14.791a.4586.4586 0 0 1 .458-.455h12.178c.323 0 .586-.262.586-.585s-.262-.586-.586-.586H11.63c-.899 0-1.628.728-1.63 1.626v17.373c.002.896.73 1.625 1.63 1.625h8.916v2.703c-1.496.156-2.634 1.414-2.636 2.92 0 .322.263.586.586.586h9.844c.324 0 .586-.264.586-.586-.002-1.506-1.14-2.764-2.635-2.92v-2.703h8.916c.898 0 1.627-.729 1.629-1.625v-5.873c0-.324-.263-.586-.586-.586zm-18.763-6.783c.001-.716.581-1.297 1.297-1.298h2.48v.936c0 .465-.377.842-.843.842h-2.935v-.48zm0 1.651h2.935c.291 0 .579-.063.843-.185v.771c0 1.043-.846 1.889-1.889 1.889-1.044 0-1.889-.845-1.889-1.889v-.586zm2.572 3.647l-.684.685-.682-.685h1.366zm-5.727 3.202c0-1.588 1.162-2.937 2.732-3.17l1.893 1.891c.229.229.599.229.828 0l1.892-1.891c1.57.234 2.732 1.583 2.732 3.17v1.447H14.337l-.005-1.447zm13.322 11.406h-8.472c.249-.703.913-1.172 1.659-1.174h5.148c.748 0 1.415.469 1.665 1.174zm-5.932-2.351v-2.688h3.401v2.691l-3.401-.003zm13.946-4.319c-.002.252-.205.455-.457.453H11.63c-.252.002-.456-.201-.458-.453v-2.119h24.492l.004 2.119zM36.663 23.67c-.228-.229-.6-.228-.828 0-.229.23-.229.601.001.83.228.229.6.228.828 0 .11-.11.172-.259.172-.415a.5918.5918 0 0 0-.173-.415zM36.25 12.756h-4.397c-.324 0-.587.262-.587.586s.261.587.586.587H36.25c.323 0 .585-.263.585-.586s-.262-.586-.585-.587zM29.868 12.928c-.229-.229-.601-.229-.829 0s-.229.6.001.829c.229.229.6.228.828 0 .11-.11.172-.259.172-.415a.5982.5982 0 0 0-.172-.414zM36.251 15.334h-6.797c-.324 0-.586.263-.586.586 0 .324.262.586.586.586h6.797c.323 0 .586-.262.586-.586 0-.323-.263-.586-.586-.586z"/><path fill="#23AEE8" d="M36.251 17.912h-6.797a.5864.5864 0 0 0-.585.588c.001.323.263.583.585.584h6.797a.586.586 0 0 0 .584-.587c0-.323-.262-.584-.584-.585z"/><path fill="#23AEE8" d="M37.069 10.002h-8.438c-1.616.002-2.927 1.313-2.929 2.93v6.265c.002 1.489 1.119 2.74 2.598 2.911v1.528c0 .323.263.585.587.585.155 0 .304-.062.414-.171l1.918-1.919h5.851c1.619-.002 2.931-1.315 2.93-2.934v-6.265c-.001-1.617-1.312-2.928-2.931-2.93zm1.759 9.195c-.002.971-.788 1.757-1.759 1.758h-6.093c-.155 0-.305.062-.414.172l-1.089 1.089v-.667c0-.324-.263-.586-.587-.586h-.253c-.973-.001-1.76-.79-1.759-1.762V12.932c.001-.97.788-1.757 1.758-1.758h8.438c.971.001 1.758.788 1.758 1.758v6.265z"/></svg>
