<?xml version="1.0" encoding="utf-8"?>
<!-- Generator: Adobe Illustrator 15.0.0, SVG Export Plug-In . SVG Version: 6.00 Build 0)  -->
<!DOCTYPE svg PUBLIC "-//W3C//DTD SVG 1.1//EN" "http://www.w3.org/Graphics/SVG/1.1/DTD/svg11.dtd">
<svg version="1.1" id="Layer_1" xmlns="http://www.w3.org/2000/svg" xmlns:xlink="http://www.w3.org/1999/xlink" x="0px" y="0px"
	 width="50px" height="50px" viewBox="0 0 50 50" enable-background="new 0 0 50 50" xml:space="preserve">
<g>
	<g>
		<g>
			<path fill="#3C3C3C" d="M25,10c-8.271,0-15,6.729-15,15c0,8.271,6.729,15,15,15s15-6.729,15-15C40,16.729,33.271,10,25,10L25,10z
				 M25,38.783c-7.599,0-13.782-6.185-13.782-13.783c0-7.6,6.184-13.781,13.782-13.781c7.598,0,13.782,6.182,13.782,13.781
				C38.782,32.599,32.598,38.783,25,38.783L25,38.783z"/>
		</g>
	</g>
	<g>
		<path fill="#3C3C3C" d="M24.021,28.92c0.008-1.023,0.094-1.736,0.258-2.139s0.609-0.936,1.336-1.6
			c0.844-0.875,1.459-1.608,1.846-2.198s0.58-1.338,0.58-2.244c0-1-0.266-1.773-0.797-2.32s-1.289-0.82-2.273-0.82
			c-0.922,0-1.664,0.268-2.227,0.803s-0.848,1.26-0.855,2.174h-1.312l-0.023-0.07c-0.023-1.289,0.383-2.305,1.219-3.047
			s1.902-1.113,3.199-1.113c1.398,0,2.494,0.395,3.287,1.184s1.189,1.855,1.189,3.199c0,1.055-0.26,1.99-0.779,2.807
			c-0.52,0.817-1.256,1.67-2.209,2.561c-0.484,0.414-0.779,0.801-0.885,1.16s-0.158,0.914-0.158,1.664H24.021z M25.604,33.654
			h-1.629V31.85h1.629V33.654z"/>
	</g>
</g>
</svg>
