<?xml version="1.0" encoding="utf-8"?>
<!-- Generator: Adobe Illustrator 15.0.0, SVG Export Plug-In . SVG Version: 6.00 Build 0)  -->
<!DOCTYPE svg PUBLIC "-//W3C//DTD SVG 1.1//EN" "http://www.w3.org/Graphics/SVG/1.1/DTD/svg11.dtd">
<svg version="1.1" id="Layer_1" xmlns="http://www.w3.org/2000/svg" xmlns:xlink="http://www.w3.org/1999/xlink" x="0px" y="0px"
	 width="50px" height="50px" viewBox="0 0 50 50" enable-background="new 0 0 50 50" xml:space="preserve">
<g>
	<path fill="#3C3C3C" d="M39.682,20.562l-14.22-10.414c-0.273-0.2-0.646-0.2-0.921,0L10.319,20.562
		c-0.347,0.255-0.423,0.742-0.168,1.09c0.255,0.347,0.742,0.423,1.09,0.168L25,11.745L38.76,21.819
		c0.139,0.102,0.301,0.15,0.461,0.15c0.24,0,0.475-0.11,0.629-0.318C40.104,21.305,40.027,20.815,39.682,20.562z"/>
	<path fill="#3C3C3C" d="M35.914,21.996c-0.432,0-0.781,0.35-0.781,0.779v1.652v0.016c0,0.002,0,0.003,0,0.005s0,0.003,0,0.005
		v0.541c0,0.002,0,0.003,0,0.005c0,0.001,0,0.002,0,0.004v0.012V38.44h-6.233v-7.031c0-2.147-1.748-3.896-3.897-3.896
		s-3.897,1.748-3.897,3.896v7.031h-6.238V22.774c0-0.432-0.349-0.779-0.779-0.779c-0.431,0-0.78,0.35-0.78,0.779V39.22
		c0,0.43,0.349,0.777,0.78,0.777h7.794c0.41,0,0.746-0.314,0.776-0.721c0.002-0.019,0.003-0.036,0.003-0.061v-7.807
		c0-1.289,1.049-2.338,2.339-2.338c1.289,0,2.337,1.049,2.337,2.338v7.811c0,0.022,0.002,0.043,0.004,0.062
		c0.031,0.401,0.365,0.72,0.775,0.72h7.795c0.43,0,0.779-0.35,0.779-0.777V25.015v-0.577v-1.661
		C36.691,22.346,36.344,21.996,35.914,21.996z"/>
</g>
</svg>
