<svg version="1.1" id="Capa_1" xmlns="http://www.w3.org/2000/svg" xmlns:xlink="http://www.w3.org/1999/xlink" x="0px" y="0px" width="50px" height="50px" viewBox="0 0 50 50" enable-background="new 0 0 50 50" xml:space="preserve"><path fill="#3C3C3C" d="M30.198 27.602l-.076-.035c-.185-.084-.368-.162-.558-.235-.205-.082-.412-.158-.623-.229-.168-.055-.336-.104-.506-.156-.258-.073-.519-.143-.787-.2-.092-.021-.185-.037-.277-.056l-.062-.012a9.1977 9.1977 0 0 0-.479-.082l-.046-.008c-.002 0-.005-.002-.007-.002l-.045-.006c-.135-.02-.268-.039-.405-.055l-.474-.039c-.58-.037-1.179-.037-1.752.006l-.168.014-.078.006-.194.018c-.181.021-.358.046-.536.072l-.053.008c-.121.021-.243.043-.363.064-.133.025-.266.051-.396.08-.254.057-.508.121-.752.193-.194.055-.387.117-.566.18l-.126.045c-.384.135-.765.291-1.134.461l-.098.047-.003.004c-4.312 2.064-7.094 6.461-7.094 11.234 0 .109.007.217.015.324l.031.757h24.828l.033-.748c.008-.111.014-.221.014-.334 0-4.85-2.85-9.285-7.263-11.316zM13.757 38.783c.054-4.285 2.586-8.215 6.447-10.025l.124-.049.015-.014c.304-.139.615-.266.933-.377l.101-.035c.172-.061.345-.115.521-.166.224-.064.449-.123.677-.174.116-.025.235-.049.356-.07.096-.018.19-.037.287-.053l.047-.008c.176-.027.351-.054.523-.07l.396-.035c.521-.039 1.021-.045 1.625 0l.387.031c.096.012.191.025.307.041l.141.02c.146.021.291.047.437.074l.067.014c.082.014.164.029.242.047.238.053.476.113.709.183.153.045.309.092.457.141.189.063.377.134.563.207.178.068.354.146.526.226l.03.014c3.949 1.811 6.515 5.754 6.565 10.08H13.757v-.002zm8.235-13.86c.091.038.186.071.279.104l.199.072c.075.028.151.059.229.082.726.229 1.483.346 2.256.354h.062c.266 0 .53-.014.785-.04.088-.011.172-.022.258-.037l.191-.028c.105-.015.213-.029.326-.052.076-.017.15-.037.225-.058l.209-.053c.102-.024.205-.051.307-.082.062-.02.125-.043.188-.065l.167-.062c.119-.041.24-.084.361-.134.046-.021.092-.042.137-.063l.054-.026c.166-.074.33-.147.492-.235l.106-.063c.183-.104.364-.211.549-.337.096-.064.187-.137.276-.209l.312-.242c1.791-1.482 2.821-3.659 2.821-5.916l.003-.064c0-4.283-3.484-7.767-7.769-7.767-4.088 0-7.488 3.197-7.742 7.278l-.008.101c-.01.128-.018.257-.018.388.001 3.127 1.862 5.936 4.745 7.154zm-3.512-7.46l.006-.109c.216-3.441 3.082-6.138 6.529-6.138 3.612 0 6.551 2.938 6.555 6.495l-.004.064c-.004 1.949-.873 3.783-2.391 5.043l-.289.221c-.063.052-.13.104-.211.161-.146.099-.301.188-.457.278l-.088.053c-.131.07-.27.133-.413.197l-.159.078c-.095.037-.19.07-.287.104l-.201.071c-.039.015-.078.031-.116.041-.075.023-.151.041-.228.062l-.242.062a2.703 2.703 0 0 1-.15.037c-.082.018-.164.027-.246.039l-.23.035c-.057.01-.112.02-.176.025-.203.021-.406.031-.613.033H25.01c-.667 0-1.32-.101-1.945-.295a3.3267 3.3267 0 0 1-.16-.06l-.229-.084a2.9196 2.9196 0 0 1-.21-.078c-2.43-1.026-4-3.396-4-6.034-.001-.099.007-.202.014-.301z"/></svg>
