<svg xmlns="http://www.w3.org/2000/svg" x="0px" y="0px" width="31px" height="28px" viewBox="-0.5 1 31 28" enable-background="new -0.5 1 31 28" xml:space="preserve"><path fill="#569C58" d="M6.333 25.021l.525-.303a9.894 9.894 0 0 0 12.397 3.321l.302.524a.775.775 0 0 0 1.057.283.775.775 0 0 0 .282-1.057l-.302-.523a9.898 9.898 0 0 0 3.325-12.399l.518-.299a.772.772 0 0 0 .281-1.056.772.772 0 0 0-1.055-.283l-.52.299a9.834 9.834 0 0 0-4.847-3.714l.197-.736 2.541-.399a.772.772 0 0 0 .628-.563l1.254-4.691a.777.777 0 0 0-.871-.962l-2.698.422L17.22 1.17a.775.775 0 0 0-1.234.401l-1.257 4.693a.77.77 0 0 0 .262.801l2.001 1.615-.197.737a9.836 9.836 0 0 0-6.055.792l-.303-.525a.773.773 0 1 0-1.339.774l.303.524a9.893 9.893 0 0 0-3.322 12.397l-.524.304a.773.773 0 1 0 .773 1.339l.005-.001zM20.297 7.233l-1.371.216.822-3.063 1.372-.216-.823 3.063zm-3.118-4.115l1.077.873-.818 3.061-1.08-.873.821-3.061zm-6.346 8.791a8.296 8.296 0 0 1 5.567-.994l-.465 1.731a6.547 6.547 0 1 0-1.868 12.96 6.545 6.545 0 0 0 7.414-5.545 6.545 6.545 0 0 0-4.048-7.014l.459-1.732a8.328 8.328 0 0 1 4.91 10.707 8.329 8.329 0 1 1-11.969-10.113zm6.668 11.547a5.002 5.002 0 1 1-1.97-9.304l-.414 1.544a3.431 3.431 0 1 0 1.497.4l.413-1.545a5.007 5.007 0 0 1 2.532 6.613 4.994 4.994 0 0 1-2.058 2.292zm-1.56-2.699a1.885 1.885 0 1 1-1.243-3.491l-.445 1.659a.775.775 0 0 0 1.497.401l.444-1.66a1.888 1.888 0 0 1-.253 3.091z"/></svg>
