<?xml version="1.0" encoding="utf-8"?>
<!-- Generator: Adobe Illustrator 15.0.0, SVG Export Plug-In . SVG Version: 6.00 Build 0)  -->
<!DOCTYPE svg PUBLIC "-//W3C//DTD SVG 1.1//EN" "http://www.w3.org/Graphics/SVG/1.1/DTD/svg11.dtd">
<svg version="1.1" id="Layer_1" xmlns="http://www.w3.org/2000/svg" xmlns:xlink="http://www.w3.org/1999/xlink" x="0px" y="0px"
	 width="50px" height="50px" viewBox="0 0 50 50" enable-background="new 0 0 50 50" xml:space="preserve">
<g id="Capa_1">
</g>
<g id="Layer_2">
	<g>
		<path fill="#FFFFFF" d="M32,27.533c-0.367-0.166-2.134-1.033-2.467-1.166c-0.334-0.135-0.566-0.168-0.801,0.166
			c-0.233,0.365-0.934,1.167-1.133,1.4c-0.199,0.232-0.435,0.268-0.768,0.101c-0.366-0.168-1.532-0.567-2.898-1.767
			c-1.066-0.936-1.801-2.136-2-2.468c-0.201-0.366-0.033-0.567,0.166-0.733c0.166-0.166,0.366-0.435,0.532-0.633
			c0.167-0.201,0.234-0.367,0.368-0.602c0.133-0.232,0.066-0.434-0.034-0.633c-0.1-0.167-0.8-1.934-1.1-2.667
			c-0.3-0.701-0.601-0.601-0.8-0.601c-0.201,0-0.467-0.033-0.7-0.033s-0.634,0.1-0.968,0.434c-0.334,0.367-1.268,1.232-1.268,3
			c0,1.766,1.301,3.466,1.467,3.7c0.168,0.233,2.5,3.968,6.168,5.399c3.666,1.435,3.666,0.967,4.332,0.9
			c0.668-0.066,2.135-0.867,2.436-1.701c0.267-0.8,0.267-1.5,0.165-1.666C32.6,27.833,32.366,27.732,32,27.533z"/>
		<path fill="#FFFFFF" d="M25.268,10c-8.134,0-14.733,6.533-14.701,14.634c0,2.733,0.767,5.333,2.101,7.533L10,40l8.133-2.634
			c2.135,1.167,4.567,1.834,7.135,1.834C33.4,39.2,40,32.667,40,24.6C40,16.533,33.4,10,25.268,10z M25.303,37.993
			c-2.541,0-4.919-0.701-6.965-1.944l-6.445,2.104l2.125-6.238c-1.408-2.109-2.22-4.602-2.22-7.314
			c0-7.369,6.025-13.357,13.468-13.357c7.44,0,13.502,5.953,13.502,13.357C38.768,32.005,32.707,37.993,25.303,37.993z"/>
	</g>
</g>
</svg>
