<?xml version="1.0" encoding="utf-8"?>
<!-- Generator: Adobe Illustrator 15.0.0, SVG Export Plug-In . SVG Version: 6.00 Build 0)  -->
<!DOCTYPE svg PUBLIC "-//W3C//DTD SVG 1.1//EN" "http://www.w3.org/Graphics/SVG/1.1/DTD/svg11.dtd">
<svg version="1.1" id="Layer_1" xmlns="http://www.w3.org/2000/svg" xmlns:xlink="http://www.w3.org/1999/xlink" x="0px" y="0px"
	 width="50px" height="50px" viewBox="0 0 50 50" enable-background="new 0 0 50 50" xml:space="preserve">
<g>
	<g>
		<path id="shopping-online" fill="#3C3C3C" d="M14.017,12.799l-3.346-1.676c-0.298-0.127-0.436-0.471-0.309-0.768
			s0.47-0.435,0.768-0.308c0.021,0.008,0.04,0.019,0.061,0.03l3.571,1.787c0.188,0.075,0.324,0.243,0.359,0.443l0.776,4.371h14.509
			c0.325,0,0.588,0.263,0.588,0.587c0.001,0.325-0.263,0.588-0.587,0.588h-0.001h-14.3l2.436,13.711h1.893
			c0.323,0,0.587,0.263,0.588,0.587c0,0.325-0.265,0.588-0.588,0.588l0,0h-1.688l0.303,1.695c1.272,0.045,2.354,0.948,2.623,2.194
			h9.891c0.324-1.503,1.805-2.457,3.306-2.133c1.502,0.323,2.458,1.805,2.132,3.307c-0.324,1.503-1.806,2.457-3.306,2.134
			c-1.068-0.23-1.901-1.064-2.132-2.134h-9.892c-0.324,1.503-1.806,2.459-3.31,2.134c-1.502-0.324-2.457-1.806-2.132-3.308
			c0.192-0.896,0.815-1.64,1.665-1.987C16.604,27.359,15.311,20.079,14.017,12.799z M25.132,32.738h9.979
			c0.664,0.005,1.303-0.26,1.767-0.736c0.485-0.511,0.804-1.157,0.914-1.852l1.86-10.475c0.021-0.12,0.031-0.243,0.033-0.366
			c-0.018-0.632-0.269-1.235-0.705-1.692c-0.42-0.464-0.979-0.78-1.594-0.9c-0.137-0.024-0.275-0.037-0.414-0.038h-1.865
			c-0.325,0-0.588,0.263-0.588,0.588c0,0.325,0.263,0.588,0.588,0.588h1.865c0.07,0,0.144,0.006,0.213,0.019
			c0.36,0.072,0.687,0.259,0.932,0.533c0.238,0.242,0.378,0.564,0.395,0.903c0,0.056-0.007,0.111-0.016,0.166l-1.861,10.474
			c-0.068,0.456-0.271,0.881-0.586,1.218c-0.246,0.253-0.584,0.396-0.938,0.395h-9.979c-0.323,0-0.587,0.263-0.587,0.588
			C24.545,32.476,24.81,32.737,25.132,32.738L25.132,32.738z M22.782,31.565c-0.324,0-0.587,0.263-0.587,0.588
			s0.263,0.587,0.587,0.587s0.587-0.262,0.587-0.587S23.106,31.565,22.782,31.565L22.782,31.565z M32.756,16.679
			c-0.323,0-0.587,0.263-0.587,0.587c0,0.325,0.264,0.588,0.587,0.588c0.324,0,0.587-0.263,0.587-0.588
			C33.343,16.942,33.08,16.679,32.756,16.679L32.756,16.679z M35.421,36.077c-0.628-0.629-1.646-0.633-2.275-0.006
			c-0.631,0.628-0.633,1.646-0.007,2.277c0.628,0.631,1.646,0.633,2.275,0.006c0.304-0.302,0.476-0.711,0.476-1.139
			C35.892,36.789,35.722,36.38,35.421,36.077z M20.087,36.077c-0.627-0.629-1.646-0.633-2.275-0.006
			c-0.63,0.628-0.633,1.646-0.006,2.277c0.627,0.629,1.646,0.633,2.275,0.006c0.304-0.302,0.476-0.711,0.476-1.139
			c0.003-0.427-0.165-0.836-0.466-1.14L20.087,36.077L20.087,36.077z"/>
	</g>
</g>
</svg>
