<?xml version="1.0" encoding="utf-8"?>
<!-- Generator: Adobe Illustrator 15.0.0, SVG Export Plug-In . SVG Version: 6.00 Build 0)  -->
<!DOCTYPE svg PUBLIC "-//W3C//DTD SVG 1.1//EN" "http://www.w3.org/Graphics/SVG/1.1/DTD/svg11.dtd">
<svg version="1.1" id="Layer_2" xmlns="http://www.w3.org/2000/svg" xmlns:xlink="http://www.w3.org/1999/xlink" x="0px" y="0px"
	 width="20px" height="36px" viewBox="0 0 20 36" enable-background="new 0 0 20 36" xml:space="preserve">
<g>
	<g>
		<path d="M18.683,17.323L2.642,1.283c-0.377-0.377-0.982-0.377-1.361,0c-0.377,0.378-0.377,0.983,0,1.361l15.355,15.355
			L1.28,33.354c-0.377,0.379-0.377,0.983,0,1.361C1.466,34.9,1.715,35,1.958,35c0.242,0,0.492-0.093,0.677-0.284l16.04-16.039
			C19.053,18.306,19.053,17.693,18.683,17.323z"/>
		<path d="M1.961,1c0.246,0,0.492,0.095,0.681,0.283l16.041,16.04c0.37,0.371,0.37,0.983-0.008,1.354L2.635,34.716
			C2.45,34.907,2.2,35,1.958,35c-0.243,0-0.492-0.1-0.678-0.284c-0.377-0.378-0.377-0.983,0-1.36L16.636,18L1.28,2.644
			c-0.377-0.377-0.377-0.983,0-1.361C1.47,1.095,1.716,1,1.961,1"/>
	</g>
</g>
</svg>
