<?xml version="1.0" encoding="utf-8"?>
<!-- Generator: Adobe Illustrator 15.0.0, SVG Export Plug-In . SVG Version: 6.00 Build 0)  -->
<!DOCTYPE svg PUBLIC "-//W3C//DTD SVG 1.1//EN" "http://www.w3.org/Graphics/SVG/1.1/DTD/svg11.dtd">
<svg version="1.1" id="Layer_2" xmlns="http://www.w3.org/2000/svg" xmlns:xlink="http://www.w3.org/1999/xlink" x="0px" y="0px"
	 width="20px" height="36px" viewBox="6 -2 20 36" enable-background="new 6 -2 20 36" xml:space="preserve">
<g>
	<g opacity="0.3">
		<g>
			<path d="M24.681,15.323L8.641-0.717c-0.377-0.377-0.983-0.377-1.361,0c-0.377,0.378-0.377,0.983,0,1.361l15.355,15.355
				L7.28,31.354c-0.377,0.378-0.377,0.983,0,1.361C7.465,32.9,7.714,33,7.957,33c0.242,0,0.492-0.093,0.677-0.284l16.04-16.039
				C25.052,16.306,25.052,15.693,24.681,15.323z"/>
			<path d="M7.96-1c0.246,0,0.492,0.095,0.681,0.283l16.04,16.04c0.371,0.371,0.371,0.983-0.007,1.354L8.634,32.716
				C8.449,32.907,8.199,33,7.957,33c-0.243,0-0.492-0.1-0.677-0.284c-0.377-0.378-0.377-0.983,0-1.361l15.355-15.355L7.28,0.644
				c-0.377-0.377-0.377-0.983,0-1.361C7.469-0.905,7.715-1,7.96-1 M7.96-2C7.438-2,6.945-1.795,6.573-1.424
				c-0.765,0.766-0.765,2.01,0,2.775l14.648,14.648L6.573,30.647c-0.765,0.766-0.765,2.01,0,2.775C6.941,33.79,7.445,34,7.957,34
				c0.525,0,1.034-0.215,1.396-0.589l16.028-16.027c0.368-0.361,0.575-0.854,0.577-1.379c0.002-0.526-0.2-1.02-0.57-1.39
				L9.348-1.424C8.977-1.795,8.484-2,7.96-2L7.96-2z"/>
		</g>
	</g>
	<g>
		<g>
			<path fill="#FFFFFF" d="M24.681,15.323L8.641-0.717c-0.377-0.377-0.983-0.377-1.361,0c-0.377,0.378-0.377,0.983,0,1.361
				l15.355,15.355L7.28,31.354c-0.377,0.378-0.377,0.983,0,1.361C7.465,32.9,7.714,33,7.957,33c0.242,0,0.492-0.093,0.677-0.284
				l16.04-16.039C25.052,16.306,25.052,15.693,24.681,15.323z"/>
			<path fill="#FFFFFF" d="M7.96-1c0.246,0,0.492,0.095,0.681,0.283l16.04,16.04c0.371,0.371,0.371,0.983-0.007,1.354L8.634,32.716
				C8.449,32.907,8.199,33,7.957,33c-0.243,0-0.492-0.1-0.677-0.284c-0.377-0.378-0.377-0.983,0-1.361l15.355-15.355L7.28,0.644
				c-0.377-0.377-0.377-0.983,0-1.361C7.469-0.905,7.715-1,7.96-1"/>
		</g>
	</g>
</g>
</svg>
