<?xml version="1.0" encoding="utf-8"?>
<!-- Generator: Adobe Illustrator 15.0.0, SVG Export Plug-In . SVG Version: 6.00 Build 0)  -->
<!DOCTYPE svg PUBLIC "-//W3C//DTD SVG 1.1//EN" "http://www.w3.org/Graphics/SVG/1.1/DTD/svg11.dtd">
<svg version="1.1" id="Layer_1" xmlns="http://www.w3.org/2000/svg" xmlns:xlink="http://www.w3.org/1999/xlink" x="0px" y="0px"
	 width="46px" height="28px" viewBox="0 0 46 28" enable-background="new 0 0 46 28" xml:space="preserve">
<g>
	<path fill="#23AEE8" d="M33.613,18.047c0,0.206-0.167,0.373-0.373,0.373H12.333c-0.206,0-0.374-0.167-0.374-0.373V1.62
		c0-0.206,0.168-0.373,0.374-0.373H33.24c0.206,0,0.373,0.167,0.373,0.373V18.047z M33.24,0.5H12.333c-0.618,0-1.12,0.503-1.12,1.12
		v16.427c0,0.617,0.502,1.12,1.12,1.12H33.24c0.617,0,1.12-0.503,1.12-1.12V1.62C34.36,1.003,33.857,0.5,33.24,0.5z"/>
	<path fill="#23AEE8" d="M31.374,12.447H14.2V2.74h17.174V12.447z M32.12,1.994H13.453v11.2H32.12V1.994z"/>
	<path fill="#23AEE8" d="M25.773,10.954H19.8V9.84c0-0.498,0.334-0.94,0.812-1.077l1.801-0.514V7.172l-0.186-0.108
		c-0.351-0.205-0.561-0.565-0.561-0.964V5.354c0-0.313,0.133-0.614,0.364-0.826c0.234-0.215,0.537-0.319,0.858-0.29
		c0.571,0.049,1.019,0.573,1.019,1.193V6.1c0,0.399-0.21,0.759-0.562,0.964L23.16,7.172v1.077l1.802,0.514
		c0.478,0.137,0.812,0.58,0.812,1.077V10.954z M26.521,9.84c0-0.829-0.557-1.567-1.354-1.795l-1.26-0.359v-0.1
		c0.465-0.351,0.746-0.902,0.746-1.485V5.432c0-1.003-0.746-1.854-1.701-1.937c-0.521-0.045-1.042,0.131-1.427,0.483
		C21.141,4.33,20.92,4.832,20.92,5.354V6.1c0,0.583,0.282,1.135,0.747,1.486v0.099l-1.259,0.36
		c-0.797,0.228-1.354,0.966-1.354,1.795v1.86h7.467V9.84z"/>
	<path fill="#23AEE8" d="M13.453,15.291l1.032,0.516l-1.032,0.516V15.291z M12.707,17.531l3.448-1.725l-3.448-1.724V17.531z"/>
	<rect x="18.307" y="13.94" fill="#23AEE8" width="0.747" height="3.733"/>
	<rect x="16.813" y="13.94" fill="#23AEE8" width="0.747" height="3.733"/>
	<path fill="#23AEE8" d="M26.147,16.927H25.4v-2.24h0.747V16.927z M26.894,13.94h-2.24v1.493H19.8v0.746h4.854v1.494h2.24V16.18
		h5.974v-0.746h-5.974V13.94z"/>
</g>
<g>
	<g>
		<path fill="#707070" d="M3.83,25.381c0,0.521-0.162,0.954-0.485,1.298s-0.743,0.516-1.258,0.516c-0.498,0-0.903-0.172-1.214-0.516
			s-0.467-0.776-0.467-1.298v-0.759c0-0.52,0.156-0.952,0.467-1.298s0.716-0.519,1.214-0.519c0.516,0,0.935,0.173,1.258,0.517
			c0.323,0.346,0.485,0.778,0.485,1.3V25.381z M3.253,24.616c0-0.391-0.105-0.711-0.316-0.961s-0.494-0.375-0.85-0.375
			c-0.336,0-0.604,0.125-0.804,0.375s-0.3,0.57-0.3,0.961v0.765c0,0.395,0.1,0.717,0.3,0.967s0.468,0.375,0.804,0.375
			c0.357,0,0.641-0.125,0.851-0.373c0.21-0.25,0.315-0.572,0.315-0.969V24.616z"/>
		<path fill="#707070" d="M7.917,27.133H7.34l-2.054-3.299L5.269,23.84v3.293H4.691v-4.266h0.577l2.054,3.293l0.018-0.006v-3.287
			h0.577V27.133z"/>
		<path fill="#707070" d="M9.549,26.679h2.019v0.454H8.972v-4.266h0.577V26.679z"/>
		<path fill="#707070" d="M12.821,27.133h-0.58v-4.266h0.58V27.133z"/>
		<path fill="#707070" d="M17.134,27.133h-0.577l-2.054-3.299l-0.018,0.006v3.293h-0.577v-4.266h0.577l2.054,3.293l0.018-0.006
			v-3.287h0.577V27.133z"/>
		<path fill="#707070" d="M20.72,25.155h-1.954v1.523h2.253v0.454h-2.83v-4.266h2.798v0.454h-2.221v1.38h1.954V25.155z"/>
		<path fill="#707070" d="M25.498,26.034h-1.787l-0.404,1.099h-0.589l1.649-4.266h0.495l1.623,4.266h-0.589L25.498,26.034z
			 M23.89,25.551h1.436l-0.703-1.942h-0.018L23.89,25.551z"/>
		<path fill="#707070" d="M30.3,25.381c0,0.521-0.161,0.954-0.485,1.298c-0.322,0.344-0.742,0.516-1.258,0.516
			c-0.498,0-0.902-0.172-1.215-0.516c-0.311-0.344-0.467-0.776-0.467-1.298v-0.759c0-0.52,0.156-0.952,0.467-1.298
			c0.312-0.346,0.717-0.519,1.215-0.519c0.516,0,0.936,0.173,1.258,0.517c0.324,0.346,0.485,0.778,0.485,1.3V25.381z M29.723,24.616
			c0-0.391-0.105-0.711-0.316-0.961s-0.494-0.375-0.85-0.375c-0.336,0-0.604,0.125-0.805,0.375c-0.199,0.25-0.3,0.57-0.3,0.961
			v0.765c0,0.395,0.101,0.717,0.3,0.967c0.201,0.25,0.469,0.375,0.805,0.375c0.357,0,0.641-0.125,0.852-0.373
			c0.209-0.25,0.314-0.572,0.314-0.969V24.616z"/>
		<path fill="#707070" d="M33.918,26.072l0.097,0.337h0.018l0.097-0.337l1.102-3.205h0.624l-1.585,4.266h-0.495l-1.585-4.266h0.627
			L33.918,26.072z"/>
		<path fill="#707070" d="M37.056,27.133h-0.58v-4.266h0.58V27.133z"/>
		<path fill="#707070" d="M39.408,26.072l0.097,0.337h0.018l0.097-0.337l1.102-3.205h0.624l-1.585,4.266h-0.495l-1.585-4.266h0.627
			L39.408,26.072z"/>
		<path fill="#707070" d="M45.165,25.381c0,0.521-0.162,0.954-0.484,1.298c-0.324,0.344-0.743,0.516-1.259,0.516
			c-0.498,0-0.902-0.172-1.215-0.516c-0.311-0.344-0.467-0.776-0.467-1.298v-0.759c0-0.52,0.156-0.952,0.467-1.298
			c0.312-0.346,0.717-0.519,1.215-0.519c0.516,0,0.935,0.173,1.259,0.517c0.322,0.346,0.484,0.778,0.484,1.3V25.381z M44.588,24.616
			c0-0.391-0.105-0.711-0.316-0.961s-0.494-0.375-0.85-0.375c-0.336,0-0.604,0.125-0.805,0.375c-0.199,0.25-0.3,0.57-0.3,0.961
			v0.765c0,0.395,0.101,0.717,0.3,0.967c0.201,0.25,0.469,0.375,0.805,0.375c0.357,0,0.642-0.125,0.851-0.373
			c0.21-0.25,0.315-0.572,0.315-0.969V24.616z"/>
	</g>
</g>
</svg>
