<?xml version="1.0" encoding="utf-8"?>
<!-- Generator: Adobe Illustrator 15.0.0, SVG Export Plug-In . SVG Version: 6.00 Build 0)  -->
<!DOCTYPE svg PUBLIC "-//W3C//DTD SVG 1.1//EN" "http://www.w3.org/Graphics/SVG/1.1/DTD/svg11.dtd">
<svg version="1.1" xmlns="http://www.w3.org/2000/svg" xmlns:xlink="http://www.w3.org/1999/xlink" x="0px" y="0px" width="32px"
	 height="32px" viewBox="0 0 32 32" enable-background="new 0 0 32 32" xml:space="preserve">
<g id="Capa_1">
</g>
<g id="Layer_2">
	<g>
		<g>
			<path fill="#DA151D" d="M16,32C7.178,32,0,24.822,0,16C0,7.178,7.178,0,16,0c8.822,0,16,7.178,16,16C32,24.822,24.822,32,16,32z
				 M16,0.97C7.712,0.97,0.97,7.712,0.97,16S7.712,31.029,16,31.029c8.289,0,15.029-6.741,15.029-15.029S24.289,0.97,16,0.97z"/>
			<circle fill="#DA151D" cx="11.347" cy="11.568" r="2.061"/>
			<circle fill="#DA151D" cx="21.166" cy="11.568" r="2.061"/>
		</g>
		<path fill="#DA151D" d="M22.264,18.942c-0.078-0.049-0.166-0.072-0.254-0.072c-0.162,0-0.322,0.082-0.414,0.229
			c-1.207,1.957-3.301,3.125-5.596,3.125c-2.295,0-4.389-1.168-5.597-3.125c-0.092-0.146-0.251-0.229-0.413-0.229
			c-0.088,0-0.176,0.023-0.255,0.072c-0.228,0.141-0.298,0.439-0.157,0.667c1.386,2.243,3.787,3.584,6.422,3.584
			s5.035-1.341,6.422-3.584C22.562,19.382,22.492,19.083,22.264,18.942z"/>
	</g>
</g>
</svg>
