<?xml version="1.0" encoding="utf-8"?>
<!-- Generator: Adobe Illustrator 15.0.0, SVG Export Plug-In . SVG Version: 6.00 Build 0)  -->
<!DOCTYPE svg PUBLIC "-//W3C//DTD SVG 1.1//EN" "http://www.w3.org/Graphics/SVG/1.1/DTD/svg11.dtd">
<svg version="1.1" id="Layer_1" xmlns="http://www.w3.org/2000/svg" xmlns:xlink="http://www.w3.org/1999/xlink" x="0px" y="0px"
	 width="24px" height="24px" viewBox="0 0 24 24" enable-background="new 0 0 24 24" xml:space="preserve">
<path fill="#FFFFFF" d="M8,18c-1.1,0-1.99,0.9-1.99,2c0,1.102,0.892,2,1.99,2c1.102,0,2-0.898,2-2C10,18.9,9.102,18,8,18z M2,2v2h2
	l3.602,7.589L6.25,14.041C6.09,14.32,6,14.65,6,15c0,1.102,0.9,2,2,2h12v-2H8.42c-0.14,0-0.25-0.107-0.25-0.25l0.031-0.119L9.101,13
	h7.45c0.75,0,1.41-0.41,1.75-1.03l3.58-6.49C21.961,5.34,22,5.17,22,5c0-0.55-0.449-1-1-1H6.211L5.271,2H2z M18,18
	c-1.1,0-1.99,0.9-1.99,2c0,1.102,0.891,2,1.99,2s2-0.898,2-2C20,18.9,19.1,18,18,18z"/>
</svg>
