<?xml version="1.0" encoding="utf-8"?>
<!-- Generator: Adobe Illustrator 15.0.0, SVG Export Plug-In . SVG Version: 6.00 Build 0)  -->
<!DOCTYPE svg PUBLIC "-//W3C//DTD SVG 1.1//EN" "http://www.w3.org/Graphics/SVG/1.1/DTD/svg11.dtd">
<svg version="1.1" id="Layer_1" xmlns="http://www.w3.org/2000/svg" xmlns:xlink="http://www.w3.org/1999/xlink" x="0px" y="0px"
	 width="24px" height="24px" viewBox="0 0 24 24" enable-background="new 0 0 24 24" xml:space="preserve">
<path fill="#FFFFFF" d="M21.41,11.58l-9-9C12.05,2.22,11.55,2,11,2H4C2.898,2,2,2.899,2,4v7c0,0.55,0.221,1.05,0.59,1.419l9,9
	C11.95,21.779,12.45,22,13,22s1.05-0.221,1.41-0.59l7-7C21.779,14.051,22,13.551,22,13C22,12.451,21.77,11.939,21.41,11.58z M5.5,7
	C4.67,7,4,6.33,4,5.5S4.67,4,5.5,4S7,4.67,7,5.5S6.33,7,5.5,7z"/>
</svg>
