<?xml version="1.0" encoding="utf-8"?>
<!-- Generator: Adobe Illustrator 15.0.0, SVG Export Plug-In . SVG Version: 6.00 Build 0)  -->
<!DOCTYPE svg PUBLIC "-//W3C//DTD SVG 1.1//EN" "http://www.w3.org/Graphics/SVG/1.1/DTD/svg11.dtd">
<svg version="1.1" id="Layer_1" xmlns="http://www.w3.org/2000/svg" xmlns:xlink="http://www.w3.org/1999/xlink" x="0px" y="0px"
	 width="36px" height="28px" viewBox="0 0 36 28" enable-background="new 0 0 36 28" xml:space="preserve">
<g>
	<path fill="#DA151D" d="M22.844,11.669c-0.007,0.007-0.013,0.015-0.019,0.023L18,17.877l-4.777-6.12
		c-0.012-0.02-0.024-0.038-0.04-0.056c-0.92-1.114-1.428-2.526-1.428-3.974c0-3.443,2.802-6.245,6.245-6.245
		s6.245,2.801,6.245,6.245C24.245,9.16,23.747,10.56,22.844,11.669z M18,0.5c-3.985,0-7.228,3.242-7.228,7.227
		c0,1.656,0.573,3.271,1.615,4.554c0.008,0.012,0.017,0.024,0.025,0.035l5.199,6.66c0.093,0.119,0.236,0.189,0.388,0.189
		s0.294-0.07,0.388-0.189l5.224-6.695c0.002-0.002,0.004-0.004,0.006-0.007c1.038-1.281,1.61-2.896,1.61-4.547
		C25.228,3.742,21.985,0.5,18,0.5z"/>
	<path fill="#DA151D" d="M22.24,6.58c-0.076-0.26-0.35-0.409-0.61-0.333c-0.26,0.077-0.408,0.35-0.332,0.61
		c0.357,1.21,0.025,2.517-0.866,3.408c-0.649,0.65-1.513,1.007-2.432,1.007s-1.782-0.357-2.432-1.007
		c-0.649-0.649-1.007-1.513-1.007-2.431s0.357-1.782,1.007-2.432c0.893-0.893,2.199-1.224,3.411-0.865
		c0.261,0.077,0.534-0.072,0.61-0.332c0.077-0.26-0.071-0.534-0.331-0.611c-1.558-0.461-3.238-0.034-4.385,1.113
		c-0.835,0.835-1.295,1.945-1.295,3.126c0,1.181,0.459,2.291,1.295,3.126c0.835,0.835,1.944,1.295,3.126,1.295
		s2.292-0.46,3.127-1.295C22.272,9.814,22.699,8.136,22.24,6.58z"/>
	<path fill="#DA151D" d="M21.135,4.717l-0.008-0.009c-0.192-0.192-0.503-0.192-0.695,0c-0.191,0.192-0.191,0.503,0,0.695
		l0.009,0.009c0.096,0.096,0.222,0.144,0.348,0.144s0.251-0.048,0.347-0.144C21.327,5.22,21.327,4.909,21.135,4.717z"/>
</g>
<g>
	<g>
		<path fill="#707070" d="M1.367,25.422v1.711H0.79v-4.266h1.632c0.455,0,0.809,0.117,1.061,0.352s0.378,0.543,0.378,0.926
			c0,0.389-0.126,0.699-0.378,0.93c-0.252,0.232-0.605,0.348-1.061,0.348H1.367z M1.367,24.969h1.055
			c0.289,0,0.505-0.078,0.647-0.232c0.143-0.156,0.214-0.352,0.214-0.588c0-0.234-0.072-0.432-0.215-0.59s-0.359-0.236-0.646-0.236
			H1.367V24.969z"/>
		<path fill="#707070" d="M5.211,25.285v1.848H4.634v-4.262h1.544c0.467,0,0.823,0.104,1.069,0.311s0.369,0.508,0.369,0.902
			c0,0.219-0.057,0.408-0.171,0.57s-0.281,0.291-0.5,0.387c0.234,0.076,0.403,0.201,0.505,0.371
			c0.103,0.172,0.154,0.383,0.154,0.635v0.4c0,0.133,0.015,0.252,0.044,0.357s0.08,0.191,0.152,0.258v0.07H7.206
			C7.13,27.066,7.081,26.969,7.06,26.84s-0.032-0.262-0.032-0.398v-0.389c0-0.23-0.067-0.416-0.202-0.557s-0.315-0.211-0.542-0.211
			H5.211z M5.211,24.83h0.908c0.326,0,0.561-0.061,0.705-0.186c0.144-0.123,0.215-0.312,0.215-0.566c0-0.238-0.07-0.424-0.209-0.557
			c-0.14-0.131-0.357-0.197-0.652-0.197H5.211V24.83z"/>
		<path fill="#707070" d="M11.141,25.156H9.187v1.523h2.253v0.453h-2.83v-4.266h2.798v0.455H9.187v1.379h1.954V25.156z"/>
		<path fill="#707070" d="M14.439,26.059c0-0.193-0.073-0.355-0.22-0.486c-0.146-0.133-0.406-0.242-0.779-0.332
			c-0.451-0.107-0.803-0.266-1.056-0.475c-0.253-0.211-0.379-0.473-0.379-0.791c0-0.332,0.136-0.611,0.409-0.834
			s0.625-0.334,1.059-0.334c0.467,0,0.838,0.127,1.115,0.383s0.41,0.553,0.4,0.891l-0.006,0.018h-0.551
			c0-0.25-0.083-0.451-0.248-0.605s-0.402-0.232-0.71-0.232c-0.287,0-0.507,0.066-0.661,0.195c-0.153,0.131-0.23,0.299-0.23,0.508
			c0,0.186,0.083,0.342,0.249,0.465c0.166,0.125,0.436,0.232,0.809,0.326c0.449,0.111,0.791,0.275,1.025,0.492
			s0.352,0.486,0.352,0.807c0,0.344-0.141,0.619-0.422,0.828s-0.648,0.314-1.102,0.314c-0.426,0-0.802-0.117-1.129-0.348
			c-0.327-0.232-0.486-0.541-0.476-0.928l0.006-0.018h0.551c0,0.273,0.101,0.482,0.302,0.625s0.45,0.213,0.747,0.213
			c0.291,0,0.521-0.061,0.691-0.184C14.354,26.436,14.439,26.27,14.439,26.059z"/>
		<path fill="#707070" d="M18.389,25.156h-1.954v1.523h2.253v0.453h-2.83v-4.266h2.798v0.455h-2.221v1.379h1.954V25.156z"/>
		<path fill="#707070" d="M22.59,27.133h-0.577l-2.054-3.299l-0.018,0.006v3.293h-0.577v-4.266h0.577l2.054,3.293l0.018-0.006
			v-3.287h0.577V27.133z"/>
		<path fill="#707070" d="M26.659,25.766l0.006,0.018c0.008,0.4-0.133,0.736-0.422,1.006c-0.289,0.271-0.671,0.406-1.146,0.406
			c-0.482,0-0.875-0.172-1.18-0.514c-0.303-0.342-0.455-0.775-0.455-1.301v-0.758c0-0.525,0.152-0.961,0.455-1.303
			c0.305-0.344,0.697-0.514,1.18-0.514s0.866,0.129,1.151,0.385c0.285,0.258,0.424,0.598,0.416,1.021l-0.006,0.018h-0.554
			c0-0.299-0.088-0.535-0.264-0.709s-0.424-0.262-0.744-0.262c-0.322,0-0.579,0.131-0.771,0.391
			c-0.191,0.258-0.287,0.58-0.287,0.965v0.764c0,0.389,0.096,0.713,0.287,0.973s0.448,0.389,0.771,0.389
			c0.32,0,0.568-0.086,0.744-0.26c0.176-0.172,0.264-0.41,0.264-0.715H26.659z"/>
		<path fill="#707070" d="M28.054,27.133h-0.58v-4.266h0.58V27.133z"/>
		<path fill="#707070" d="M31.452,26.035h-1.787l-0.404,1.098h-0.589l1.649-4.266h0.495l1.623,4.266h-0.589L31.452,26.035z
			 M29.844,25.551h1.436l-0.703-1.941h-0.018L29.844,25.551z"/>
		<path fill="#707070" d="M33.603,26.68h2.019v0.453h-2.596v-4.266h0.577V26.68z"/>
	</g>
</g>
</svg>
