<?xml version="1.0" encoding="utf-8"?>
<!-- Generator: Adobe Illustrator 15.0.0, SVG Export Plug-In . SVG Version: 6.00 Build 0)  -->
<!DOCTYPE svg PUBLIC "-//W3C//DTD SVG 1.1//EN" "http://www.w3.org/Graphics/SVG/1.1/DTD/svg11.dtd">
<svg version="1.1" id="Layer_2" xmlns="http://www.w3.org/2000/svg" xmlns:xlink="http://www.w3.org/1999/xlink" x="0px" y="0px"
	 width="20px" height="36px" viewBox="0 0 20 36" enable-background="new 0 0 20 36" xml:space="preserve">
<g>
	<g>
		<path d="M1.282,18.677l16.04,16.039C17.507,34.907,17.757,35,17.999,35c0.243,0,0.492-0.1,0.678-0.285
			c0.377-0.378,0.377-0.982,0-1.361L3.321,17.999L18.677,2.644c0.377-0.378,0.377-0.983,0-1.361c-0.379-0.377-0.984-0.377-1.361,0
			L1.274,17.323C0.904,17.693,0.904,18.306,1.282,18.677z"/>
		<path d="M17.996,1c0.245,0,0.491,0.095,0.681,0.283c0.377,0.378,0.377,0.984,0,1.361L3.321,18l15.355,15.355
			c0.377,0.377,0.377,0.982,0,1.36C18.491,34.9,18.242,35,17.999,35c-0.242,0-0.492-0.093-0.677-0.284L1.282,18.677
			c-0.378-0.371-0.378-0.983-0.008-1.354l16.041-16.04C17.504,1.095,17.75,1,17.996,1"/>
	</g>
</g>
</svg>
