<svg version="1.1" id="Capa_1" xmlns="http://www.w3.org/2000/svg" xmlns:xlink="http://www.w3.org/1999/xlink" x="0px" y="0px" width="24px" height="24px" viewBox="0 0 24 24" enable-background="new 0 0 24 24" xml:space="preserve"><path fill="#42A5F5" d="M21.41 11.58l-9-9C12.05 2.22 11.55 2 11 2H4c-1.102 0-2 .899-2 2v7c0 .55.221 1.05.59 1.419l9 9c.36.36.86.581 1.41.581s1.05-.221 1.41-.59l7-7c.369-.359.59-.859.59-1.41a2.02 2.02 0 0 0-.59-1.42zM5.5 7C4.67 7 4 6.33 4 5.5S4.67 4 5.5 4 7 4.67 7 5.5 6.33 7 5.5 7z"/></svg>
