<?xml version="1.0" encoding="utf-8"?>
<!-- Generator: Adobe Illustrator 15.0.0, SVG Export Plug-In . SVG Version: 6.00 Build 0)  -->
<!DOCTYPE svg PUBLIC "-//W3C//DTD SVG 1.1//EN" "http://www.w3.org/Graphics/SVG/1.1/DTD/svg11.dtd">
<svg version="1.1" id="Layer_2" xmlns="http://www.w3.org/2000/svg" xmlns:xlink="http://www.w3.org/1999/xlink" x="0px" y="0px"
	 width="20px" height="36px" viewBox="6 -2 20 36" enable-background="new 6 -2 20 36" xml:space="preserve">
<g>
	<g opacity="0.3">
		<g>
			<path d="M7.284,16.677l16.04,16.039C23.509,32.907,23.759,33,24.001,33s0.492-0.1,0.677-0.284c0.378-0.378,0.378-0.983,0-1.361
				L9.322,15.999L24.678,0.644c0.378-0.377,0.378-0.983,0-1.361c-0.378-0.377-0.983-0.377-1.36,0l-16.04,16.04
				C6.906,15.693,6.906,16.306,7.284,16.677z"/>
			<path d="M23.997-1c0.246,0,0.492,0.095,0.681,0.283c0.378,0.378,0.378,0.983,0,1.361L9.322,15.999l15.355,15.355
				c0.378,0.378,0.378,0.983,0,1.361C24.493,32.9,24.243,33,24.001,33s-0.492-0.093-0.677-0.284L7.284,16.677
				c-0.378-0.371-0.378-0.983-0.007-1.354l16.04-16.04C23.506-0.905,23.751-1,23.997-1 M23.997-2c-0.523,0-1.016,0.205-1.387,0.576
				L6.57,14.615c-0.37,0.37-0.572,0.863-0.57,1.39c0.002,0.525,0.209,1.018,0.577,1.379l16.028,16.027
				C22.968,33.785,23.476,34,24.001,34c0.512,0,1.016-0.21,1.385-0.577c0.764-0.766,0.764-2.01-0.001-2.775L10.736,15.999
				L25.385,1.351c0.765-0.765,0.765-2.009,0-2.775C25.013-1.795,24.521-2,23.997-2L23.997-2z"/>
		</g>
	</g>
	<g>
		<g>
			<path fill="#FFFFFF" d="M7.284,16.677l16.04,16.039C23.509,32.907,23.759,33,24.001,33s0.492-0.1,0.677-0.284
				c0.378-0.378,0.378-0.983,0-1.361L9.322,15.999L24.678,0.644c0.378-0.377,0.378-0.983,0-1.361c-0.378-0.377-0.983-0.377-1.36,0
				l-16.04,16.04C6.906,15.693,6.906,16.306,7.284,16.677z"/>
			<path fill="#FFFFFF" d="M23.997-1c0.246,0,0.492,0.095,0.681,0.283c0.378,0.378,0.378,0.983,0,1.361L9.322,15.999l15.355,15.355
				c0.378,0.378,0.378,0.983,0,1.361C24.493,32.9,24.243,33,24.001,33s-0.492-0.093-0.677-0.284L7.284,16.677
				c-0.378-0.371-0.378-0.983-0.007-1.354l16.04-16.04C23.506-0.905,23.751-1,23.997-1"/>
		</g>
	</g>
</g>
</svg>
