<svg version="1.1" id="Capa_1" xmlns="http://www.w3.org/2000/svg" xmlns:xlink="http://www.w3.org/1999/xlink" x="0px" y="0px" width="24px" height="24px" viewBox="0 0 24 24" enable-background="new 0 0 24 24" xml:space="preserve"><path fill="#42A5F5" d="M8 18c-1.1 0-1.99.9-1.99 2 0 1.102.892 2 1.99 2 1.102 0 2-.898 2-2 0-1.1-.898-2-2-2zM2 2v2h2l3.602 7.589-1.352 2.452C6.09 14.32 6 14.65 6 15c0 1.102.9 2 2 2h12v-2H8.42a.246.246 0 0 1-.25-.25l.031-.119.9-1.631h7.45c.75 0 1.41-.41 1.75-1.03l3.58-6.49c.08-.14.119-.31.119-.48 0-.55-.449-1-1-1H6.211l-.94-2H2zm16 16c-1.1 0-1.99.9-1.99 2 0 1.102.891 2 1.99 2s2-.898 2-2c0-1.1-.9-2-2-2z"/></svg>
