<?xml version="1.0" encoding="utf-8"?>
<!-- Generator: Adobe Illustrator 15.0.0, SVG Export Plug-In . SVG Version: 6.00 Build 0)  -->
<!DOCTYPE svg PUBLIC "-//W3C//DTD SVG 1.1//EN" "http://www.w3.org/Graphics/SVG/1.1/DTD/svg11.dtd">
<svg version="1.1" id="Layer_1" xmlns="http://www.w3.org/2000/svg" xmlns:xlink="http://www.w3.org/1999/xlink" x="0px" y="0px"
	 width="30px" height="30px" viewBox="0 0 30 30" enable-background="new 0 0 30 30" xml:space="preserve">
<g>
	<path fill="#3C3C3C" d="M21.315,12.103V6.106c0-3.367-2.95-6.106-6.579-6.106C11.11,0,8.157,2.739,8.157,6.106v5.997H3.422V30
		h23.156V12.103H21.315z M9.211,6.106c0-2.786,2.478-5.052,5.525-5.052s5.527,2.266,5.527,5.052v5.997H9.211V6.106z M25.527,28.945
		H4.476v-2.104h21.052V28.945z M4.476,25.787v-12.63h21.052v12.63H4.476z M4.476,25.787"/>
	<path fill="#3C3C3C" d="M15.001,16.315c-1.161,0-2.107,0.943-2.107,2.104v3.158c0,1.162,0.946,2.104,2.107,2.104
		c1.159,0,2.104-0.942,2.104-2.104V18.42C17.105,17.259,16.16,16.315,15.001,16.315L15.001,16.315z M16.052,21.578
		c0,0.581-0.473,1.051-1.051,1.051c-0.581,0-1.054-0.47-1.054-1.051V18.42c0-0.581,0.473-1.054,1.054-1.054
		c0.578,0,1.051,0.473,1.051,1.054V21.578z M16.052,21.578"/>
</g>
</svg>
