<svg xmlns="http://www.w3.org/2000/svg" x="0px" y="0px" width="24px" height="24px" viewBox="3 3 24 24" enable-background="new 3 3 24 24" xml:space="preserve"><path fill="#555" d="M13.86 14.986L3.229 25.617a.776.776 0 0 0 0 1.082.761.761 0 0 0 1.072 0l10.723-10.725 10.687 10.742a.747.747 0 0 0 1.062 0 .746.746 0 0 0 0-1.072L16.142 15.013 26.773 4.382c.303-.275.303-.77 0-1.063-.275-.294-.771-.294-1.062 0L14.987 14.042 4.292 3.283a.764.764 0 0 0-1.072 0 .764.764 0 0 0 0 1.072l10.63 10.631h.01z"/></svg>
