<svg xmlns="http://www.w3.org/2000/svg" x="0px" y="0px" width="24px" height="24px" viewBox="4 4 24 24" enable-background="new 4 4 24 24" xml:space="preserve"><path fill="#555" d="M27.859 27.179l-8.488-8.487a8.77 8.77 0 0 0 2.259-5.877A8.815 8.815 0 0 0 12.815 4a8.815 8.815 0 1 0 0 17.629 8.76 8.76 0 0 0 5.876-2.259l8.488 8.486a.478.478 0 0 0 .68 0 .477.477 0 0 0 0-.677zM4.962 12.814c0-4.33 3.522-7.853 7.853-7.853 4.33 0 7.852 3.522 7.852 7.853s-3.522 7.854-7.852 7.854c-4.331 0-7.853-3.523-7.853-7.854z"/></svg>
