<?xml version="1.0" encoding="utf-8"?>
<!-- Generator: Adobe Illustrator 24.1.0, SVG Export Plug-In . SVG Version: 6.00 Build 0)  -->
<svg version="1.1" id="Layer_1" xmlns="http://www.w3.org/2000/svg" xmlns:xlink="http://www.w3.org/1999/xlink" x="0px" y="0px"
	 viewBox="0 0 29 29" style="enable-background:new 0 0 29 29;" xml:space="preserve">
<style type="text/css">
	.st0{fill:none;}
</style>
<g id="Group_1246" transform="translate(-10 -10)">
	<g id="Group_1245" transform="translate(10.081 15.703)">
		<g id="Group_1244" transform="translate(0 15.988)">
			<path id="Path_2787" d="M3.16,0L0.2,5.13c-0.4,0.69-0.16,1.58,0.53,1.98C0.95,7.24,1.2,7.3,1.45,7.3h25.93
				c0.8,0,1.45-0.65,1.45-1.45c0-0.25-0.07-0.5-0.19-0.72L25.68,0H3.16z"/>
		</g>
		<path id="Path_2788" d="M24.22,0H4.61c-0.8,0-1.45,0.65-1.45,1.45l0,0v13.19h22.52V1.45C25.68,0.65,25.03,0,24.22,0
			C24.23,0,24.22,0,24.22,0z M17.11,8.56l-3.38,1.82c-0.66,0.35-1.48,0.11-1.83-0.55c-0.11-0.2-0.16-0.42-0.16-0.64V5.44
			c0-0.75,0.6-1.35,1.35-1.35c0.24,0,0.47,0.06,0.67,0.18l3.38,1.93c0.65,0.37,0.87,1.2,0.5,1.84C17.52,8.26,17.33,8.44,17.11,8.56z
			"/>
	</g>
	<rect id="Rectangle_852" x="10" y="10" class="st0" width="29" height="29"/>
</g>
</svg>
