<?xml version="1.0" encoding="utf-8"?>
<!-- Generator: Adobe Illustrator 15.0.0, SVG Export Plug-In . SVG Version: 6.00 Build 0)  -->
<!DOCTYPE svg PUBLIC "-//W3C//DTD SVG 1.1//EN" "http://www.w3.org/Graphics/SVG/1.1/DTD/svg11.dtd">
<svg version="1.1" id="Layer_1" xmlns="http://www.w3.org/2000/svg" xmlns:xlink="http://www.w3.org/1999/xlink" x="0px" y="0px"
	 width="24px" height="24px" viewBox="4 4 24 24" enable-background="new 4 4 24 24" xml:space="preserve">
<g>
	<g id="custom_1">
		<g id="video-conference_1_">
			<g id="Agrupar_150" transform="translate(12.547 20.279)">
				<g id="Agrupar_149">
					<path id="Caminho_57" fill="#FFFFFF" d="M2.519,0.45c-0.183-0.183-0.479-0.182-0.662,0C1.675,0.634,1.675,0.93,1.858,1.114
						C2.041,1.296,2.337,1.295,2.52,1.113c0.087-0.088,0.137-0.206,0.137-0.331C2.657,0.658,2.607,0.538,2.519,0.45z"/>
				</g>
			</g>
			<g id="Agrupar_152" transform="translate(0 3.093)">
				<g id="Agrupar_151">
					<path id="Caminho_58" fill="#FFFFFF" d="M25,13.469c-0.259,0-0.47,0.21-0.47,0.469v2.062h-8.062v-1.157
						c-0.002-1.764-1.316-3.251-3.066-3.471c0.353-0.435,0.546-0.978,0.546-1.539V6.536c0-0.259-0.21-0.468-0.469-0.468l0,0h-2.455
						C9.934,6.069,9.051,6.952,9.049,8.043v1.791c0,0.561,0.192,1.104,0.546,1.539c-1.749,0.222-3.061,1.708-3.063,3.471v1.157
						H4.938V4.739c0.001-0.201,0.165-0.364,0.366-0.363h9.742c0.259,0,0.469-0.21,0.469-0.469c0-0.259-0.21-0.469-0.469-0.47h0
						H5.303C4.584,3.437,4.001,4.02,4,4.739v13.898c0.001,0.719,0.584,1.301,1.303,1.301h7.133V22.1
						c-1.197,0.124-2.107,1.131-2.109,2.334c0,0.26,0.21,0.47,0.469,0.47h7.875c0.258,0,0.469-0.21,0.469-0.47
						c-0.002-1.203-0.912-2.21-2.108-2.334v-2.163h7.134c0.718,0,1.301-0.582,1.302-1.301v-4.698
						C25.468,13.679,25.259,13.469,25,13.469z M9.989,8.043c0.001-0.573,0.466-1.037,1.039-1.038h1.984v0.749
						c0,0.372-0.302,0.674-0.674,0.674H9.989V8.043z M9.989,9.365h2.349c0.233,0,0.463-0.05,0.674-0.148v0.617l0,0
						c0,0.834-0.677,1.511-1.511,1.511s-1.512-0.676-1.512-1.511V9.365z M12.047,12.282L11.5,12.829l-0.545-0.547H12.047z
						 M7.465,14.844c0-1.271,0.93-2.349,2.187-2.537l1.513,1.514c0.184,0.182,0.48,0.182,0.663,0l1.514-1.514
						c1.256,0.188,2.186,1.266,2.186,2.537v1.157H7.469L7.465,14.844z M18.123,23.969h-6.777c0.199-0.562,0.73-0.938,1.327-0.94
						h4.118C17.39,23.028,17.924,23.405,18.123,23.969z M13.377,22.087v-2.149h2.72v2.153L13.377,22.087z M24.535,18.633
						c-0.002,0.201-0.165,0.363-0.366,0.362H5.303c-0.201,0.001-0.365-0.161-0.366-0.362v-1.694H24.53L24.535,18.633z"/>
				</g>
			</g>
			<g id="Agrupar_154" transform="translate(25.093 13.196)">
				<g id="Agrupar_153">
					<path id="Caminho_59" fill="#FFFFFF" d="M0.237,1.739c-0.182-0.184-0.479-0.183-0.662,0c-0.183,0.183-0.183,0.48,0.001,0.663
						c0.183,0.183,0.479,0.183,0.662,0C0.326,2.313,0.376,2.194,0.376,2.07C0.375,1.946,0.325,1.826,0.237,1.739z"/>
				</g>
			</g>
			<g id="Agrupar_156" transform="translate(20.797 2.693)">
				<g id="Agrupar_155">
					<path id="Caminho_60" fill="#FFFFFF" d="M4.204,3.51H0.685c-0.259,0-0.469,0.21-0.469,0.469
						C0.216,4.238,0.426,4.448,0.684,4.448c0.001,0,0.001,0,0.001,0h3.519c0.259,0,0.469-0.21,0.469-0.469S4.463,3.511,4.204,3.51z"
						/>
				</g>
			</g>
			<g id="Agrupar_158" transform="translate(18.448 2.693)">
				<g id="Agrupar_157">
					<path id="Caminho_61" fill="#FFFFFF" d="M1.447,3.648c-0.184-0.183-0.48-0.183-0.664,0c-0.182,0.183-0.182,0.48,0.001,0.663
						s0.48,0.183,0.663,0c0.088-0.088,0.137-0.208,0.137-0.332C1.583,3.855,1.534,3.736,1.447,3.648z"/>
				</g>
			</g>
			<g id="Agrupar_160" transform="translate(18.448 5.213)">
				<g id="Agrupar_159">
					<path id="Caminho_62" fill="#FFFFFF" d="M6.553,3.052H1.115c-0.258,0-0.469,0.21-0.469,0.469c0,0.259,0.211,0.468,0.469,0.468
						h5.438c0.259,0,0.469-0.209,0.469-0.468C7.022,3.262,6.812,3.052,6.553,3.052z"/>
				</g>
			</g>
			<g id="Agrupar_162" transform="translate(18.448 7.734)">
				<g id="Agrupar_161">
					<path id="Caminho_63" fill="#FFFFFF" d="M6.553,2.594H1.115c-0.258,0.001-0.467,0.211-0.467,0.47
						c0,0.258,0.209,0.467,0.467,0.468h5.438c0.259-0.001,0.468-0.211,0.467-0.47C7.02,2.804,6.811,2.595,6.553,2.594z"/>
				</g>
			</g>
			<g id="Agrupar_164" transform="translate(15.354)">
				<g id="Agrupar_163">
					<path id="Caminho_64" fill="#FFFFFF" d="M10.301,4H3.552C2.257,4.001,1.209,5.05,1.208,6.344v5.012
						c0.002,1.191,0.895,2.191,2.078,2.328v1.223c0,0.259,0.21,0.468,0.469,0.468c0.125,0,0.244-0.049,0.332-0.137l1.534-1.535
						h4.681c1.296-0.001,2.345-1.052,2.344-2.347V6.344C12.645,5.05,11.596,4.001,10.301,4z M11.708,11.356
						c-0.001,0.776-0.63,1.405-1.407,1.406H5.427c-0.125,0-0.243,0.049-0.331,0.137l-0.872,0.871v-0.533
						c0-0.259-0.21-0.469-0.469-0.469H3.552c-0.777-0.001-1.406-0.632-1.406-1.41c0-0.001,0-0.002,0-0.003V6.344
						c0.001-0.776,0.63-1.406,1.406-1.407h6.75c0.777,0.001,1.406,0.63,1.406,1.407V11.356z"/>
				</g>
			</g>
		</g>
	</g>
</g>
</svg>
