<svg xmlns="http://www.w3.org/2000/svg" x="0px" y="0px" width="24px" height="24px" viewBox="3 3 24 24" enable-background="new 3 3 24 24" xml:space="preserve"><path fill="#555" d="M15 18.158a3.774 3.774 0 0 0 3.777-3.789l.014-7.58A3.785 3.785 0 0 0 15.001 3a3.784 3.784 0 0 0-3.79 3.789v7.58A3.784 3.784 0 0 0 15 18.158zm6.695-3.789c0 3.789-3.209 6.441-6.695 6.441-3.487 0-6.695-2.651-6.695-6.441H6.158c0 4.307 3.437 7.869 7.58 8.488V27h2.526v-4.143c4.141-.606 7.578-4.169 7.578-8.488h-2.147z"/></svg>
