<svg xmlns="http://www.w3.org/2000/svg" x="0px" y="0px" width="14px" height="14px" viewBox="0 0 14 14" enable-background="new 0 0 14 14" xml:space="preserve"><g><path d="M7 0C3.134 0 0 3.134 0 7c0 3.865 3.134 7 7 7s7-3.135 7-7c0-3.866-3.134-7-7-7zm0 12.799c-3.198 0-5.8-2.602-5.8-5.799 0-3.198 2.602-5.8 5.8-5.8s5.8 2.602 5.8 5.8c0 3.197-2.602 5.799-5.8 5.799z"/><path d="M8.842 6.576L6.007 3.742c-.234-.234-.614-.234-.849 0s-.234.614 0 .849l2.41 2.41-2.41 2.41c-.234.233-.234.614 0 .848a.5991.5991 0 0 0 .848 0L8.84 7.425a.5993.5993 0 0 0 .002-.849z"/></g></svg>
