<?xml version="1.0" encoding="utf-8"?>
<!-- Generator: Adobe Illustrator 15.0.0, SVG Export Plug-In . SVG Version: 6.00 Build 0)  -->
<!DOCTYPE svg PUBLIC "-//W3C//DTD SVG 1.1//EN" "http://www.w3.org/Graphics/SVG/1.1/DTD/svg11.dtd">
<svg version="1.1" id="Layer_1" xmlns="http://www.w3.org/2000/svg" xmlns:xlink="http://www.w3.org/1999/xlink" x="0px" y="0px"
	 width="140px" height="38px" viewBox="-47.562 -7 140 38" enable-background="new -47.562 -7 140 38" xml:space="preserve">
<g>
	<path fill="#555555" d="M-1.025,5.047l0.158,1.066l0.035,0.006l0.229-1.072l1.564-5.578h1.02l1.576,5.578l0.234,1.096h0.035
		l0.17-1.096l1.271-5.578h1.154L4.365,8H3.334L1.652,2.082L1.5,1.314H1.465L1.318,2.082L-0.393,8h-1.031l-2.051-8.531h1.148
		L-1.025,5.047z"/>
	<path fill="#555555" d="M14.314,8H13.16V4.232H9.018V8H7.863v-8.531h1.154v3.855h4.143v-3.855h1.154V8z"/>
	<path fill="#555555" d="M21.152,5.803h-3.574L16.77,8h-1.178l3.299-8.531h0.99L23.127,8h-1.178L21.152,5.803z M17.936,4.836h2.871
		L19.4,0.951h-0.035L17.936,4.836z"/>
	<path fill="#555555" d="M30.076,0.377h-2.742V8H26.18V0.377h-2.736v-0.908h6.633V0.377z"/>
	<path fill="#555555" d="M35.883,5.852c0-0.388-0.146-0.713-0.439-0.976c-0.293-0.262-0.812-0.482-1.559-0.661
		C32.982,4,32.278,3.683,31.772,3.264s-0.759-0.946-0.759-1.58c0-0.666,0.272-1.222,0.817-1.668s1.251-0.67,2.118-0.67
		c0.934,0,1.677,0.256,2.229,0.768s0.819,1.105,0.8,1.781L36.967,1.93h-1.102c0-0.5-0.165-0.904-0.495-1.213
		s-0.804-0.463-1.421-0.463c-0.574,0-1.015,0.13-1.321,0.39s-0.46,0.599-0.46,1.017c0,0.371,0.166,0.681,0.498,0.929
		s0.871,0.466,1.617,0.653c0.898,0.223,1.582,0.551,2.051,0.984s0.703,0.971,0.703,1.611c0,0.688-0.281,1.24-0.844,1.658
		s-1.297,0.627-2.203,0.627c-0.852,0-1.604-0.231-2.259-0.694s-0.972-1.081-0.952-1.854l0.012-0.035h1.102
		c0,0.547,0.201,0.963,0.604,1.248s0.9,0.428,1.494,0.428c0.582,0,1.043-0.122,1.383-0.367C35.713,6.604,35.883,6.271,35.883,5.852z
		"/>
	<path fill="#555555" d="M43.342,5.803h-3.574L38.959,8h-1.178l3.299-8.531h0.99L45.316,8h-1.178L43.342,5.803z M40.125,4.836h2.871
		L41.59,0.951h-0.035L40.125,4.836z"/>
	<path fill="#555555" d="M47.643,4.578V8h-1.154v-8.531h3.264c0.91,0,1.617,0.234,2.121,0.703s0.756,1.086,0.756,1.852
		c0,0.777-0.252,1.397-0.756,1.86s-1.211,0.694-2.121,0.694H47.643z M47.643,3.67h2.109c0.578,0,1.01-0.155,1.295-0.465
		c0.285-0.311,0.428-0.701,0.428-1.173s-0.144-0.865-0.431-1.182c-0.287-0.315-0.718-0.474-1.292-0.474h-2.109V3.67z"/>
	<path fill="#555555" d="M55.33,4.578V8h-1.154v-8.531h3.264c0.91,0,1.617,0.234,2.121,0.703s0.756,1.086,0.756,1.852
		c0,0.777-0.252,1.397-0.756,1.86s-1.211,0.694-2.121,0.694H55.33z M55.33,3.67h2.109c0.578,0,1.01-0.155,1.295-0.465
		c0.285-0.311,0.428-0.701,0.428-1.173s-0.144-0.865-0.431-1.182c-0.287-0.315-0.718-0.474-1.292-0.474H55.33V3.67z"/>
	<path fill="#555555" d="M3.293,20.264l0.012,0.035c0.016,0.801-0.266,1.472-0.844,2.013s-1.342,0.812-2.291,0.812
		c-0.965,0-1.751-0.342-2.358-1.025S-3.1,20.547-3.1,19.496v-1.518c0-1.051,0.304-1.919,0.911-2.604s1.394-1.028,2.358-1.028
		s1.732,0.257,2.303,0.771s0.848,1.194,0.832,2.042l-0.012,0.035H2.186c0-0.598-0.176-1.07-0.527-1.418s-0.848-0.521-1.488-0.521
		c-0.645,0-1.158,0.26-1.541,0.778c-0.383,0.52-0.574,1.163-0.574,1.933v1.527c0,0.777,0.191,1.425,0.574,1.944
		c0.383,0.519,0.896,0.778,1.541,0.778c0.641,0,1.137-0.173,1.488-0.519s0.527-0.823,0.527-1.433H3.293z"/>
	<path fill="#555555" d="M6.018,22.092h4.037V23H4.863v-8.531h1.154V22.092z"/>
	<path fill="#555555" d="M12.562,23h-1.16v-8.531h1.16V23z"/>
	<path fill="#555555" d="M21.193,19.496c0,0.555-0.098,1.068-0.293,1.541s-0.469,0.873-0.82,1.201l1.447,1.365l-0.791,0.756
		l-1.617-1.506c-0.219,0.09-0.446,0.157-0.683,0.202s-0.479,0.067-0.729,0.067c-0.996,0-1.806-0.344-2.429-1.031
		s-0.935-1.553-0.935-2.596v-1.518c0-1.039,0.312-1.904,0.935-2.596s1.433-1.037,2.429-1.037c1.031,0,1.87,0.345,2.517,1.034
		s0.97,1.556,0.97,2.599V19.496z M20.039,17.967c0-0.781-0.211-1.422-0.633-1.922s-0.988-0.75-1.699-0.75
		c-0.672,0-1.208,0.25-1.608,0.75s-0.601,1.141-0.601,1.922v1.529c0,0.789,0.2,1.434,0.601,1.934s0.937,0.75,1.608,0.75
		c0.715,0,1.282-0.249,1.702-0.747s0.63-1.144,0.63-1.937V17.967z"/>
	<path fill="#555555" d="M29.15,14.469v5.783c0,0.93-0.302,1.641-0.905,2.133s-1.392,0.738-2.364,0.738
		c-0.938,0-1.698-0.247-2.282-0.741s-0.876-1.204-0.876-2.13v-5.783h1.154v5.779c0,0.644,0.184,1.133,0.551,1.466
		c0.367,0.334,0.852,0.501,1.453,0.501c0.633,0,1.144-0.167,1.532-0.501c0.389-0.333,0.583-0.822,0.583-1.466v-5.779H29.15z"/>
	<path fill="#555555" d="M36.1,19.045h-3.908v3.047h4.506V23h-5.66v-8.531h5.596v0.908h-4.441v2.76H36.1V19.045z"/>
	<path fill="#555555" d="M42.188,19.578V23h-1.154v-8.531h3.264c0.91,0,1.617,0.234,2.121,0.703s0.756,1.086,0.756,1.852
		c0,0.777-0.252,1.397-0.756,1.86s-1.211,0.694-2.121,0.694H42.188z M42.188,18.67h2.109c0.578,0,1.01-0.155,1.295-0.465
		c0.285-0.311,0.428-0.701,0.428-1.173s-0.144-0.865-0.431-1.182c-0.287-0.315-0.718-0.474-1.292-0.474h-2.109V18.67z"/>
	<path fill="#555555" d="M48.744,23.732H47.76l3.562-9.264h0.979L48.744,23.732z"/>
	<path fill="#555555" d="M61.729,19.227h-3.891V23h-1.154v-8.531h5.643v0.908h-4.488v2.941h3.891V19.227z"/>
	<path fill="#555555" d="M67.951,20.803h-3.574L63.568,23h-1.178l3.299-8.531h0.99L69.926,23h-1.178L67.951,20.803z M64.734,19.836
		h2.871l-1.406-3.885h-0.035L64.734,19.836z"/>
	<path fill="#555555" d="M72.252,22.092h4.037V23h-5.191v-8.531h1.154V22.092z"/>
	<path fill="#555555" d="M82.312,20.803h-3.574L77.93,23h-1.178l3.299-8.531h0.99L84.287,23h-1.178L82.312,20.803z M79.096,19.836
		h2.871l-1.406-3.885h-0.035L79.096,19.836z"/>
	<path fill="#555555" d="M86.613,19.303V23h-1.154v-8.525h3.088c0.934,0,1.646,0.207,2.139,0.621s0.738,1.016,0.738,1.805
		c0,0.438-0.114,0.818-0.343,1.143s-0.562,0.582-0.999,0.773c0.469,0.152,0.806,0.399,1.011,0.741s0.308,0.765,0.308,1.269v0.803
		c0,0.266,0.029,0.504,0.088,0.715s0.16,0.383,0.305,0.516V23h-1.189c-0.152-0.133-0.25-0.328-0.293-0.586s-0.064-0.523-0.064-0.797
		v-0.779c0-0.461-0.135-0.832-0.404-1.113s-0.631-0.422-1.084-0.422H86.613z M86.613,18.395h1.816c0.652,0,1.122-0.124,1.409-0.371
		c0.287-0.248,0.431-0.625,0.431-1.132c0-0.479-0.14-0.851-0.419-1.114c-0.279-0.263-0.714-0.395-1.304-0.395h-1.934V18.395z"/>
</g>
<g>
	<circle fill="#1BD741" cx="-28.562" cy="12" r="19"/>
	<g>
		<path fill="#FFFFFF" d="M-22.963,14.025c-0.293-0.131-1.705-0.826-1.973-0.934s-0.453-0.135-0.641,0.135
			c-0.188,0.293-0.746,0.934-0.906,1.119c-0.16,0.187-0.348,0.215-0.613,0.08c-0.293-0.135-1.227-0.453-2.32-1.412
			c-0.854-0.749-1.439-1.708-1.601-1.975c-0.16-0.293-0.026-0.454,0.134-0.587c0.133-0.133,0.293-0.348,0.426-0.508
			c0.134-0.159,0.188-0.293,0.293-0.479c0.106-0.187,0.055-0.347-0.025-0.507c-0.08-0.133-0.641-1.546-0.879-2.133
			c-0.24-0.56-0.479-0.48-0.641-0.48c-0.16,0-0.375-0.025-0.561-0.025c-0.188,0-0.508,0.08-0.773,0.347
			c-0.268,0.293-1.015,0.986-1.015,2.399c0,1.412,1.041,2.773,1.175,2.959c0.133,0.187,2,3.174,4.932,4.321
			c2.935,1.146,2.935,0.771,3.468,0.721c0.534-0.056,1.707-0.693,1.946-1.36c0.214-0.64,0.214-1.2,0.134-1.333
			C-22.483,14.266-22.67,14.188-22.963,14.025z"/>
		<path fill="#FFFFFF" d="M-28.35,0c-6.506,0-11.787,5.227-11.76,11.707c0,2.188,0.613,4.266,1.68,6.025L-40.562,24l6.506-2.107
			c1.749,0.963,3.712,1.467,5.707,1.467c6.508,0,11.787-5.227,11.787-11.679C-16.562,5.227-21.842,0-28.35,0z M-28.32,22.395
			c-1.965,0.006-3.893-0.533-5.571-1.556l-5.155,1.683l1.7-4.989c-1.161-1.73-1.78-3.769-1.774-5.852
			c0-5.895,4.818-10.687,10.772-10.687s10.804,4.763,10.804,10.687C-17.545,17.604-22.396,22.395-28.32,22.395z"/>
	</g>
</g>
</svg>
