<?xml version="1.0" encoding="utf-8"?>
<!-- Generator: Adobe Illustrator 15.0.0, SVG Export Plug-In . SVG Version: 6.00 Build 0)  -->
<!DOCTYPE svg PUBLIC "-//W3C//DTD SVG 1.1//EN" "http://www.w3.org/Graphics/SVG/1.1/DTD/svg11.dtd">
<svg version="1.1" id="Layer_1" xmlns="http://www.w3.org/2000/svg" xmlns:xlink="http://www.w3.org/1999/xlink" x="0px" y="0px"
	 width="24px" height="24px" viewBox="0 0 24 24" enable-background="new 0 0 24 24" xml:space="preserve">
<g>
	<path fill="#1BD741" d="M17.6,14.025c-0.293-0.131-1.705-0.826-1.973-0.934s-0.453-0.135-0.641,0.135
		c-0.188,0.293-0.746,0.934-0.906,1.119c-0.16,0.187-0.348,0.215-0.613,0.08c-0.293-0.135-1.227-0.453-2.32-1.412
		c-0.854-0.749-1.44-1.708-1.601-1.975c-0.16-0.293-0.026-0.454,0.134-0.587c0.133-0.133,0.293-0.348,0.426-0.508
		c0.133-0.159,0.188-0.293,0.293-0.479c0.106-0.187,0.054-0.347-0.026-0.507c-0.08-0.133-0.64-1.546-0.879-2.133
		c-0.24-0.56-0.479-0.48-0.64-0.48S8.479,6.32,8.293,6.32c-0.188,0-0.508,0.08-0.773,0.347C7.252,6.96,6.505,7.653,6.505,9.066
		c0,1.412,1.041,2.773,1.174,2.959c0.133,0.187,2,3.174,4.932,4.321c2.935,1.146,2.935,0.771,3.468,0.721
		c0.534-0.056,1.707-0.693,1.946-1.36c0.214-0.64,0.214-1.2,0.134-1.333C18.079,14.266,17.893,14.188,17.6,14.025z"/>
	<path fill="#1BD741" d="M12.213,0C5.707,0,0.426,5.227,0.453,11.707c0,2.188,0.613,4.266,1.68,6.025L0,24l6.506-2.107
		c1.749,0.963,3.712,1.467,5.707,1.467C18.721,23.359,24,18.133,24,11.68C24,5.227,18.721,0,12.213,0z M12.242,22.395
		c-1.965,0.006-3.893-0.533-5.571-1.556l-5.156,1.683l1.701-4.989c-1.162-1.73-1.78-3.769-1.775-5.852
		c0-5.895,4.819-10.687,10.773-10.687S23.018,5.756,23.018,11.68C23.018,17.604,18.166,22.395,12.242,22.395z"/>
</g>
</svg>
