<?xml version="1.0" encoding="utf-8"?>
<!-- Generator: Adobe Illustrator 15.0.0, SVG Export Plug-In . SVG Version: 6.00 Build 0)  -->
<!DOCTYPE svg PUBLIC "-//W3C//DTD SVG 1.1//EN" "http://www.w3.org/Graphics/SVG/1.1/DTD/svg11.dtd">
<svg version="1.1" id="Capa_1" xmlns="http://www.w3.org/2000/svg" xmlns:xlink="http://www.w3.org/1999/xlink" x="0px" y="0px"
	 width="512px" height="512px" viewBox="0 0 512 512" enable-background="new 0 0 512 512" xml:space="preserve">
<g>
	<path fill="#707070" d="M256,0C114.609,0,0,114.609,0,256c0,141.393,114.609,256,256,256c141.392,0,256-114.607,256-256
		C512,114.609,397.393,0,256,0z M256,482.801C130.739,482.801,29.2,381.264,29.2,256C29.2,130.738,130.738,29.2,256,29.2
		c125.263,0,226.801,101.538,226.801,226.8C482.801,381.264,381.264,482.801,256,482.801z"/>
</g>
<path fill="#707070" d="M256.066,157c0.635,0,63.89,0.038,105.693,3.254c0.565,0.065,1.182,0.128,1.837,0.195
	c5.673,0.572,12.104,1.221,18.521,8.382c0.058,0.065,0.116,0.129,0.175,0.192c3.676,3.971,7.025,16.226,8.05,23.6
	c0.239,2.12,2.947,26.678,2.947,50.938v24.8c0,24.168-2.704,48.771-2.946,50.929c-1.031,7.399-4.375,19.618-8.041,23.571
	c-0.062,0.066-0.123,0.133-0.183,0.199c-6.395,7.133-12.82,7.805-18.491,8.396c-0.68,0.07-1.314,0.141-1.899,0.209
	c-41.085,3.126-102.953,3.324-105.667,3.331c-3.151-0.032-78.17-0.819-102.034-3.14c-1.421-0.252-2.865-0.438-4.379-0.631
	c-6.59-0.847-14.059-1.805-19.771-8.179c-0.061-0.065-0.121-0.134-0.182-0.198c-3.669-3.957-7.01-16.188-8.031-23.554
	c-0.237-2.106-2.948-26.741-2.948-50.948v-24.8c0-24.262,2.727-48.971,2.949-50.949c0.976-7.182,4.374-19.617,8.044-23.585
	c0.056-0.06,0.111-0.121,0.166-0.182c6.425-7.166,12.853-7.815,18.524-8.388c0.657-0.066,1.271-0.129,1.835-0.194
	c41.768-3.211,105.046-3.25,105.682-3.25H256.066 M256.066,141h-0.149c0,0-64.351,0-107.241,3.327
	c-5.99,0.734-19.046,0.814-30.715,13.828c-9.182,9.929-12.176,32.479-12.176,32.479s-3.07,26.458-3.07,52.919v24.8
	c0,26.477,3.07,52.934,3.07,52.934s2.985,22.535,12.176,32.445c11.669,13.02,26.98,12.625,33.803,13.982
	C176.283,370.225,256,371,256,371s64.416-0.113,107.316-3.406c5.988-0.769,19.055-0.843,30.715-13.852
	c9.189-9.911,12.186-32.456,12.186-32.456s3.07-26.457,3.07-52.925v-24.799c0-26.471-3.07-52.929-3.07-52.929
	s-2.994-22.55-12.186-32.479c-11.66-13.014-24.727-13.093-30.715-13.828C320.416,141,256.066,141,256.066,141L256.066,141z"/>
<path fill="#707070" d="M217.714,198.5v114.999L313.547,256L217.714,198.5L217.714,198.5z"/>
</svg>
