<?xml version="1.0" encoding="utf-8"?>
<!-- Generator: Adobe Illustrator 15.0.0, SVG Export Plug-In . SVG Version: 6.00 Build 0)  -->
<!DOCTYPE svg PUBLIC "-//W3C//DTD SVG 1.1//EN" "http://www.w3.org/Graphics/SVG/1.1/DTD/svg11.dtd">
<svg version="1.1" xmlns="http://www.w3.org/2000/svg" xmlns:xlink="http://www.w3.org/1999/xlink" x="0px" y="0px" width="32px"
	 height="32px" viewBox="240 240 32 32" enable-background="new 240 240 32 32" xml:space="preserve">
<g id="Capa_1">
</g>
<g id="Layer_2">
	<g>
		<path fill="#1BD741" d="M263.467,258.702c-0.392-0.177-2.276-1.103-2.631-1.244c-0.356-0.143-0.604-0.179-0.854,0.178
			c-0.25,0.391-0.996,1.244-1.209,1.493s-0.463,0.285-0.818,0.107c-0.391-0.179-1.635-0.605-3.093-1.885
			c-1.137-0.996-1.92-2.276-2.133-2.631c-0.213-0.391-0.035-0.604,0.177-0.783c0.178-0.177,0.392-0.462,0.569-0.675
			c0.178-0.214,0.25-0.392,0.392-0.641c0.142-0.249,0.07-0.462-0.036-0.675c-0.106-0.178-0.853-2.062-1.173-2.844
			c-0.32-0.747-0.64-0.641-0.853-0.641c-0.214,0-0.499-0.035-0.747-0.035c-0.249,0-0.676,0.106-1.031,0.462
			c-0.356,0.391-1.352,1.315-1.352,3.2s1.388,3.698,1.565,3.947c0.178,0.248,2.667,4.231,6.579,5.759
			c3.91,1.53,3.91,1.031,4.621,0.961c0.713-0.071,2.276-0.925,2.597-1.814c0.284-0.853,0.284-1.6,0.177-1.777
			C264.106,259.021,263.857,258.916,263.467,258.702z"/>
		<path fill="#1BD741" d="M256.284,240c-8.675,0-15.715,6.969-15.68,15.609c0,2.916,0.817,5.688,2.24,8.035L240,272l8.675-2.81
			c2.277,1.245,4.872,1.956,7.609,1.956c8.677,0,15.716-6.969,15.716-15.573S264.961,240,256.284,240z M256.323,269.859
			c-2.71,0-5.247-0.748-7.429-2.074l-6.875,2.243l2.268-6.654c-1.502-2.251-2.367-4.907-2.367-7.802
			c0-7.86,6.426-14.249,14.364-14.249s14.404,6.35,14.404,14.249S264.221,269.859,256.323,269.859z"/>
	</g>
</g>
</svg>
