<?xml version="1.0" encoding="utf-8"?>
<!-- Generator: Adobe Illustrator 15.0.0, SVG Export Plug-In . SVG Version: 6.00 Build 0)  -->
<!DOCTYPE svg PUBLIC "-//W3C//DTD SVG 1.1//EN" "http://www.w3.org/Graphics/SVG/1.1/DTD/svg11.dtd">
<svg version="1.1" xmlns="http://www.w3.org/2000/svg" xmlns:xlink="http://www.w3.org/1999/xlink" x="0px" y="0px" width="42px"
	 height="32px" viewBox="235 240 42 32" enable-background="new 235 240 42 32" xml:space="preserve">
<g id="Capa_1">
</g>
<g id="Layer_2">
	<g>
		<path fill="#1BD741" d="M269.533,258.364c-0.342-0.155-1.991-0.964-2.302-1.089c-0.312-0.124-0.529-0.156-0.747,0.156
			c-0.219,0.342-0.871,1.088-1.058,1.307c-0.187,0.218-0.405,0.248-0.716,0.094c-0.342-0.156-1.431-0.529-2.706-1.649
			c-0.995-0.872-1.681-1.992-1.867-2.303c-0.187-0.342-0.03-0.529,0.155-0.685c0.156-0.155,0.343-0.405,0.498-0.591
			c0.156-0.188,0.219-0.343,0.343-0.561s0.062-0.404-0.031-0.591c-0.093-0.155-0.747-1.805-1.026-2.489
			c-0.281-0.653-0.561-0.56-0.747-0.56s-0.437-0.031-0.653-0.031s-0.592,0.093-0.902,0.404c-0.311,0.343-1.183,1.151-1.183,2.801
			c0,1.648,1.214,3.235,1.369,3.453s2.333,3.703,5.756,5.039c3.422,1.339,3.422,0.902,4.044,0.841
			c0.623-0.062,1.992-0.81,2.271-1.587c0.249-0.746,0.249-1.4,0.155-1.556C270.093,258.645,269.875,258.551,269.533,258.364z"/>
		<path fill="#1BD741" d="M263.249,242c-7.591,0-13.751,6.098-13.72,13.658c0,2.551,0.715,4.978,1.96,7.031L249,270l7.591-2.458
			c1.991,1.089,4.263,1.712,6.658,1.712c7.591,0,13.751-6.098,13.751-13.628C277,248.098,270.84,242,263.249,242z M263.281,268.002
			c-2.383,0-4.611-0.671-6.521-1.852l-5.754,1.881l1.898-5.578c-1.33-1.963-2.098-4.291-2.098-6.828
			c0-6.809,5.567-12.342,12.442-12.342c6.876,0,12.477,5.5,12.477,12.342C275.725,262.466,270.124,268.002,263.281,268.002z"/>
	</g>
</g>
</svg>
