<svg xmlns="http://www.w3.org/2000/svg" x="0px" y="0px" width="24px" height="24px" viewBox="3 3 24 24" enable-background="new 3 3 24 24" xml:space="preserve"><g fill="#555"><path d="M26.453 23.734c-1.513-4.89-6.064-8.444-11.452-8.444C8.471 15.291 3.17 20.51 3.015 27h.961c.155-5.953 5.035-10.75 11.023-10.75 5.232 0 9.617 3.66 10.749 8.555l.705-1.071zM14.999 3.96c2.779 0 5.041 2.261 5.041 5.04s-2.262 5.04-5.041 5.04c-2.778 0-5.039-2.261-5.039-5.04s2.261-5.04 5.039-5.04m0-.96a6 6 0 1 0 .003 12.001A6 6 0 0 0 15 3z"/></g><circle fill="#AAA" cx="22" cy="21.992" r="5"/><path fill="#FFF" d="M19.468 24.992l2.316-3.13-2.041-2.869h.944l1.09 1.534c.229.322.384.567.482.736.131-.215.292-.445.477-.69l1.204-1.589h.867l-2.11 2.824 2.272 3.177h-.975l-1.513-2.148c-.075-.114-.177-.245-.261-.384-.138.208-.23.361-.292.445l-1.503 2.087h-.959v.007z"/></svg>
