<?xml version="1.0" encoding="utf-8"?>
<!-- Generator: Adobe Illustrator 15.0.0, SVG Export Plug-In . SVG Version: 6.00 Build 0)  -->
<!DOCTYPE svg PUBLIC "-//W3C//DTD SVG 1.1//EN" "http://www.w3.org/Graphics/SVG/1.1/DTD/svg11.dtd">
<svg version="1.1" id="Capa_1" xmlns="http://www.w3.org/2000/svg" xmlns:xlink="http://www.w3.org/1999/xlink" x="0px" y="0px"
	 width="30px" height="19px" viewBox="0 0 30 19" enable-background="new 0 0 30 19" xml:space="preserve">
<g>
	<path fill="#212121" d="M27.9,8.046l-0.776-3.108c0.212-0.045,0.371-0.233,0.371-0.459V3.977c0-1.087-0.886-1.973-1.973-1.973
		h-3.539V0.971C21.983,0.436,21.548,0,21.013,0H2.975C2.44,0,2.004,0.436,2.004,0.971v8.517c0,0.261,0.211,0.471,0.47,0.471
		c0.26,0,0.47-0.21,0.47-0.471V0.971c0-0.018,0.015-0.032,0.031-0.032h18.038c0.017,0,0.031,0.014,0.031,0.032v8.517
		c0,0.261,0.211,0.471,0.47,0.471c0.26,0,0.47-0.21,0.47-0.471V8.957h5.541h0.002h0.001c0.682,0.001,1.26,0.447,1.459,1.064h-1.46
		c-0.26,0-0.47,0.21-0.47,0.47v1.003c0,0.811,0.66,1.471,1.472,1.471h0.532v2.065h-1.229c-0.403-1.163-1.51-2.002-2.811-2.002
		s-2.409,0.839-2.812,2.002h-0.227v-3.536c-0.004-0.261-0.218-0.468-0.478-0.464c-0.253,0.004-0.458,0.209-0.462,0.464v3.536h-9.747
		c-0.403-1.163-1.51-2.002-2.811-2.002c-1.301,0-2.409,0.839-2.812,2.002H2.975c-0.017,0-0.031-0.014-0.031-0.03v-1.032h2.036
		c0.259,0,0.469-0.211,0.469-0.472c0-0.258-0.21-0.468-0.469-0.468H0.47C0.21,13.028,0,13.239,0,13.497
		c0,0.26,0.21,0.471,0.47,0.471h1.534V15c0,0.536,0.436,0.971,0.971,0.971h2.538c0,0.011-0.001,0.021-0.001,0.031
		c0,1.641,1.335,2.976,2.976,2.976c1.64,0,2.975-1.335,2.975-2.976c0-0.011-0.001-0.021-0.001-0.031h10.586
		c0,0.011-0.001,0.021-0.001,0.031c0,1.641,1.335,2.976,2.975,2.976c1.641,0,2.975-1.335,2.975-2.976c0-0.011,0-0.021,0-0.031h1.536
		c0.258,0,0.469-0.209,0.469-0.469V10.49C30,9.255,29.087,8.227,27.9,8.046L27.9,8.046z M21.983,4.947h4.175l0.767,3.069h-4.941
		V4.947L21.983,4.947z M25.522,2.944c0.569,0,1.033,0.463,1.033,1.033v0.031h-4.572V2.944H25.522z M8.487,18.038
		c-1.122,0-2.036-0.913-2.036-2.036c0-1.121,0.914-2.034,2.036-2.034c1.123,0,2.035,0.913,2.035,2.034
		C10.522,17.125,9.609,18.038,8.487,18.038z M25.021,18.038c-1.122,0-2.036-0.913-2.036-2.036c0-1.121,0.914-2.034,2.036-2.034
		s2.035,0.913,2.035,2.034C27.057,17.125,26.145,18.038,25.021,18.038L25.021,18.038z M28.529,12.025
		c-0.295,0-0.534-0.239-0.534-0.531V10.96h1.065v1.065H28.529z"/>
	<path fill="#212121" d="M8.487,15.03c-0.536,0-0.972,0.437-0.972,0.972c0,0.536,0.436,0.971,0.972,0.971
		c0.535,0,0.971-0.435,0.971-0.971C9.458,15.467,9.022,15.03,8.487,15.03L8.487,15.03z M25.021,15.03
		c-0.535,0-0.972,0.437-0.972,0.972c0,0.536,0.437,0.971,0.972,0.971c0.534,0,0.971-0.435,0.971-0.971
		C25.992,15.467,25.556,15.03,25.021,15.03L25.021,15.03z M12.025,13.496c0,0.261,0.21,0.472,0.47,0.472h7.014
		c0.261,0,0.471-0.211,0.471-0.472c0-0.258-0.21-0.468-0.471-0.468h-7.014C12.235,13.028,12.025,13.238,12.025,13.496z
		 M1.472,11.962h6.013c0.259-0.002,0.467-0.214,0.463-0.474c-0.002-0.257-0.208-0.462-0.463-0.466H1.472
		c-0.26,0-0.469,0.211-0.469,0.472C1.003,11.752,1.212,11.962,1.472,11.962z"/>
</g>
</svg>
