<?xml version="1.0" encoding="utf-8"?>
<!-- Generator: Adobe Illustrator 15.0.0, SVG Export Plug-In . SVG Version: 6.00 Build 0)  -->
<!DOCTYPE svg PUBLIC "-//W3C//DTD SVG 1.1//EN" "http://www.w3.org/Graphics/SVG/1.1/DTD/svg11.dtd">
<svg version="1.1" id="Capa_1" xmlns="http://www.w3.org/2000/svg" xmlns:xlink="http://www.w3.org/1999/xlink" x="0px" y="0px"
	 width="32px" height="32px" viewBox="0 0 32 32" enable-background="new 0 0 32 32" xml:space="preserve">
<g>
	<g>
		<path fill="#FFFFFF" d="M31.685,0.082c-0.194-0.111-0.435-0.109-0.628,0.005L19.604,6.86c-0.297,0.176-0.396,0.559-0.22,0.856
			c0.175,0.297,0.559,0.396,0.856,0.22l8.217-4.859L13.151,18.959l-7.613-2.33l9.936-5.875c0.297-0.176,0.396-0.559,0.22-0.856
			c-0.176-0.297-0.559-0.396-0.856-0.22L3.682,16.274C3.469,16.4,3.35,16.641,3.379,16.887s0.201,0.451,0.438,0.523l9.092,2.781
			l4.011,7.301c0.004,0.008,0.009,0.014,0.014,0.02c0.066,0.111,0.166,0.203,0.291,0.256c0.079,0.033,0.161,0.049,0.243,0.049
			c0.16,0,0.317-0.062,0.437-0.178l4.612-4.508l8.675,2.654c0.061,0.018,0.122,0.027,0.184,0.027c0.133,0,0.263-0.042,0.371-0.123
			C31.906,25.572,32,25.386,32,25.188V0.625C32,0.4,31.879,0.193,31.685,0.082z M16.954,20.576
			c-0.072,0.105-0.111,0.229-0.111,0.356v3.823l-2.739-4.985L26.225,7.195L16.954,20.576z M18.093,25.707v-3.93l3.062,0.938
			L18.093,25.707z M30.75,24.343l-12.281-3.757L30.75,2.856V24.343z"/>
	</g>
</g>
<g>
	<g>
		<path fill="#FFFFFF" d="M10.276,21.724c-0.244-0.244-0.64-0.244-0.884,0l-5.834,5.835c-0.244,0.244-0.244,0.639,0,0.883
			C3.68,28.564,3.84,28.625,4,28.625s0.32-0.061,0.442-0.184l5.834-5.834C10.521,22.363,10.521,21.968,10.276,21.724z"/>
	</g>
</g>
<g>
	<g>
		<path fill="#FFFFFF" d="M2.504,29.496c-0.244-0.244-0.64-0.244-0.884,0l-1.438,1.438c-0.244,0.244-0.244,0.639,0,0.883
			C0.305,31.939,0.465,32,0.625,32s0.32-0.061,0.442-0.184l1.438-1.438C2.749,30.135,2.749,29.74,2.504,29.496z"/>
	</g>
</g>
<g>
	<g>
		<path fill="#FFFFFF" d="M8.916,30.896c-0.116-0.117-0.277-0.184-0.442-0.184c-0.165,0-0.326,0.066-0.442,0.184
			c-0.116,0.116-0.183,0.277-0.183,0.441s0.067,0.326,0.183,0.441c0.116,0.117,0.278,0.184,0.442,0.184
			c0.165,0,0.326-0.066,0.442-0.184c0.116-0.115,0.183-0.277,0.183-0.441S9.032,31.013,8.916,30.896z"/>
	</g>
</g>
<g>
	<g>
		<path fill="#FFFFFF" d="M13.565,26.246c-0.244-0.244-0.639-0.244-0.884,0l-3.09,3.09c-0.244,0.244-0.244,0.641,0,0.885
			c0.122,0.121,0.282,0.183,0.442,0.183c0.16,0,0.32-0.062,0.442-0.183l3.09-3.091C13.81,26.886,13.81,26.49,13.565,26.246z"/>
	</g>
</g>
<g>
	<g>
		<path fill="#FFFFFF" d="M24.231,26.009c-0.244-0.244-0.64-0.244-0.884,0l-3.099,3.099c-0.244,0.244-0.244,0.64,0,0.884
			c0.122,0.122,0.282,0.183,0.442,0.183c0.159,0,0.319-0.061,0.441-0.183l3.099-3.099C24.476,26.648,24.476,26.253,24.231,26.009z"
			/>
	</g>
</g>
<g>
	<g>
		<path fill="#FFFFFF" d="M17.719,8.52c-0.116-0.116-0.277-0.183-0.441-0.183c-0.165,0-0.326,0.067-0.442,0.183
			s-0.183,0.277-0.183,0.442c0,0.165,0.066,0.325,0.183,0.441c0.116,0.117,0.277,0.183,0.442,0.183c0.164,0,0.325-0.066,0.441-0.183
			c0.116-0.116,0.184-0.277,0.184-0.441C17.902,8.797,17.835,8.636,17.719,8.52z"/>
	</g>
</g>
</svg>
