<?xml version="1.0" encoding="utf-8"?>
<!-- Generator: Adobe Illustrator 15.0.0, SVG Export Plug-In . SVG Version: 6.00 Build 0)  -->
<!DOCTYPE svg PUBLIC "-//W3C//DTD SVG 1.1//EN" "http://www.w3.org/Graphics/SVG/1.1/DTD/svg11.dtd">
<svg version="1.1" id="Layer_1" xmlns="http://www.w3.org/2000/svg" xmlns:xlink="http://www.w3.org/1999/xlink" x="0px" y="0px"
	 width="30px" height="30px" viewBox="0 0 30 30" enable-background="new 0 0 30 30" xml:space="preserve">
<g>
	<path fill="#707E89" d="M29.776,29.734c-0.195,0.195-0.512,0.195-0.707,0L19.003,19.709c-0.196-0.195-0.196-0.512,0-0.707l0,0
		c0.195-0.195,0.512-0.195,0.707,0l10.066,10.025C29.972,29.223,29.972,29.539,29.776,29.734L29.776,29.734z"/>
	<path fill="#707E89" d="M11.5,1.2c5.68,0,10.3,4.621,10.3,10.3c0,5.68-4.62,10.3-10.3,10.3c-5.679,0-10.3-4.62-10.3-10.3
		C1.2,5.821,5.821,1.2,11.5,1.2 M11.5,0C5.149,0,0,5.148,0,11.5S5.149,23,11.5,23C17.852,23,23,17.852,23,11.5S17.852,0,11.5,0
		L11.5,0z"/>
</g>
</svg>
