<?xml version="1.0" encoding="utf-8"?>
<!-- Generator: Adobe Illustrator 15.0.0, SVG Export Plug-In . SVG Version: 6.00 Build 0)  -->
<!DOCTYPE svg PUBLIC "-//W3C//DTD SVG 1.1//EN" "http://www.w3.org/Graphics/SVG/1.1/DTD/svg11.dtd">
<svg version="1.1" id="Layer_1" xmlns="http://www.w3.org/2000/svg" xmlns:xlink="http://www.w3.org/1999/xlink" x="0px" y="0px"
	 width="32px" height="32px" viewBox="1.5 1.5 32 32" enable-background="new 1.5 1.5 32 32" xml:space="preserve">
<g>
	<path fill-rule="evenodd" clip-rule="evenodd" fill="#FFFFFF" d="M12.24,29.316c-0.312-0.312-0.74-0.504-1.215-0.504
		c-0.474,0-0.903,0.191-1.214,0.504c-0.311,0.311-0.503,0.74-0.503,1.213c0,0.475,0.192,0.904,0.503,1.215s0.74,0.502,1.214,0.502
		c0.475,0,0.903-0.191,1.215-0.502c0.311-0.311,0.503-0.74,0.503-1.215C12.743,30.057,12.551,29.627,12.24,29.316z M28.604,29.316
		c-0.311-0.312-0.74-0.504-1.215-0.504c-0.473,0-0.902,0.191-1.213,0.504c-0.312,0.311-0.504,0.74-0.504,1.213
		c0,0.475,0.191,0.904,0.504,1.215c0.311,0.311,0.74,0.502,1.213,0.502c0.475,0,0.904-0.191,1.215-0.502
		c0.312-0.311,0.502-0.74,0.502-1.215C29.106,30.057,28.917,29.627,28.604,29.316z M25.761,8.613c-0.346,0-0.627,0.281-0.627,0.627
		c0,0.346,0.281,0.626,0.627,0.626c0.348,0,0.627-0.281,0.627-0.626C26.388,8.894,26.108,8.613,25.761,8.613z M15.116,24.498
		c-0.346,0-0.627,0.279-0.627,0.627c0,0.346,0.281,0.625,0.627,0.625c0.347,0,0.627-0.279,0.627-0.625
		C15.743,24.777,15.463,24.498,15.116,24.498z M17.624,25.75h10.648c0.766,0,1.4-0.299,1.887-0.785
		c0.506-0.506,0.838-1.213,0.975-1.975l1.984-11.18c0.023-0.132,0.035-0.262,0.035-0.392c0-0.665-0.295-1.306-0.752-1.805
		c-0.447-0.488-1.057-0.847-1.699-0.961c-0.146-0.026-0.295-0.04-0.443-0.04h-1.99c-0.346,0-0.629,0.281-0.629,0.626
		c0,0.347,0.283,0.627,0.629,0.627h1.99c0.076,0,0.152,0.007,0.229,0.02c0.369,0.066,0.727,0.278,0.992,0.569
		c0.254,0.278,0.42,0.622,0.42,0.963c0,0.06-0.004,0.119-0.016,0.176l-1.984,11.179c-0.092,0.518-0.307,0.984-0.627,1.305
		c-0.26,0.26-0.596,0.42-1,0.42H17.624c-0.346,0-0.627,0.279-0.627,0.627C16.997,25.471,17.278,25.75,17.624,25.75L17.624,25.75z
		 M5.761,4.472L2.19,2.683C1.882,2.528,1.757,2.153,1.911,1.846c0.154-0.309,0.529-0.434,0.838-0.28l3.807,1.907
		C6.75,3.551,6.901,3.725,6.94,3.947l0.828,4.666h15.484c0.346,0,0.627,0.281,0.627,0.627c0,0.346-0.281,0.626-0.627,0.626H7.991
		l2.6,14.632h2.019c0.346,0,0.626,0.279,0.626,0.627c0,0.346-0.28,0.625-0.626,0.625h-1.796l0.321,1.811
		c0.776,0.029,1.478,0.354,1.992,0.869c0.396,0.396,0.682,0.904,0.804,1.473h10.555c0.123-0.568,0.408-1.076,0.805-1.473
		c0.537-0.539,1.279-0.871,2.1-0.871c0.822,0,1.564,0.332,2.102,0.871c0.539,0.537,0.871,1.279,0.871,2.1
		c0,0.822-0.332,1.564-0.871,2.102c-0.537,0.537-1.279,0.869-2.102,0.869c-0.82,0-1.562-0.332-2.1-0.869
		c-0.396-0.396-0.682-0.904-0.805-1.473H13.931c-0.122,0.568-0.408,1.076-0.805,1.473c-0.537,0.537-1.279,0.869-2.101,0.869
		c-0.819,0-1.562-0.332-2.101-0.869c-0.537-0.539-0.87-1.279-0.87-2.102c0-0.82,0.333-1.562,0.87-2.1
		c0.277-0.277,0.607-0.5,0.977-0.65C8.521,20.009,7.142,12.241,5.761,4.472L5.761,4.472z"/>
	<g>
		<g>
			<path fill="#FFFFFF" d="M19.275,17.559l-1.541-1.569l-1.206,1.177l2.132,2.16c0.155,0.158,0.366,0.25,0.588,0.252
				c0.221,0.012,0.432-0.07,0.589-0.224l3.533-3.336l-1.151-1.233L19.275,17.559z"/>
		</g>
		<path fill="#FFFFFF" d="M19.949,12.925c2.348,0,4.257,1.909,4.257,4.257c0,2.347-1.909,4.256-4.257,4.256
			s-4.257-1.909-4.257-4.256C15.692,14.834,17.602,12.925,19.949,12.925 M19.949,11.682c-3.037,0-5.5,2.463-5.5,5.5
			c0,3.038,2.463,5.5,5.5,5.5s5.5-2.462,5.5-5.5C25.449,14.145,22.986,11.682,19.949,11.682L19.949,11.682z"/>
	</g>
</g>
</svg>
