<?xml version="1.0" encoding="utf-8"?>
<!-- Generator: Adobe Illustrator 15.0.0, SVG Export Plug-In . SVG Version: 6.00 Build 0)  -->
<!DOCTYPE svg PUBLIC "-//W3C//DTD SVG 1.1//EN" "http://www.w3.org/Graphics/SVG/1.1/DTD/svg11.dtd">
<svg version="1.1" id="Layer_1" xmlns="http://www.w3.org/2000/svg" xmlns:xlink="http://www.w3.org/1999/xlink" x="0px" y="0px"
	 width="32px" height="32px" viewBox="0 0 32 32" enable-background="new 0 0 32 32" xml:space="preserve">
<path fill-rule="evenodd" clip-rule="evenodd" fill="#FFFFFF" d="M10.741,27.815c-0.311-0.312-0.74-0.504-1.215-0.504
	c-0.474,0-0.904,0.192-1.214,0.504c-0.31,0.311-0.502,0.74-0.502,1.214c0,0.475,0.192,0.903,0.502,1.215
	c0.311,0.311,0.741,0.502,1.214,0.502c0.475,0,0.904-0.191,1.215-0.502c0.311-0.312,0.503-0.74,0.503-1.215
	C11.244,28.556,11.052,28.126,10.741,27.815z M27.105,27.815c-0.311-0.312-0.74-0.504-1.215-0.504c-0.473,0-0.902,0.192-1.213,0.504
	c-0.312,0.311-0.504,0.74-0.504,1.214c0,0.475,0.191,0.903,0.504,1.215c0.311,0.311,0.74,0.502,1.213,0.502
	c0.475,0,0.904-0.191,1.215-0.502c0.312-0.312,0.502-0.74,0.502-1.215C27.607,28.556,27.418,28.126,27.105,27.815z M15.591,11.345
	c-0.599,0-1.195,0.227-1.647,0.678c-0.452,0.453-0.678,1.05-0.678,1.647s0.226,1.194,0.678,1.647l4.442,4.441l4.442-4.441
	c0.453-0.453,0.68-1.05,0.68-1.647s-0.227-1.194-0.68-1.647c-0.451-0.451-1.049-0.678-1.646-0.678c-0.597,0-1.194,0.227-1.646,0.678
	l-0.706,0.707c-0.244,0.245-0.642,0.245-0.887,0l-0.705-0.707C16.785,11.571,16.188,11.345,15.591,11.345L15.591,11.345z
	 M13.057,11.137c-0.698,0.697-1.046,1.615-1.046,2.533c0,0.917,0.348,1.836,1.046,2.533l4.886,4.886
	c0.244,0.244,0.642,0.244,0.886,0l4.886-4.886c0.697-0.697,1.047-1.616,1.047-2.533c0-0.917-0.35-1.836-1.047-2.533
	c-0.695-0.698-1.615-1.046-2.533-1.046s-1.836,0.348-2.533,1.046l-0.262,0.262l-0.264-0.262c-0.696-0.698-1.614-1.046-2.532-1.046
	S13.755,10.439,13.057,11.137L13.057,11.137z M24.262,7.113c-0.346,0-0.627,0.281-0.627,0.627c0,0.346,0.281,0.626,0.627,0.626
	c0.348,0,0.627-0.281,0.627-0.626C24.889,7.394,24.609,7.113,24.262,7.113z M13.617,22.997c-0.346,0-0.627,0.28-0.627,0.627
	c0,0.346,0.281,0.626,0.627,0.626c0.347,0,0.627-0.28,0.627-0.626C14.244,23.277,13.964,22.997,13.617,22.997z M16.125,24.25h10.648
	c0.766,0,1.4-0.3,1.887-0.786c0.506-0.506,0.838-1.213,0.975-1.975l1.984-11.179c0.023-0.132,0.035-0.262,0.035-0.392
	c0-0.665-0.295-1.306-0.752-1.805c-0.447-0.488-1.057-0.847-1.699-0.961c-0.146-0.026-0.295-0.04-0.443-0.04h-1.99
	c-0.346,0-0.629,0.281-0.629,0.626c0,0.347,0.283,0.627,0.629,0.627h1.99c0.076,0,0.152,0.007,0.229,0.02
	c0.369,0.066,0.727,0.278,0.992,0.569c0.254,0.278,0.42,0.622,0.42,0.963c0,0.06-0.004,0.119-0.016,0.176L28.4,21.273
	c-0.092,0.517-0.307,0.983-0.627,1.304c-0.26,0.26-0.596,0.42-1,0.42H16.125c-0.346,0-0.627,0.28-0.627,0.627
	S15.779,24.25,16.125,24.25L16.125,24.25z M4.262,2.972l-3.57-1.789c-0.309-0.154-0.434-0.529-0.28-0.837
	c0.155-0.309,0.53-0.434,0.838-0.28l3.807,1.907c0.194,0.078,0.345,0.252,0.384,0.474L6.27,7.113h15.484
	c0.346,0,0.627,0.281,0.627,0.627c0,0.346-0.281,0.626-0.627,0.626H6.493l2.599,14.631h2.019c0.346,0,0.626,0.28,0.626,0.627
	s-0.281,0.626-0.626,0.626H9.314l0.321,1.811c0.777,0.028,1.478,0.354,1.992,0.868c0.396,0.397,0.682,0.905,0.804,1.474h10.555
	c0.123-0.568,0.408-1.076,0.805-1.474c0.537-0.538,1.279-0.871,2.1-0.871c0.822,0,1.564,0.333,2.102,0.871
	c0.539,0.537,0.871,1.28,0.871,2.101c0,0.821-0.332,1.563-0.871,2.101C27.455,31.667,26.713,32,25.891,32
	c-0.82,0-1.562-0.333-2.1-0.87c-0.396-0.396-0.682-0.904-0.805-1.473H12.432c-0.122,0.568-0.408,1.076-0.804,1.473
	C11.09,31.667,10.347,32,9.526,32c-0.82,0-1.562-0.333-2.101-0.87c-0.538-0.538-0.87-1.279-0.87-2.101
	c0-0.82,0.333-1.563,0.87-2.101c0.277-0.276,0.608-0.499,0.976-0.65C7.022,18.509,5.642,10.741,4.262,2.972L4.262,2.972z"/>
</svg>
