<?xml version="1.0" encoding="utf-8"?>
<!-- Generator: Adobe Illustrator 15.0.0, SVG Export Plug-In . SVG Version: 6.00 Build 0)  -->
<!DOCTYPE svg PUBLIC "-//W3C//DTD SVG 1.1//EN" "http://www.w3.org/Graphics/SVG/1.1/DTD/svg11.dtd">
<svg version="1.1" id="Layer_1" xmlns="http://www.w3.org/2000/svg" xmlns:xlink="http://www.w3.org/1999/xlink" x="0px" y="0px"
	 width="24px" height="24px" viewBox="0.5 0.5 24 24" enable-background="new 0.5 0.5 24 24" xml:space="preserve">
<path fill="#DA151D" d="M22.551,3.915c-1.23-1.259-2.895-1.949-4.666-1.949s-3.445,0.689-4.705,1.949l-0.65,0.661l-0.66-0.669
	c-1.27-1.25-2.943-1.94-4.725-1.94c-1.772,0-3.446,0.689-4.686,1.94C1.189,5.155,0.5,6.81,0.5,8.601
	c0,1.771,0.689,3.445,1.949,4.686l9.569,9.548c0.138,0.139,0.315,0.198,0.492,0.198c0.167,0,0.344-0.06,0.472-0.198l9.568-9.528
	c1.262-1.251,1.949-2.924,1.949-4.697c0-1.772-0.688-3.446-1.941-4.696L22.551,3.915L22.551,3.915z M21.586,12.341l-9.083,9.057
	l-9.066-9.076C2.422,11.337,1.88,10.009,1.88,8.601c0-1.408,0.542-2.737,1.536-3.721c0.984-0.984,2.312-1.545,3.72-1.545
	c1.409,0,2.727,0.542,3.741,1.536l1.14,1.162c0.295,0.266,0.718,0.266,0.984,0l1.143-1.142c0.984-0.984,2.322-1.545,3.721-1.545
	c1.396,0,2.727,0.551,3.721,1.545c0.986,0.984,1.545,2.313,1.545,3.721s-0.559,2.727-1.557,3.741L21.586,12.341z"/>
</svg>
