<?xml version="1.0" encoding="utf-8"?>
<!-- Generator: Adobe Illustrator 15.0.0, SVG Export Plug-In . SVG Version: 6.00 Build 0)  -->
<!DOCTYPE svg PUBLIC "-//W3C//DTD SVG 1.1//EN" "http://www.w3.org/Graphics/SVG/1.1/DTD/svg11.dtd">
<svg version="1.1" id="Layer_1" xmlns="http://www.w3.org/2000/svg" xmlns:xlink="http://www.w3.org/1999/xlink" x="0px" y="0px"
	 width="26px" height="24px" viewBox="-1 0 26 24" enable-background="new -1 0 26 24" xml:space="preserve">
<g>
	<path fill="#DA151D" d="M22.053,3.415c-1.23-1.26-2.895-1.949-4.668-1.949c-1.77,0-3.445,0.689-4.705,1.949l-0.65,0.66l-0.657-0.67
		c-1.271-1.25-2.944-1.939-4.727-1.939c-1.771,0-3.445,0.689-4.686,1.939C0.689,4.656,0,6.31,0,8.102
		c0,1.771,0.689,3.445,1.949,4.686l9.568,9.55c0.138,0.137,0.314,0.197,0.492,0.197c0.167,0,0.345-0.062,0.474-0.197l9.568-9.528
		C23.311,11.557,24,9.884,24,8.112s-0.689-3.446-1.941-4.696L22.053,3.415L22.053,3.415z"/>
	<rect x="-1" fill="none" width="26" height="24"/>
</g>
</svg>
