<?xml version="1.0" encoding="utf-8"?>
<!-- Generator: Adobe Illustrator 15.0.0, SVG Export Plug-In . SVG Version: 6.00 Build 0)  -->
<!DOCTYPE svg PUBLIC "-//W3C//DTD SVG 1.1//EN" "http://www.w3.org/Graphics/SVG/1.1/DTD/svg11.dtd">
<svg version="1.1" id="Layer_1" xmlns="http://www.w3.org/2000/svg" xmlns:xlink="http://www.w3.org/1999/xlink" x="0px" y="0px"
	 width="18px" height="18px" viewBox="3 3 18 18" enable-background="new 3 3 18 18" xml:space="preserve">
<path fill="#DA151D" d="M19.539,5.561c-0.922-0.945-2.171-1.462-3.5-1.462c-1.328,0-2.584,0.517-3.529,1.462l-0.488,0.495
	l-0.493-0.503c-0.952-0.938-2.207-1.454-3.544-1.454c-1.329,0-2.584,0.517-3.516,1.454C3.517,6.491,3,7.732,3,9.076
	c0,1.328,0.517,2.583,1.462,3.515l7.177,7.161c0.102,0.104,0.234,0.148,0.368,0.148c0.125,0,0.259-0.045,0.354-0.148l7.177-7.146
	C20.484,11.667,21,10.411,21,9.082c0-1.33-0.516-2.585-1.455-3.522L19.539,5.561L19.539,5.561z"/>
</svg>
