<?xml version="1.0" encoding="utf-8"?>
<!-- Generator: Adobe Illustrator 15.0.0, SVG Export Plug-In . SVG Version: 6.00 Build 0)  -->
<!DOCTYPE svg PUBLIC "-//W3C//DTD SVG 1.1//EN" "http://www.w3.org/Graphics/SVG/1.1/DTD/svg11.dtd">
<svg version="1.1" id="Layer_1" xmlns="http://www.w3.org/2000/svg" xmlns:xlink="http://www.w3.org/1999/xlink" x="0px" y="0px"
	 width="26px" height="24px" viewBox="-1 0 26 24" enable-background="new -1 0 26 24" xml:space="preserve">
<g>
	<path fill="#DA151D" d="M22.051,3.415c-1.23-1.259-2.895-1.949-4.666-1.949c-1.77,0-3.445,0.689-4.705,1.949l-0.65,0.661
		l-0.658-0.669c-1.27-1.25-2.943-1.94-4.725-1.94c-1.772,0-3.446,0.689-4.686,1.94C0.689,4.655,0,6.311,0,8.102
		c0,1.771,0.689,3.444,1.949,4.686l9.569,9.548c0.138,0.141,0.315,0.198,0.492,0.198c0.167,0,0.344-0.062,0.473-0.198l9.568-9.527
		C23.312,11.557,24,9.883,24,8.11s-0.689-3.446-1.941-4.696L22.051,3.415L22.051,3.415z M21.086,11.841l-9.083,9.058l-9.066-9.075
		C1.922,10.837,1.38,9.509,1.38,8.102c0-1.408,0.542-2.737,1.536-3.722C3.9,3.396,5.229,2.835,6.636,2.835
		c1.409,0,2.727,0.542,3.741,1.536l1.14,1.162c0.295,0.266,0.717,0.266,0.984,0l1.144-1.142c0.983-0.984,2.321-1.545,3.721-1.545
		c1.396,0,2.727,0.551,3.721,1.545c0.986,0.983,1.545,2.312,1.545,3.721c0,1.409-0.559,2.727-1.557,3.741L21.086,11.841z"/>
	<rect x="-1" fill="none" width="26" height="24"/>
</g>
</svg>
