<?xml version="1.0" encoding="utf-8"?>
<!-- Generator: Adobe Illustrator 15.0.0, SVG Export Plug-In . SVG Version: 6.00 Build 0)  -->
<!DOCTYPE svg PUBLIC "-//W3C//DTD SVG 1.1//EN" "http://www.w3.org/Graphics/SVG/1.1/DTD/svg11.dtd">
<svg version="1.1" id="Layer_1" xmlns="http://www.w3.org/2000/svg" xmlns:xlink="http://www.w3.org/1999/xlink" x="0px" y="0px"
	 width="18px" height="18px" viewBox="3 3 18 18" enable-background="new 3 3 18 18" xml:space="preserve">
<path fill="#DA151D" d="M19.539,5.561c-0.922-0.945-2.171-1.462-3.5-1.462c-1.328,0-2.584,0.517-3.529,1.462l-0.488,0.495
	l-0.494-0.503c-0.953-0.938-2.207-1.454-3.544-1.454c-1.329,0-2.583,0.517-3.515,1.454C3.517,6.491,3,7.732,3,9.076
	c0,1.328,0.517,2.583,1.462,3.515l7.176,7.161c0.103,0.104,0.235,0.148,0.369,0.148c0.125,0,0.258-0.045,0.355-0.148l7.176-7.146
	C20.484,11.667,21,10.411,21,9.082c0-1.33-0.516-2.585-1.455-3.522L19.539,5.561L19.539,5.561z M18.815,11.881l-6.814,6.792
	l-6.8-6.806c-0.761-0.738-1.167-1.735-1.167-2.806c0-1.034,0.406-2.038,1.152-2.776C5.924,5.547,6.921,5.126,7.97,5.126
	c1.063,0,2.052,0.406,2.806,1.151l0.863,0.872c0.221,0.199,0.539,0.199,0.738,0l0.857-0.857c0.737-0.738,1.733-1.158,2.79-1.158
	s2.045,0.413,2.792,1.158c0.737,0.738,1.15,1.734,1.15,2.791c0,1.056-0.405,2.046-1.15,2.806V11.881L18.815,11.881z"/>
</svg>
