<?xml version="1.0" encoding="utf-8"?>
<!-- Generator: Adobe Illustrator 15.0.0, SVG Export Plug-In . SVG Version: 6.00 Build 0)  -->
<!DOCTYPE svg PUBLIC "-//W3C//DTD SVG 1.1//EN" "http://www.w3.org/Graphics/SVG/1.1/DTD/svg11.dtd">
<svg version="1.1" id="Layer_1" xmlns="http://www.w3.org/2000/svg" xmlns:xlink="http://www.w3.org/1999/xlink" x="0px" y="0px"
	 width="24px" height="24px" viewBox="0.5 0.5 24 24" enable-background="new 0.5 0.5 24 24" xml:space="preserve">
<path fill="#DA151D" d="M22.552,3.915c-1.23-1.26-2.895-1.949-4.667-1.949c-1.771,0-3.445,0.689-4.706,1.949l-0.649,0.66
	l-0.659-0.67c-1.27-1.25-2.943-1.939-4.726-1.939c-1.771,0-3.445,0.689-4.686,1.939C1.189,5.156,0.5,6.81,0.5,8.602
	c0,1.771,0.689,3.445,1.949,4.686l9.568,9.549c0.138,0.138,0.314,0.197,0.492,0.197c0.167,0,0.345-0.06,0.474-0.197l9.568-9.529
	c1.26-1.251,1.948-2.924,1.948-4.696s-0.688-3.446-1.94-4.696L22.552,3.915L22.552,3.915z"/>
</svg>
