<?xml version="1.0" encoding="utf-8"?>
<!-- Generator: Adobe Illustrator 15.0.0, SVG Export Plug-In . SVG Version: 6.00 Build 0)  -->
<!DOCTYPE svg PUBLIC "-//W3C//DTD SVG 1.1//EN" "http://www.w3.org/Graphics/SVG/1.1/DTD/svg11.dtd">
<svg version="1.1" id="Layer_1" xmlns="http://www.w3.org/2000/svg" xmlns:xlink="http://www.w3.org/1999/xlink" x="0px" y="0px"
	 width="18px" height="18px" viewBox="3 3 18 18" enable-background="new 3 3 18 18" xml:space="preserve">
<path fill="#DA151D" d="M19.539,5.562c-0.922-0.945-2.171-1.462-3.5-1.462c-1.328,0-2.584,0.517-3.529,1.462l-0.488,0.495
	l-0.494-0.503C10.576,4.616,9.321,4.1,7.984,4.1C6.655,4.1,5.4,4.616,4.469,5.554C3.517,6.492,3,7.732,3,9.076
	c0,1.329,0.517,2.584,1.462,3.515l7.176,7.162c0.103,0.104,0.235,0.148,0.369,0.148c0.125,0,0.258-0.045,0.355-0.148l7.176-7.146
	C20.484,11.667,21,10.412,21,9.082c0-1.329-0.516-2.584-1.455-3.521L19.539,5.562L19.539,5.562z"/>
</svg>
